<?xml version="1.0" encoding="utf-8"?>

<!DOCTYPE svg PUBLIC "-//W3C//DTD SVG 1.1//EN" "http://www.w3.org/Graphics/SVG/1.1/DTD/svg11.dtd">
<!-- Uploaded to: SVG Repo, www.svgrepo.com, Generator: SVG Repo Mixer Tools -->
<svg version="1.1" id="_x32_" xmlns="http://www.w3.org/2000/svg" xmlns:xlink="http://www.w3.org/1999/xlink" 
	 width="800px" height="800px" viewBox="0 0 512 512"  xml:space="preserve">
<style type="text/css">
<![CDATA[
	.st0{fill:#000000;}
]]>
</style>
<g>
	<path class="st0" d="M510.723,189.37c-1.641-2.297-4.531-3.344-7.25-2.656c0,0-2.375-1.391-12.797,3.266
		c-38.078,16.984-79.906,56.891-95.062,60.688c-15.281,3.813-92.438-38.594-123.672-45.734c-1.313-5.688-2.516-12.266-3.469-19.813
		c-3.875-31.078,17.891-64.313-11.953-58.188c-46.531,9.516-72.922,44.641-87.578,73.813c-51.078,6.297-102.734,25.5-137.938,34.594
		c-40.547,10.5-37.328,36.219-13.219,44.25l99.688,32.172l-80.438,12.703c-2.359,0.375-4.359,1.953-5.266,4.188
		c-0.906,2.219-0.563,4.75,0.859,6.672l2.828,3.766c74.781,32.641,148.922,26.547,203.484,19.219
		c17.594,10.031,40.656,21.734,60.547,27.078c21.734,3.969,5.75-21.203-7.172-38.25c62.813-17.781,94.953-34.953,107.047-27.984
		c36.156,20.797,64.093,32.063,81.875,37.984c14.391,4.797,5.313,1.453,5.313,1.453c2.719,0.75,5.609-0.234,7.281-2.484
		c1.688-2.266,1.828-5.313,0.344-7.688l-3.297-5.328l-29.344-47.406c0,0,20.219-50.016,43.047-88.969
		c5.234-8.922,6.297-9.625,6.297-9.625C512.426,194.729,512.363,191.667,510.723,189.37z M79.676,271.558
		c-6.656,0-12.047-5.391-12.047-12.063c0-6.656,5.391-12.047,12.047-12.047c6.672,0,12.063,5.391,12.063,12.047
		C91.739,266.167,86.348,271.558,79.676,271.558z"/>
</g>
</svg>