<?xml version="1.0" encoding="utf-8"?>
<!-- Svg Vector Icons : http://www.onlinewebfonts.com/icon -->
<!DOCTYPE svg PUBLIC "-//W3C//DTD SVG 1.1//EN" "http://www.w3.org/Graphics/SVG/1.1/DTD/svg11.dtd">
<svg version="1.1" xmlns="http://www.w3.org/2000/svg" xmlns:xlink="http://www.w3.org/1999/xlink" x="0px" y="0px" viewBox="0 0 256 256" enable-background="new 0 0 256 256" xml:space="preserve">
<metadata> Svg Vector Icons : http://www.onlinewebfonts.com/icon </metadata>
<g><g><g><g><path fill="#000000" d="M199.4,62.7c-5.7-4.3-7.6-12.1-3.9-18.2l15.9-26c3.7-6.1,1-11-6.1-11H50.8c-7.1,0-9.6,4.8-5.7,10.7l17.1,25.3c4,5.9,2.2,13.5-3.6,17.6C29.2,82.7,10,117.4,10,156.7c0,28.1,14.7,60.2,32.4,82.2c4.5,5.5,14.4,9.6,21.5,9.6h124.3c7.1,0,17.2-3.8,21.9-9.1c19.8-21.7,35.8-52.6,35.8-82.6C246,118.4,227.7,84.3,199.4,62.7z M44.7,122.4c0-3.5,2.9-6.4,6.4-6.4c3.5,0,6.4,2.9,6.4,6.4c0,3.5-2.9,6.4-6.4,6.4C47.5,128.8,44.7,125.9,44.7,122.4z M66.7,157.7c-6.4,0-11.6-5.2-11.6-11.6s5.2-11.6,11.6-11.6c6.4,0,11.6,5.2,11.6,11.6S73.1,157.7,66.7,157.7z M77.1,51.9c0,0,11.8-8.7,40.9-3.5c29.1,5.2,52.5-5.2,52.5-5.2c-5.2,10.6-24.9,27.6-49.3,15.3C97,46.1,77.1,51.9,77.1,51.9z M128.2,79.5c-0.7-1.3-0.3-1.7,0.9-0.9c7.2,4.9,16.9,12.9,20.3,30.6c0.3,1.5-0.2,1.7-1.1,0.5c-1.6-2.3-3.4-4.5-5.2-6.7l-1.5-1.9c-0.9-1-2.2-1-3.1,0c-0.9,1-1.6,1.8-1.6,1.8c-0.2,0.2-1.8,2.1-4.2,5.5c-0.9,1.2-1.3,1.1-1-0.4C132.9,101.2,133.5,89.9,128.2,79.5z M112.9,171.4c0.1,1.5-0.7,3.6-1.9,4.5c-1.4,1-2.9,1.7-4.2,1.6c-1.5-0.1-3-2.4-3.1-3.9c0-0.3,0-0.6,0-0.9c0.2-1.5,2-3.5,1.8-5c-0.2-2.2-1.6-4.8-2.2-6.1c-2.2-4.6-1.4-14.7-1.4-16.2c0-1.7,1.7-7.4,3.3-0.4c0.7,2.6,1.2,7.1,6.2,13c1,1.2,1.7,3.2,1.6,4.7C112.8,165.6,112.7,168.5,112.9,171.4z M142.1,223.9c-1.1,1-2.9,0.8-3.9-0.3c-43.5-52.4-8.4-104.7,0.1-115.8c0.9-1.2,2.5-1.2,3.4,0C187.6,165.5,153.4,213.3,142.1,223.9z M178.9,161.6c-0.6,1.3-2,3.9-2.2,6.1c-0.1,1.5,1.6,3.5,1.8,5c0,0.3,0,0.6,0,0.9c-0.1,1.5-1.6,3.8-3.1,3.9c-1.4,0.1-3-0.8-4.5-1.8c-1.2-0.9-2-3-1.9-4.5c0.1-2.7,0.1-5.5-0.1-8.2c-0.1-1.5,0.7-3.6,1.7-4.7c5.2-6,5.7-10.7,6.4-13.3c1.6-6.9,3.4-1.3,3.3,0.4C180.3,146.8,181.1,156.9,178.9,161.6z M176.8,89.4c-3.1,0-5.6-2.5-5.6-5.6s2.5-5.6,5.6-5.6c3.1,0,5.6,2.5,5.6,5.6S179.9,89.4,176.8,89.4z"/><path fill="#000000" d="M149 166.1a3.8 3.8 0 1 0 7.6 0a3.8 3.8 0 1 0 -7.6 0z"/><path fill="#000000" d="M124.6 166.1a3.8 3.8 0 1 0 7.6 0a3.8 3.8 0 1 0 -7.6 0z"/><path fill="#000000" d="M134.1 193.1a6.7 4.3 0 1 0 13.4 0a6.7 4.3 0 1 0 -13.4 0z"/></g></g><g></g><g></g><g></g><g></g><g></g><g></g><g></g><g></g><g></g><g></g><g></g><g></g><g></g><g></g><g></g></g></g>
</svg>