<svg aria-hidden="true" style="position: absolute; width: 0; height: 0; overflow: hidden;" version="1.1" xmlns="http://www.w3.org/2000/svg" xmlns:xlink="http://www.w3.org/1999/xlink">
<defs>
<symbol id="icon-ph-meter" viewBox="0 0 32 32">
<path d="M19.773 4.581c-0.279 0-0.505 0.226-0.505 0.505v1.92h-2.223v-1.92c0-0.279-0.226-0.505-0.505-0.505s-0.505 0.226-0.505 0.505v5.12c0 0.279 0.226 0.505 0.505 0.505s0.505-0.226 0.505-0.505v-2.189h2.223v2.189c0 0.279 0.226 0.505 0.505 0.505s0.505-0.226 0.505-0.505v-5.12c0-0.279-0.226-0.505-0.505-0.505z"></path>
<path d="M14.922 4.581h-2.695c-0.279 0-0.505 0.226-0.505 0.505v5.12c0 0.279 0.226 0.505 0.505 0.505s0.505-0.226 0.505-0.505v-2.189h2.189c0.279 0 0.505-0.226 0.505-0.505v-2.425c0-0.279-0.226-0.505-0.505-0.505zM14.417 7.006h-1.684v-1.415h1.684v1.415z"></path>
<path d="M23.815 0h-15.63c-0.279 0-0.505 0.226-0.505 0.505v3.368c0 0.279 0.226 0.505 0.505 0.505s0.505-0.226 0.505-0.505v-2.863h14.619v13.54l-4.528 3.773h-5.563l-4.528-3.774v-8.386c0-0.279-0.226-0.505-0.505-0.505s-0.505 0.226-0.505 0.505v8.623c0 0.15 0.067 0.292 0.182 0.388l4.669 3.891v7.578c0 0.279 0.226 0.505 0.505 0.505h0.573v4.345c0 0.279 0.226 0.505 0.505 0.505h3.773c0.279 0 0.505-0.226 0.505-0.505v-4.345h0.573c0.279 0 0.505-0.226 0.505-0.505v-7.578l4.669-3.891c0.115-0.096 0.182-0.238 0.182-0.388v-14.282c0-0.279-0.226-0.505-0.505-0.505zM17.381 30.989h-2.762v-3.84h2.762v3.84zM18.459 26.139h-4.918v-6.804h4.918v6.804z"></path>
<path d="M21.659 2.425h-11.318c-0.279 0-0.505 0.226-0.505 0.505v9.432c0 0.279 0.226 0.505 0.505 0.505h11.318c0.279 0 0.505-0.226 0.505-0.505v-9.432c0-0.279-0.226-0.505-0.505-0.505zM21.154 11.857h-10.307v-8.421h10.307v8.421z"></path>
<path d="M13.44 13.474c-0.947 0-1.718 0.771-1.718 1.718s0.771 1.718 1.718 1.718c0.947 0 1.718-0.771 1.718-1.718s-0.771-1.718-1.718-1.718zM13.44 15.899c-0.39 0-0.707-0.317-0.707-0.707s0.317-0.707 0.707-0.707c0.39 0 0.707 0.317 0.707 0.707s-0.317 0.707-0.707 0.707z"></path>
<path d="M18.56 13.474c-0.947 0-1.718 0.771-1.718 1.718s0.771 1.718 1.718 1.718c0.947 0 1.718-0.771 1.718-1.718s-0.771-1.718-1.718-1.718zM18.56 15.899c-0.39 0-0.707-0.317-0.707-0.707s0.317-0.707 0.707-0.707 0.707 0.317 0.707 0.707c0 0.39-0.317 0.707-0.707 0.707z"></path>
<path d="M17.078 22.125c-0.279 0-0.505 0.226-0.505 0.505v1.858c0 0.279 0.226 0.505 0.505 0.505s0.505-0.226 0.505-0.505v-1.858c0-0.279-0.226-0.505-0.505-0.505z"></path>
<path d="M17.078 20.21c-0.279 0-0.505 0.226-0.505 0.505v0.532c0 0.279 0.226 0.505 0.505 0.505s0.505-0.226 0.505-0.505v-0.532c0-0.279-0.226-0.505-0.505-0.505z"></path>
</symbol>
</defs>
</svg>
