<?xml version="1.0" encoding="utf-8"?>
<!-- Uploaded to: SVG Repo, www.svgrepo.com, Generator: SVG Repo Mixer Tools -->
<svg fill="#000000" height="800px" width="800px" version="1.2" baseProfile="tiny" id="Layer_1" xmlns="http://www.w3.org/2000/svg" xmlns:xlink="http://www.w3.org/1999/xlink"
	  viewBox="0 0 256 256" xml:space="preserve">
<path id="XMLID_6_" d="M39.7,145.2L3.9,162.6c-0.4,0.2-0.7,0.3-1.2,0.3c-1.5,0-2.8-1.3-2.8-2.8c0-0.5,0.2-1,0.4-1.5l21.1-26
	L0.4,106.4c-0.2-0.4-0.4-0.9-0.4-1.4c0-1.5,1.3-2.8,2.8-2.8c0.4,0,0.8,0.1,1.2,0.3l35.8,17.5c112.6-103,164.4-7.5,164.4-7.5l0,0
	c0.3,0.3,0.4,0.6,0.4,1c0,0.5-0.3,1-0.7,1.3l-72,22.2c-0.9,0.5-1.3,1.2-1.3,2.1c0,1.2,1,2.2,2.2,2.2l73,26.8c0.4,0,0.9,0.4,0.9,0.8
	c0,0.3-0.1,0.4-0.3,0.5l0,0C95.1,228.5,39.7,145.2,39.7,145.2z M168.8,104.2c0-3.5-3-6.5-6.5-6.5s-6.5,2.9-6.5,6.5
	c0,3.5,3,6.5,6.5,6.5C165.9,110.6,168.8,107.7,168.8,104.2z M161.3,144.5L161.3,144.5c-0.1-0.1-0.1-0.1-0.1-0.1
	c0-0.1,0.1-0.2,0.2-0.2c0,0,5.9-0.8,5.6-0.9l-4.9-2.4c-0.1-0.1-0.2-0.2-0.2-0.3c0-0.1,0.1-0.2,0.1-0.2l0,0c0,0,6.8-11.5,35.6-0.4
	l7.9-3.9c0.1-0.1,0.2-0.1,0.3-0.1c0.3,0,0.6,0.3,0.6,0.6c0,0.1-0.1,0.2-0.1,0.3l-4.7,5.8l4.7,5.8c0.1,0.1,0.1,0.2,0.1,0.3
	c0,0.4-0.3,0.7-0.6,0.7c-0.1,0-0.2-0.1-0.3-0.1l-7.9-3.9C197.7,145.6,176.4,156.6,161.3,144.5z"/>
<path d="M209.2,125.4L209.2,125.4c-0.1-0.1-0.1-0.1-0.1-0.1c0-0.1,0.1-0.2,0.2-0.2c0,0,6.1-0.9,5.8-0.9l-5.1-2.5
	c-0.1-0.1-0.2-0.2-0.2-0.3c0-0.1,0.1-0.2,0.1-0.2l0,0c0,0,7-11.9,36.9-0.4l8.2-4c0.1-0.1,0.2-0.1,0.3-0.1c0.3,0,0.6,0.3,0.6,0.6
	c0,0.1-0.1,0.2-0.1,0.3l-4.9,6l4.9,6c0.1,0.1,0.1,0.2,0.1,0.3c0,0.4-0.3,0.7-0.6,0.7c-0.1,0-0.2-0.1-0.3-0.1l-8.2-4
	C246.9,126.6,224.9,137.9,209.2,125.4z"/>
<path d="M209.2,161.3L209.2,161.3c-0.1-0.1-0.1-0.1-0.1-0.1c0-0.1,0.1-0.2,0.2-0.2c0,0,6.1-0.9,5.8-0.9l-5.1-2.5
	c-0.1-0.1-0.2-0.2-0.2-0.3c0-0.1,0.1-0.2,0.1-0.2l0,0c0,0,7-11.9,36.9-0.4l8.2-4c0.1-0.1,0.2-0.1,0.3-0.1c0.3,0,0.6,0.3,0.6,0.6
	c0,0.1-0.1,0.2-0.1,0.3l-4.9,6l4.9,6c0.1,0.1,0.1,0.2,0.1,0.3c0,0.4-0.3,0.7-0.6,0.7c-0.1,0-0.2-0.1-0.3-0.1l-8.2-4
	C246.9,162.5,224.9,173.8,209.2,161.3z"/>
</svg>