<svg xmlns="http://www.w3.org/2000/svg" width="840" height="840" version="1.0" viewBox="0 0 630 630"><path d="M389 60.1c-9.6.9-29.9 5.8-41.5 10-10.6 3.8-18.4 8.2-26.3 14.8-8.7 7.2-14.3 11.1-16.1 11.1-.9 0-4.5-2.5-8.1-5.6-13.2-11.2-40.9-21.5-62-23-11.7-.8-32.8 3.2-49.9 9.3-19.1 6.9-29.7 13-44.7 25.5-18.2 15.2-30.3 30.7-31.2 39.9-.5 4.9-.4 4.9 3.4 6.5 4.8 2 13.5 1.3 21.4-1.7 5.9-2.3 16.8-5.5 24-7 2.5-.5 9.7-1 16-1 9.5 0 12.9.4 19.5 2.4 15.6 4.9 23.4 8.9 29.8 15.5l3.9 4-8.4.7c-11 1-21.9.9-29.8-.4l-6.4-1.1-3.3 3.2c-2.4 2.3-3.3 4.1-3.3 6.4 0 5.6.7 6.4 6 6.4 2.7 0 6 .4 7.3.9 2.4.9 2.5 1.4 2.6 9.6.2 15.4-3 21.7-15.9 31.4-2.5 1.9-5.3 4.3-6.3 5.4-.9 1-3.5 3.3-5.6 5.1-4.1 3.3-21.6 23.9-26.8 31.6-6 8.9-17.5 34-23.2 50.7-7.7 22.5-11.4 65.7-7.6 88.4 3.3 19.9 7.4 34 15.7 53.4 10.5 24.5 17.6 37.7 28.9 54 9.6 13.7 16.7 21 24.2 24.6 7.7 3.6 9.4 5.3 10.2 9.9.4 2.1 1.3 4.6 2 5.7.8 1 1.5 3 1.5 4.6 0 1.5 1.2 5 2.7 7.9 2.2 4 3.8 5.5 7.3 7.1 4.1 1.8 6.1 2 22 1.6 27.5-.6 79.8-.5 99.5.3 33.4 1.4 88.9 2.1 101.8 1.3l12.7-.7 6-5c6.4-5.5 8.2-9.3 9.5-20.8 1.4-12.2 9.6-25.2 22.2-35.1 15.4-12.1 25.6-25.8 39.1-52.7 6.4-12.6 8.5-17.8 9.2-23 .6-3.7 1.6-9.9 2.2-13.7.5-3.9 1.1-19.6 1.2-35 .1-28.7-1.4-46.8-4.9-57-.7-2.2-1.7-5.6-2-7.5-.7-3.6-4.9-13.1-11.2-25.5-1.9-3.9-5-10.4-6.8-14.7-4-9.5-11.3-22.6-16.6-29.8-2.2-3-5.1-7.1-6.3-9-1.3-1.9-6.5-8.5-11.7-14.5-16.7-19.5-18.3-22.5-19.5-34.2-.8-7.7-.3-8.3 7.4-8.3 2.9 0 6.8-.7 8.7-1.4 3.4-1.4 3.5-1.7 3.5-6.9 0-8.1-1.2-9.2-11.2-9.4-4.6-.2-10.1-.5-12.3-.7-6-.6-73.1-2.6-89.2-2.6H344l3.3-4.6c1.7-2.5 5.9-6.6 9.2-9.1 7.6-5.8 23.8-15.3 29-17.1 39.4-13.8 84.7-14.4 105.5-1.3 3.3 2.1 9.5 4.4 13 4.8 3.2.5 4 .2 5.4-1.9.9-1.4 1.7-4.1 1.7-5.9.2-4.6-3.6-14.2-8.1-20.9-5.6-8.2-19.7-20.8-28-25-2.4-1.3-6-3.3-8-4.6-1.9-1.3-5.3-3-7.5-3.7-2.2-.8-6.9-2.8-10.5-4.5-14.4-6.7-39.4-10.1-60-8.1zm42.6 7.7c3.9 1 9.7 3.1 12.9 4.6 3.2 1.4 6.1 2.6 6.6 2.6 2.7 0 24.2 12 30.7 17.1 11.1 8.6 19 18.4 22.9 27.9 2.4 5.9 2.8 8.6 1.4 9.4-1.2.8-10.5-2.6-16.1-5.7-6.4-3.6-18.8-6.7-31-7.7-11-1-34.9.1-44.5 2-7.8 1.6-15.5 4.2-15.5 5.3 0 .5-1.1.7-2.5.5-1.4-.3-2.8-.1-3.1.3-.3.5-1.8.9-3.3.9-3.1 0-14.6 4.3-17 6.3-.9.8-4.3 3-7.6 5-3.3 1.9-9.1 5.8-12.8 8.6l-6.9 5.1 4.4-5.7c7.2-9.4 9-12.3 7.6-11.8-.8.3-2.1 1.8-3 3.3-2 3.3-11.5 15.3-13.2 16.7-.7.6-1.6 2.1-2 3.5-.7 2.4-.6 2.4.8.6 1.9-2.4 2.1-.8.4 3l-1.2 2.6-26.6-.7c-14.6-.4-37.5-.8-50.9-1-19.3-.2-24.5-.5-25.2-1.6-1.4-2.2-1.1-2.9 1.4-3 1.4 0 1.7-.2.7-.6-.8-.3-2.3-1.2-3.3-2.1-.9-.8-2-1.2-2.4-.9-.3.4-2.5-1-4.8-3.2-4.6-4.3-17.5-10.7-28-14.1-3.8-1.2-8.1-2.6-9.4-3.1-1.3-.6-2.8-.6-3.3-.1-.4.4 3.5 2 8.7 3.5 5.2 1.4 12.8 4.2 16.7 6.2 10.5 5.1 25.9 19.5 20.8 19.5-.5 0-1.4-.9-2-2.1-4.2-7.7-23-19-38.2-23-15.2-3.9-41.4-1.6-58.5 5.3-8.9 3.5-17.9 4.7-20.6 2.6-1.5-1.1-1.6-1.8-.8-4.1.6-1.5 1.7-2.7 2.5-2.7.7 0 2-.8 2.7-1.8 1.1-1.4 1.1-1.5-.1-.5-2.4 2.2-3.1 1.4-1.5-1.5 5-8.7 16.6-21.2 19.8-21.2 1.5 0 1.8-.3.9-.8-1.8-1.2 14-13.4 25.3-19.5 5-2.7 9.5-5.3 10-5.7.6-.4 7.8-3.1 16-5.9 16.7-5.6 28.9-7.7 44.5-7.5 10.8.1 25.7 3.9 38.4 9.9 3.9 1.8 8.8 4 10.8 4.8 4.4 1.8 5.4 2.6 12.1 9 6.2 5.9 8.3 6.5 13.6 3.7 4.1-2 5.7-3.2 13-9.6 11.2-9.8 29.3-17.6 52.6-22.8 11.1-2.4 11-2.4 31-2.1 15.2.2 20.4.7 26.1 2.3zm-196.1 86.3c1.1 1.7-.1 2.1-1.5.4-.8-.9-.8-1.5-.2-1.5.6 0 1.4.5 1.7 1.1zm33.8 11.6c-.7.2-2.1.2-3 0-1-.3-.4-.5 1.2-.5 1.7 0 2.4.2 1.8.5zm-60.9 1.8c.7 2-2.2 1.9-4.8 0-1.9-1.4-1.8-1.5 1.1-1.5 1.8 0 3.3.6 3.7 1.5zm187.3.8c.3.4-1.2.7-3.5.7s-4.7.7-5.6 1.5c-1.5 1.6-3.1 2.1-2.2.7.2-.4-1.3-.6-3.5-.4-2.7.3-4 0-4.4-1-.3-.8-1.6-1.3-2.8-1.2-1.2.1-4.2.3-6.7.5-2.5.1-3.5.4-2.2.6 1.2.2 2 .8 1.7 1.3-.3.5 2.1 1.1 5.2 1.5 11.1 1.2 13.6 1.7 12.3 2.5-1.8 1.1-45.2 1.1-47 0-1.1-.7-.6-1 2-1s3.1-.3 2-1c-1.3-.8-1.2-1 .5-1.1 4.3-.3 4.8-.4 5.2-1.7.3-.7-.4-1.2-1.5-1.2s-2.9-.3-3.9-.8c-1.3-.5-.6-.8 2.7-1.2 6-.7 50.8.5 51.7 1.3zm-58-.7c-.3.3-1.2.4-1.9.1-.8-.3-.5-.6.6-.6 1.1-.1 1.7.2 1.3.5zm95 1c3.5.4 5 1 4.7 1.8-.6 1.6-14.7 1-21.9-1l-5-1.3h8.5c4.7 0 10.8.2 13.7.5zm-195.6 2.5c1.2.6 5.7 1 10.2 1 14.6-.2 37.9 1.1 36.5 2-1.3.8-28.2.3-32.6-.7-1.3-.3-2.1-.1-1.8.4.8 1.4-29.5 2.6-41.6 1.6l-10.3-.8 6.5-1.4c8.8-1.9 14.2-2.2 15.8-1 .7.6 1.7.7 2.5.1.6-.4 4.1-.8 7.7-.7 4.1.1 5.8-.2 4.5-.7-1.1-.4-1.4-.8-.7-.8.7-.1 2.2.4 3.3 1zm133.6-.5c-.3.3-1.2.4-1.9.1-.8-.3-.5-.6.6-.6 1.1-.1 1.7.2 1.3.5zM288 173c0 .5-.5 1-1.1 1-.5 0-.7-.5-.4-1 .3-.6.8-1 1.1-1 .2 0 .4.4.4 1zm34.8 0c3.2 0 5.2.4 5.2 1.1 0 .9-2.7 1-9.7.4-15.2-1.1-16.4-1.3-17.1-2-.4-.4 3.1-.5 7.8-.1 4.7.3 10.9.6 13.8.6zm11 1.7c-1 .2-2.6.2-3.5 0-1-.3-.2-.5 1.7-.5s2.7.2 1.8.5zm-136.7 2.6c-.1 1.2-1.5.9-1.9-.4-.3-.6.1-1 .8-.8.6.3 1.1.8 1.1 1.2zm212.2-.6c-.7.2-2.1.2-3 0-1-.3-.4-.5 1.2-.5 1.7 0 2.4.2 1.8.5zM444 179c0 .5-1.2 1-2.7.9-2.5 0-2.6-.1-.8-.9 2.7-1.2 3.5-1.2 3.5 0zm-68.3 1.6c-.3.3-1.2.4-1.9.1-.8-.3-.5-.6.6-.6 1.1-.1 1.7.2 1.3.5zm59.3.8c0 .9-3.9 1.3-5.1.5-1-.6-.4-.9 1.9-.9 1.7 0 3.2.2 3.2.4zm-203.5 2.8c-2.9 10.1-6 13.3-14.3 14.8-10.5 1.9-12.2 2.9-12.2 7 0 3.2-.6 4-5.7 7.8-8.1 5.9-14.3 11.6-14.3 13 0 .7-1.8 3-4.1 5.2-2.2 2.1-3.8 4.4-3.5 4.9.4.5-.2 1.4-1.1 2-1 .6-1.4 1.1-1 1.1.9 0-6.5 7-7.5 7-.3 0-1 1.2-1.6 2.7-.5 1.6-2.8 4.9-5.1 7.5-2.2 2.5-4.1 4.9-4.1 5.2 0 .8-7.9 12.9-8.9 13.6-1.3.9-5.6 8.2-7.4 12.6-.9 2.3-2.9 7-4.5 10.5-8.6 18.5-15.8 43.1-16.8 57.4-.2 3.3-.6 7.6-.8 9.5-.3 1.9-.5 6.3-.5 9.7-.1 6.6-1.3 8.2-2.6 3.5-1.1-3.9-1.4-28.3-.4-27.6.5.3 1-1.6 1.1-4.3.1-2.6.3-6.2.3-7.8.3-4.4-.7-5.3-2.1-2l-1.3 3-.1-3c-.1-8.4 4.7-26.6 10.5-40 9.8-22.6 16.3-34.5 23.4-42.6 1.7-1.8 3.1-3.7 3.1-4.2 0-.4.9-1.6 2-2.7s3.2-3.7 4.8-5.7c3.5-4.8 18.8-19.4 22.7-21.7 1.8-1.1.4.7-3.5 4.6-4.2 4.1-6.6 7.2-6.6 8.6 0 1.2.2 2.2.4 2.2.8 0 15.1-12.8 19.5-17.4 6.2-6.5 8.5-11.6 5.2-11.6-.8 0-1.5-.5-1.5-1.1 0-2.1 2.1-4.9 3.7-4.9.9 0 3.9-1.1 6.7-2.4 2.8-1.3 7.3-3.3 10-4.5 2.7-1.3 5-3 5.3-4.1.3-1.1 1.3-2.2 2.2-2.5 1-.3 2.8-1.7 4.1-3 1.3-1.4 3.4-2.5 4.7-2.5 2 0 2.3.4 1.8 2.2zm123-1.1c15.9 1.6 31.1 1.8 38.9.5 3.9-.7 9.8-1.1 12.9-.8l5.8.5-4.2 3.7c-5.1 4.6-5 7.2.4 8.1 2.1.3 4.7 1.5 6 2.6 2.2 2.1 13 5 22 6 4.3.5 4.7.3 4.7-1.7 0-2.9 1.6-1.7 2.3 1.7.3 1.6 2.2 5.2 4.2 8.1 3.9 6 4.1 6.4 2.1 5.6-.8-.3-2.7-3-4.3-6-2.6-4.9-5.3-7.1-5.3-4.2 0 .9-.3.9-1.2 0-2-2-3.1-1.4-2.4 1.4.6 2.4.5 2.6-1.6 2-5.6-1.7-9.5-2.6-12.1-2.6-1.6 0-4.3-.6-6-1.4-6.3-2.8-27.4-6.1-44.7-7.1-3.1-.2-7.4-.8-9.7-1.4-2.3-.6-10.1-1.6-17.5-2.1-7.3-.6-13.7-1.5-14.1-1.9-.5-.5-.4-2.5.3-4.5 1.5-4.7.8-6.9-.9-2.8-.8 1.8-1.7 3.2-2.1 3.2-.5 0-.6.9-.3 2 .4 1.6 0 2-1.7 2-1.9 0-2.1-.4-1.5-3.3 1.3-6.5 2.4-7.6 7.9-8 9.9-.7 12.2-.6 22.1.4zm-113.7 1.7c.2.7-.2 1-1.1.6-.8-.3-1.8-.1-2.1.4-.3.5.4 1.2 1.5 1.5 3 .8 1.8 3-2.2 4-1.9.5-3.8 1.3-4.4 1.9-.7.8-.4.9 1 .4 1.1-.4 3.5-1 5.3-1.3 2.3-.4 3.2-1.1 3.2-2.4 0-1.2.7-1.9 1.8-1.9 1.4 0 1.5.2.2 1-1.2.8-1 1 1 1 1.9 0 2.1.3 1.2 1.2-.7.7-1.8 1.3-2.5 1.3-2.9.2-10.1 2.9-8.5 3.2.9.3 2.6-.1 3.7-.6 1.1-.6 3-1.1 4.3-1 5 .1-2.5 2.1-9 2.3-5.7.3-6.1.2-4.7-1.4.8-.9 1.5-1.9 1.5-2.2 0-.3.9-2.7 2.1-5.2 1.8-4.1 2.4-4.7 4.6-4.4 1.5.2 2.8.9 3.1 1.6zm6.7-.8c.4.6 1.1.7 1.7.4 2-1.3 9.8-1 9.8.3 0 1.7.8 1.6 2.6-.2 1.8-1.7 2.4-1.8 4.4-.5 2.1 1.3.9 2-4.8 2.7-2.8.3-4.9.9-4.7 1.4.5.6-.7.3-7.5-1.9-.8-.3-2.5-.4-3.7-.3-2.2.2-3-.9-1.6-2.2 1-1 3.1-.8 3.8.3zm69.1.6c-.3.9-.6 1.8-.6 2 0 .2-.4.4-.9.4s-.7-.9-.4-2c.3-1.1 1-2 1.5-2 .6 0 .7.7.4 1.6zm3.4 1.4c-.6 1.2-1.4 1.9-1.7 1.7-.2-.3.1-1.5.7-2.7.6-1.2 1.4-1.9 1.7-1.7.2.3-.1 1.5-.7 2.7zm3.9 0c-.6 1.6-1.5 3-2 3-1.3 0-1.1-1.3.7-3.8 2.1-3 2.5-2.8 1.3.8zm-52.9-1c0 .5-.7 1-1.6 1-.8 0-1.2-.5-.9-1 .3-.6 1-1 1.6-1 .5 0 .9.4.9 1zm17.4.2c-.7 1.2-6.2 1-6.9-.2-.4-.7.8-1 3.4-.9 2.2.2 3.8.6 3.5 1.1zm15.2.3c.4.8.9 1.3 1.3 1 .4-.2.8.2.8 1s-.6 1.5-1.4 1.5c-.7 0-1.3-.7-1.3-1.5s-.7-1.5-1.5-1.5-1.5-.5-1.5-1c0-1.6 3-1.2 3.6.5zm-106.4 2c-.2 1.4-.6 2.5-.8 2.5-.2 0-.4-1.1-.4-2.5s.4-2.5.9-2.5c.4 0 .6 1.1.3 2.5zm244.4 1.2c-1 1-1.9-.5-1-1.8.6-1.1.8-1.1 1.2 0 .2.7.1 1.5-.2 1.8zm-175.3 1c-.7.2-1.9.2-2.5 0-.7-.3-.2-.5 1.2-.5s1.9.2 1.3.5zm29.8 1.5c2.1-.1 4.4.5 5.4 1.1 1.3 1-1.1 1.3-12.2 1.6-12.6.3-15.8.3-21 .1-1-.1-4.9.2-8.7.6-10.4 1.1-7.5-1.1 3.5-2.6 7.5-1 9.6-1 11.6.1 2.1 1.2 2.6 1.1 3.4-.3.5-1 1.5-1.5 2.2-1.3.6.3 2.6.1 4.2-.4 1.7-.4 4.1-.4 5.5.1 1.4.6 4.1 1 6.1 1zm138.9-.7c0 .8-.4 1.5-.9 1.5-1.3 0-2.2-1.6-1.4-2.4 1.1-1.1 2.3-.6 2.3.9zm-173.3.1c-.3.3-1.2.4-1.9.1-.8-.3-.5-.6.6-.6 1.1-.1 1.7.2 1.3.5zm-6.7 1.1c-1.4.3-2.9.9-3.4 1.4-.6.5-2.1.9-3.5.8-2.4 0-2.3-.2.9-1.4 1.9-.7 4.6-1.3 6-1.3l2.5.1-2.5.4zm60.4 1.4c.6.5-.4.5-2.4-.1-1.8-.5-3.5-1.2-3.9-1.6-.9-1 5.3.6 6.3 1.7zm6.6-1.1c0 .5-.4 1-1 1-.5 0-1-.5-1-1 0-.6.5-1 1-1 .6 0 1 .4 1 1zm-33.2 10.2c-.2.9 1.2 1.3 4.2 1.4 6.3.1 7.2.3 6.5 1.4-.3.5.3 1 1.4 1 1.6 0 2.1.6 2.1 2.5 0 2.7.3 2.8 3.8 1.9 1.9-.6 2.2-1.1 1.7-3.3-.4-1.4-1.2-3-1.8-3.4-1.1-.8 12.3.1 17.4 1.2.7.1-.5 7.8-1.3 8.6-.2.3-6.4.6-13.7.7l-13.3.3-2.8-3.2c-4-4.5-8.1-6.3-14-6.3-2.7 0-5-.5-5-1 0-.6.8-1 1.8-1.1 3.1 0 10.7-1.1 11.1-1.5.9-.9 2.1-.3 1.9.8zm-24 1.4c1.2.4 2.2 1.1 2.2 1.6 0 .6-1.1.7-2.6.4-1.6-.4-2.3-.3-1.9.3.3.6.1 2-.5 3.1-.9 1.8-.8 2 1.5 2 1.4 0 2.5-.5 2.5-1 0-1.6 5.3-1.2 7.9.7 2.3 1.6 2.3 1.7.5 2.4-1 .4-4.5.8-7.7.8-5.2.1-6.1-.2-8.6-2.9-1.8-2-4.1-3.3-6.7-3.7-4-.6-4 1 .1 2 1.6.4 1.4.5-.7.6-1.4 0-2.8.7-3 1.3-.5 1.3-18 2-26.6 1-5.3-.6-3.8-1.8 2.8-2.3 2.5-.2 4.8-.8 5.1-1.3.4-.4 3.6-.9 7.3-1 3.6 0 6.6-.4 6.6-.8 0-.8 8.8-2.7 14.5-3.1 2.2-.2 4.2-.4 4.5-.5.3-.1 1.5.1 2.8.4zm93.2 2c6.9.9 15.4 2.2 19 2.9 3.6.7 10.8 1.6 16 2 11.9.8 14.3 1.2 13.4 2.7-.5.8-4.9.9-15.8.2-16.5-.9-18.4-.9-45.9-.3l-18.7.4v-3.2c0-6.2.4-6.4 10.4-6.3 5 .1 14.7.8 21.6 1.6zm-72 5.9c0 1.7-.2 1.8-2.4.9-2.3-.9-2-2.4.4-2.4 1.1 0 2 .7 2 1.5zm-74 2.2c0 .4-2.6 3.3-5.7 6.3-3.2 3.1-7.6 7.6-9.7 10-2.2 2.5-4.1 4-4.3 3.3-.2-.6 1.4-3 3.6-5.2 2.3-2.3 4.1-4.7 4.1-5.4 0-1.5 6.7-8.2 9-9 2.2-.8 3-.8 3 0zm10.5.3c.3.6-.1 1.3-.9 1.6-.9.3-1.3 1-1 1.5.3.5 1.8.2 3.4-.6 2.7-1.4 3-1.3 5.9 1.4 4.2 4 4.3 8.2.1 9.8-3.5 1.3-4.2.6-4.3-4.1-.1-3.3-.1-3.3-5-3.3-3.1.1-5.2-.4-5.9-1.4-.8-1.1-.9-1-.4.4.4 1.3.1 1.7-1.2 1.5-1-.2-1.6.3-1.4 1 .1.8-.2 1.1-.7.8-1.1-.7-2 1.4-1.3 3.1.6 1.8 3.1 1.6 3.8-.2.8-1.9 3.3-1.9 5.8 0 1.9 1.4 1.4 3.5-.8 3.5-2 0-5 5-3.8 6.2.7.7 1.5.3 2.4-1.1 1-1.6 2.3-2.1 5.3-2.1 3.6.1 4.3.5 6.8 4.5 1.6 2.5 2.6 4.9 2.2 5.5-.3.5-.4 1-.1 1 .2 0 1.1.3 2 .6 1.2.5 1.6 0 1.6-2 0-1.4.5-2.6 1-2.6.6 0 1-.7 1-1.5 0-2.3 3.8-3.7 8.7-3.2 5.5.5 7.5 2.4 7.5 7.1 0 2 .5 3.9 1 4.2 1.3.9 3-1.8 1.8-3-.4-.4-.6-1.5-.3-2.3.8-2-2.6-7.8-5.6-9.6-1.4-.8-4.5-1.8-6.9-2.2-3.7-.6-4.7-.4-6.7 1.5-1.2 1.2-2.5 1.8-2.8 1.3-.7-1.2.2-2.4 3.7-5.1 1.6-1.2 2.4-2.2 1.7-2.2-.6 0-1.1-.9-1.1-2.1 0-1.4.5-1.9 1.5-1.6.8.4 1.7.2 2-.3.4-.6-.3-1-1.4-1-1.2 0-2.1-.7-2.1-1.5s.5-1.5 1-1.5c.6 0 1 .4 1 1 0 .5.9 1 2 1s2-.5 2-1c0-1.2 3.7-1.4 4.2-.3.2.5 2.5 2.3 5.2 4.2 4.7 3.3 4.9 3.3 6.2 1.6 1-1.4 1.1-2.1.3-2.6-2.6-1.5 0-3.9 4.3-4 2.4 0 6.7-.3 9.6-.5 3.2-.3 5.2-.1 5.2.6 0 .5.7 1 1.5 1s1.5-.5 1.5-1c0-.6 1.1-1 2.5-1 2 0 2.9.8 4 3.2l1.3 3.3.7-2.8c.9-3.3 3.3-4 10.3-2.9 2.9.5 7.2.6 9.5.2 2.3-.3 6-.6 8.2-.5l4 .2v5.9c0 3.2-.4 6.5-.9 7.2-.6.9-.5 1.6.3 2.1.7.5 1.3 3.9 1.4 9.2.2 6.1 0 7.7-.6 5.8-1.1-2.9-6.1-5.3-11.7-5.5-4.3-.2-13.6 3.2-15.1 5.4-.8 1.4-.9 1.1-.4-1.2.5-2.6.4-2.8-.9-1.7-1.3 1.1-2 .9-4.4-.7-1.5-1.2-4.8-2.2-7.2-2.5-4-.3-4.6-.7-5.4-3.6-.5-1.7-.6-3.4-.2-3.8.3-.3 3.1-.8 6.1-1.1 6.4-.5 8.9 1 9.9 5.9.7 3.6 3.6 4 3.6.5 0-5.7-8.6-10.4-15.5-8.5-1.9.5-3.7 1.4-4 1.9-.9 1.5-4.3 1.2-5.2-.5-.6-1-2.6-1.5-6.3-1.6-6.4-.1-11 1.4-11 3.6 0 1.2.4 1.1 2-.5 2.4-2.4 7.3-2.6 12.4-.5 4.3 1.8 6.3 5.7 4.7 9.2-1.3 2.7-.3 3 3.8.9 2.5-1.3 3.2-1.3 7.3.7 2.6 1.2 4.9 2.9 5.2 3.7.3.8.8 2 1.1 2.6.8 1.7-6.8 5.4-8.7 4.3-1.9-1-7.5-.4-9.3 1.1-1 .8-1.8.4-3.5-1.9-2.7-3.9-9.1-5.9-12.9-4-2.5 1.2-2.4 1.3 2.8 1.9 5.7.6 7.8 2.3 8.8 7.2l.5 2.8 2.9-2.4c5.4-4.6 6.9-4.4 11.7 1l4.3 4.9-.5-3.7c-.4-3.1 0-4.1 1.7-5.3 3.1-2.1 6.2-1.9 9.3.8 2.5 2.2 2.7 3 2.6 8.8 0 3.5-.2 7.5-.4 8.9-.2 1.9.2 2.5 1.7 2.6 7.7.4 9.8.7 8 1.1-3.7.9-4 2.3-.6 2.3 2.1 0 3.9.7 4.9 2.1 2.6 3.1 5.2 1.6 5.2-3 0-2-.4-4.1-1-4.7-.5-.5-.6-1.5-.2-2.2.6-.9 1.7-.7 4.5.7 6.1 3.1 6.6 3.2 6.4 1-.1-2.2-5.8-7.2-9.3-8.3-1.6-.5-2-1.2-1.6-3.1.7-3.7-2.3-3.2-3.7.5-1 3.1-3.3 3.8-6.1 2-1.3-.9-1.3-1.1 0-1.9.8-.5 1.9-.9 2.4-.9s1.2-.6 1.7-1.3c1.2-1.9 8.9-1.6 10.4.5.7.9 1.9 1.6 2.8 1.6.9 0 2.7 2.6 4.6 6.5 1.6 3.6 3.4 6.5 4 6.5 2 0 2.1-2 .1-5.5-1.1-1.9-2-4.4-2-5.5 0-1-.5-2.2-1-2.5-.7-.4-.6-1.3.1-2.7.6-1.1.8-2.9.6-4-.3-1 .4-4.5 1.4-7.6 1.1-3.1 2.2-6.5 2.4-7.5.2-1 .9-3.2 1.6-5 1.1-3 1.4-3.2 6.4-3.2 5.8 0 5.8.1 2.1 6.5-2.4 3.9-4.6 9.7-4.6 12 0 3.2-2.1 9-3 8.5-.6-.3-.7 0-.5.8.3.7-.1 3-1 5-1.8 4.5-1.9 4.7-.1 4.7.8 0 1.7-1.1 2-2.5.4-1.6 1.1-2.3 1.8-1.9.6.4.8.3.5-.3-.4-.6 0-2.7.8-4.7.8-1.9 1.5-4.8 1.5-6.3.1-1.5.9-4.6 2-6.8s1.9-4.4 2-4.8c0-.5.9-2.9 2-5.5l2-4.7h13.5l-4.8 8c-2.6 4.4-5.2 8-5.7 8-.4 0-1.2.4-1.7.9s-.3.6.5.2c1.7-1 1.6-.6-1.8 6-3.1 6.2-3.7 8.4-2 8.4.6 0 1-.5 1-1 0-.6 1-2.1 2.3-3.4 1.2-1.3 2.3-2.7 2.4-3.2 1-4.1 6.8-16.2 9.3-19.3 2.7-3.3 3.7-3.8 7.1-3.8 4.5 0 4.7.3 1.6 3.7-2.7 3-11.2 18.1-11 19.5.2 1-1.5 2.5-18.2 14.8-10 7.5-19.7 17.3-27.1 27.7l-3.9 5.5-.6-3.5c-.8-4.9-2.9-9.5-5-10.9-2.5-1.5-13.7-1.6-17.4-.1-1.6.6-3 1.2-3.1 1.3 0 .1-.8-.4-1.7-1.1-1.3-1.1-2.6-1.1-7.1-.1-7.2 1.6-8.6.9-8.6-4 0-2.2-.4-4.3-1-4.6-.5-.3-1-1.4-1-2.4 0-3.3-3-8-6.5-10.1-1.9-1.2-3.5-2.6-3.5-3.1s-1.7-.9-3.7-.9c-3.3-.1-3.6-.2-2.1-1.3 1.3-1.1 1.5-2.1.7-6.1-.5-2.7-.6-5.2-.3-5.7s-.4-.9-1.5-.9-2.3-.5-2.7-1.1c-1.1-1.8-8.8-.4-12.2 2.1l-3.2 2.4-2.5-2.4c-1.3-1.2-2.2-2.6-2-3.1.9-1.4-1.6-2.1-3-.9-1.1.9-1.5.9-1.5.1 0-.6-.9-1.1-1.9-1.1-2.1 0-3.1-1.9-3.1-5.6 0-1.8-.9-2.7-3.6-3.9-2-.8-3.8-1.5-4.1-1.5-.8 0 1 4.5 2.2 5.5.7.5 1.5 2.5 1.9 4.4.5 2.7.3 3.2-1 2.7-.8-.3-1.2-.2-.9.4 1.3 2.1-2.7 2.2-4.9.1-4.1-3.9-18.4-6.1-19.4-3.1-.2.5-.9 1-1.7 1-2.2 0-4 2.9-2.7 4.2.9.9 1.7.7 3.2-1 2.9-3.1 4.8-2.9 4.2.5-.4 2.3-.2 2.6.9 1.5 1.8-1.7 3.9-1.5 6.1.5 1.7 1.5 1.8 1.5 1.8-.5 0-1.7.6-2.2 2.5-2.2 2.8 0 5.8 4.1 3.5 4.8-2.2.8-5 4.1-5 5.9 0 1.6.3 1.5 1.8-.3 2.1-2.6 9.3-3.2 11.1-1 1 1.2.9 2.1-.4 4.6-1.3 2.6-1.4 3.4-.4 4.7 1.1 1.3 1 1.8-.6 2.9-2.7 2-5.1 1.7-9.9-1.1-3.7-2.2-4.8-2.4-7.2-1.4-1.7.6-5.2.8-8.4.5-6.2-.7-10.5 1.2-9.6 4.2.5 1.5-.4 1.7-7.4 1.6-7.8-.2-8-.1-8 2.2 0 2.7 2.8 4.4 3.9 2.5.9-1.4 5.5-1.7 8.8-.7 2.3.7 5 6.7 3.8 8.6-.3.5-3.4 1-6.9 1-3.4 0-6.7.5-7.4 1.2-.8.8-1.5.8-2.5 0-1.9-1.6-8.4.5-9 2.9-.6 2.3 1.1 2.6 1.9.4.4-.8 1.3-1.5 2.2-1.5 1.9 0 5.2 2.9 5.2 4.5 0 1.7 2.1 3.4 3.6 2.8.8-.3 1.4-1.9 1.4-3.9 0-2.8.4-3.4 2.1-3.4 1.2 0 2.3.8 2.6 2 .3 1.1 1.2 2 1.9 2 .8 0 1.4.4 1.4 1 0 2.3 2.1.8 2.6-1.9.8-3.7 1.8-4.1 7.4-2.7 3.8.9 4.6 1.6 5.5 4.3.9 3.2 2.4 4.4 2.6 2.3.1-.6.2-1.6.3-2.3.1-.6-.2-1.8-.7-2.5-1.5-1.9.5-3.4 4.7-3.5l3.7-.1-2.7-1.4c-1.7-.9-4.1-1.2-6.4-.8-2.9.4-4.4.1-6.4-1.5-1.4-1.1-2.6-2.8-2.6-3.7 0-.8-.9-2.6-2.1-3.8l-2.1-2.2 2.1-2.1c2.6-2.6 5-2.7 9-.4 3.6 2.1 5.7 5.7 5.3 8.9-.4 2.6.7 3.1 2.6 1.2 2-2 1.4-5.1-1.8-8.9-4-4.9-1.7-6.7 4.5-3.5 3.5 1.8 4.5 3.3 4.5 6.8 0 3.8 1.7 3.5 4.1-.7 3-5.1 6.3-4.7 9.3 1.2 2.4 4.7 2 6-2.4 9.1-4 2.8-5.2 5.2-2.5 5.2.8 0 1.5-.4 1.5-.8 0-1.1 5.6-4.3 8.6-4.8 1.4-.3 3.4-.2 4.5.1 2.5.8 7.1 8.8 6.7 11.7-.3 2.4-.4 2.4-7.9 1.2-2.5-.4-5 0-8 1.4-2.4 1.1-6.1 2.3-8.1 2.7-3.8.7-5.6 3.1-3.8 4.9.7.7 1.6.3 3-1.2 2.5-2.6 1.9-2.6 6.4-.7 2.5 1.1 3.8 2.3 4.2 4.3.4 1.5.9 3 1.1 3.4.6 1.1 3.3-.3 4.3-2.2.8-1.5.2-2.6-2.5-5.3-3.4-3.4-3.4-3.6-1.5-4.2 2.8-.9 5.9 0 8.9 2.5 2 1.7 2.4 3 2.5 7.8.1 5.2-.1 5.7-2.1 6-1.3.2-2.3 1-2.3 1.9 0 1.2 1 1.4 5.9.8 6.7-.8 9 .1 13.4 4.8 2.8 2.9 2.8 3 1 4.8-1.2 1.2-3.6 1.9-6.9 2-5.4.3-7.4-.4-7.4-2.5 0-1.7-4-6-7-7.6-1.5-.8-4.1-1-7.6-.5-3.3.4-5.4.3-5.4-.3 0-.5-1.9-1.7-4.2-2.7-5.4-2.1-10.5-1.2-14.8 2.6l-3.2 3-2.2-2c-1.1-1.1-4.2-2.5-6.9-3.2-3.8-1.1-4.6-1.7-4.1-3.1.3-1-.2-3.2-1-5-2-4-2-5.8 0-5.8 1.1 0 1.4.6.9 2.1-.7 2-.4 2.1 3.3 1.4 3.8-.6 4-.5 5.1 2.6.6 1.8 1.1 4 1.1 5 0 1.2.7 1.9 1.8 1.9 1.4 0 1.8-.9 1.9-4.2.1-2.2-.2-4.9-.8-6-1.3-2.5.5-2.4 4.2.3 3.4 2.4 3.7 4.4.9 5.2-1.1.3-2 1.3-2 2.2 0 1.3.6 1.5 3.3 1 5-1.1 6.7-2.4 6.7-4.9 0-2.4-2.8-5.5-6.9-7.6-3.1-1.6-21.9-2.1-24.2-.7-1.3.8-2.4.8-4.1 0-1.3-.6-4-1.4-6.1-1.7-3-.4-4.2 0-6.2 1.8-1.4 1.3-2.5 2.9-2.5 3.6 0 .9-1.2 1.1-4 .7-2.2-.3-4.3-.1-4.6.4-.3.5-1.4.9-2.5.9-1.3 0-1.9.7-1.9 2.2.1 2.1.2 2.1 1.1.5 2.9-5 15.9 2.5 15.9 9.3 0 2.5 2.7 2.7 3.4.2.9-3.3-.3-7.7-2.8-9.7-3.2-2.6-1.6-4.9 3.6-5.4 4.2-.3 8.2 2.2 10.4 6.5 2 3.7 1.7 4.9-1.1 6.4-1.3.7-2.7 2.1-3.1 3.2-.3 1-1 1.8-1.5 1.8s-.9.6-.9 1.4c0 2.9-7.1 3.4-10.8.8-3.8-2.7-8.3-4-11.2-3.2-3.5.8-3.3 3.6.2 3.2 3.9-.5 8.1 2.4 10.8 7.4 2.5 4.5 4 4.9 4 .9 0-2.8 2.7-4 6.3-2.6 3.7 1.4 4.4 3.2 1.9 4.9-3.1 2-2.7 3.4.5 2.1 1.4-.5 3.3-.7 4.1-.4 1.3.5 1.2.8-.4 1.9-1 .7-3.5 1.8-5.4 2.5-1.9.6-4.6 2-6 3.1l-2.5 2 6.2-.6 6.2-.6.6 3.8c1.2 7.4 2.2 8.2 4.3 3.5 1.3-2.9.4-7.2-1.8-8.6-1.4-.8-.3-2.5 1.6-2.5.8 0 3.6.9 6.1 2.1 4.1 1.8 4.5 2.3 4.1 5-.5 3.1.2 3.5 3.2 1.9 1.9-1 1.8-1.2-.5-5.7-3-5.5-2.9-4.9-.8-5.7 1.9-.8 8.3 1.1 8.3 2.5 0 .5.7.9 1.5.9.9 0 2.5 1.6 3.7 3.5 1.1 2 2.5 3.4 3.1 3.2 1.3-.4 1.7-4.6.5-5.3-1.2-.8-1-2.4.4-2.4 1.8 0 5.8 4.2 5.8 6.1 0 2.7-1.1 4.9-2.5 4.9-.7 0-1.8.6-2.5 1.4-1.6 2.1-5.3 2.4-6.7.6-2.2-2.9-15.4-.5-17.7 3.2-1.5 2.4.1 3.4 2.3 1.4 1-.9 3.4-1.9 5.2-2.2 2.9-.5 3.9-.1 6.7 2.9 2.4 2.5 3.4 4.5 3.6 7.1.1 3.1-.2 3.6-2.1 3.6-1.2 0-2.5.5-2.9 1.1-.3.6-1.5.9-2.5.6-1-.3-2.3.1-3 .9-1.9 2.3-2.9 1.6-2.3-1.5.8-3.7-1.9-8.9-5.4-10.3-1.5-.6-3.7-1.5-5-2.1-1.7-.8-2.8-.8-4.2.1-2.6 1.6-2.4 1.7-4-2.3-2-5-5.1-6.8-10.5-5.9-2.5.3-5.4 1.4-6.5 2.4-1.5 1.3-3.3 1.7-6.1 1.5-4.5-.4-5.6.8-3.9 4.1 1.1 1.9 1 2.7-.4 4.8-2.3 3.5-2 4.2 1.4 4 2.6-.2 3 .1 3 2.3 0 1.3-.4 2.1-1 1.8-.6-.3-.7.1-.4.9.3.9 1 1.3 1.5 1 2-1.2.7 3.6-1.3 5.1l-2.3 1.7 2.4-.7c1.6-.5 2.1-.4 1.7.4-.4.6-.2 1.1.3 1.1 1.3 0 1.4 6 .1 8-1.4 2.3-2.3.4-1-2.1 1-1.8 1-2.1-.2-1.7-1 .4-1.8-.7-2.7-3.8-.7-2.4-1.7-4.4-2.1-4.4-.5 0-1.1-2.6-1.5-5.8-.3-3.1-.8-6.7-1.1-8-.8-3.9-2-2.4-1.9 2.5 0 2.7-.3 7-.7 9.6-.4 2.7-.3 6 .3 7.4.6 1.6.6 3 .1 3.5s-.4 3.2.4 6.6c1.2 5.3 1.2 7.3-.2 5.9-.4-.3-1-4.3-1.6-8.9-.5-4.6-1.4-11-2-14.3-1.8-9.9-2.1-15.6-.9-16.8.8-.8 1.1.5 1.1 4.7 0 3.5.4 5.5 1 5.1.5-.3.9-4.8.9-9.9 0-5.2.4-10.2.9-11.3.6-1 1.5-4.7 2.2-8.3.6-3.6 1.5-6.7 1.9-7 .7-.6.7-1.4-.4-4.8-1.5-4.6-3.4-1.3-3.5 6.3 0 2.2-.7 5.1-1.6 6.5-1.4 2.4-1.4 2.2-.8-2.5 1.7-13.1 12.4-43.6 17.9-51 1.2-1.7 3.7-5.9 5.5-9.5 6.5-12.4 12.5-19.8 18.7-23.2 1.8-1 3.5-1.8 3.8-1.8 1.2 0 5.5 5.7 5.5 7.2 0 3.2 3.3 1.7 4.4-2 .5-1.5.1-3-1.4-4.9-2.1-2.6-3.2-3.1-7.7-3.6-1.3-.1-2.3-.4-2.3-.6 0-.2 4.2-4.5 9.4-9.5s11.3-11.3 13.6-14c2.3-2.8 6-6.3 8.1-7.8 2.2-1.6 4.5-4 5.1-5.3.9-1.9 1.9-2.5 4.4-2.5 1.8 0 3.6.5 3.9 1zm177.5 1.1c27.2 1.2 34.2 1.8 35.7 3.1 1.5 1.2 6.9 12.9 6.6 14-.2.4 1.3 2.4 3.2 4.5 2 2.1 6.4 7.8 9.8 12.6 3.4 4.8 7.2 10.2 8.5 11.9 4.4 6.2 2 4.9-5.7-3.1-4.4-4.4-8.2-8.9-8.6-9.8-.8-2.4-17.9-14.7-20.7-15.1-1.6-.2-2.9.6-4.2 2.6-2.3 3.5-6.9 6.2-10.5 6.2-3.1 0-6.2-2-11.1-7.1l-3.5-3.7-3 2.5c-4.1 3.4-13.6 9.6-14 9.1-.2-.2.9-2.3 2.6-4.7 1.6-2.4 2.9-5.3 2.9-6.3 0-1.6-.5-1.9-2.9-1.3-1.6.3-3.1.2-3.4-.2-.3-.5-5.9-.8-12.4-.7-6.5.1-12.6-.3-13.5-.7-1-.6-3.6-.5-6.4.1-4 .9-5.2.8-8.8-.9-3-1.4-5.3-1.8-8.7-1.4-6 .7-8.4-1.4-7.4-6.6.4-2 1.1-4 1.5-4.5.5-.5 9.3-1 19.5-1.2 10.3-.1 19-.5 19.3-.9.4-.4 3.6-.4 7.2 0s16.2 1.1 28 1.6zm43.1 2.1c1.1 2.1 1.1 2.2-.4.9-1-.7-1.7-1.7-1.7-2.2 0-1.5.9-1 2.1 1.3zm4.3 4.4c.9 2.4.2 2.6-1.2.4-.7-1.1-.8-2-.3-2s1.2.7 1.5 1.6zm10 4c.3.9.6 3.3.6 5.4 0 3-.3 3.8-1.7 3.6-1.7-.3-5.1-5-5.2-7.3-.1-.7.6-1 1.4-.7.8.4 1.7-.1 2.1-1 .8-2 2-2 2.8 0zM336.3 232c-.1.8-1.5 5.3-3.2 10-1.7 4.7-3.1 9.4-3.1 10.4 0 1.3-.3 1.7-1 1-.8-.8-1.8-6.2-3.4-19.1-.5-3.6.5-4.2 6.9-4 2.9.2 4 .6 3.8 1.7zm48.6 1.6c.1.1-.9 1.9-2.4 3.8-1.5 2-2.5 4.2-2.2 5 .4.9-.6 2.2-2.6 3.4-1.8 1.1-5.2 3.5-7.6 5.3-3.5 2.6-4.1 2.9-3.2 1.1.6-1.1 1.5-2.3 2-2.7.5-.3 1.2-1.8 1.5-3.3.4-1.5 2.2-4.7 4.1-7.1 1.9-2.4 3.5-5 3.5-5.7 0-1 .9-1.2 3.3-.7 1.7.3 3.4.7 3.6.9zm81.9 5c3.8 7.6 2.5 7.7-1.8.1-3.1-5.4-3.5-6.7-2.2-6.7.4 0 2.2 3 4 6.6zM191 235.4c0 .2-.7.9-1.5 1.6-1.3 1.1-1.4 1-.9-.4.5-1.4 2.4-2.3 2.4-1.2zm239.4 4.3c-.6.9-3.7 3.2-7 5-5.2 3-6.6 3.3-11.4 3-3-.2-6.3-.8-7.2-1.2-1.2-.5-2-.2-2.5 1.1-.3.9-1.5 2.6-2.6 3.7-1 1-2.5 3.3-3.2 5.1-1.6 3.9-6 9.3-16.1 19.9-4.1 4.3-7.4 8.5-7.4 9.3 0 .8-.9 1.4-2 1.4s-2 .4-2 1c0 .5-1.4 1.7-3.2 2.6-4.1 2.1-11.1 9.1-10.6 10.6.7 1.9 2.5 2 4.3.2 1.4-1.4 2.2-1.5 5.3-.6 2 .7 6.4 1.6 9.6 2.2 7.1 1.2 9.1 2.6 2.4 1.6-2.9-.4-4.9-.3-5.3.4-.3.5-2.4 1-4.5 1s-4.2.4-4.5 1c-.9 1.5-2.5 1.2-2.5-.5 0-1.3-.6-1.2-3.6.4-2.3 1.2-4.7 1.8-6.3 1.5-2.9-.6-3.3-.3-13.3 10.2-4.2 4.5-6.5 8.3-8.3 13.9-.6 1.9-.8 1.9-2.9-.8-2.6-3.2-3.6-3.4-3.6-.7 0 1.1 1.6 3.7 3.5 5.9 3.9 4.3 4.3 5.3 1.8 4.4-1.6-.6-1.6-.5-.4 1 .7.9 1.7 1.4 2.2 1.1.5-.3 1.4-.2 2 .2.8.4.7.9-.2 1.5-1.1.7-1 .9.4.9 1 0 2.5.7 3.4 1.5 1.4 1.4 1.3 1.5-.9 1-2.7-.7-5.8 1.5-5.8 4 0 2.1-1.9 2.8-3.6 1.4-1.2-1-1.2-1.4-.2-2 1-.7 1.1-1.2.1-2.9-.7-1.1-1.3-2.7-1.3-3.5 0-.8-.7-1.5-1.5-1.5s-1.5.7-1.5 1.5-.7 1.5-1.6 1.5c-1 0-1.4.6-1 1.5.8 2.1-1.1 1.9-2.3-.3-.9-1.5-1.4-1.2-4.7 2.7-2.1 2.4-4.6 5.9-5.5 7.6l-1.8 3.3 4 .6c4.3.7 8.9-.1 8.9-1.5 0-.5-1.5-.9-3.2-.9-1.8 0-4-.4-4.8-1-1.1-.7-.9-1.1 1.3-1.9 1.5-.6 2.7-1.4 2.7-1.9s1.4-.7 3-.4c2.8.4 3.1.7 2.9 4.1-.1 2 .2 4.4.6 5.4.7 1.8.1 1.8-13.2 1.3l-14-.6-3.7 3.4c-3.1 2.8-3.9 4.5-4.9 9.5-.6 3.3-1.5 6.1-1.8 6.1-1.5 0-1.6-3-.4-9.6 2.2-11.6 3.5-15.7 6-19 1.3-1.7 2.7-4.3 3.1-5.8.4-1.6 1.2-2.5 1.9-2.2 1.4.5 4-4.6 3.8-7.6-.1-1.1.3-1.6.9-1.2.7.5.9 0 .6-1.4-.4-1.2-.2-2 .2-1.7.5.3 1.4-.8 2.1-2.4.7-1.6 1.7-2.7 2.1-2.5.4.3.5-.2.2-1-1-2.5 5.3-12.9 11.6-19.1 3.4-3.3 7-8 8.1-10.4 1.1-2.5 4.4-6.9 7.4-9.8 3.1-3 5.3-5.9 5-6.4-.4-.5 0-.6.7-.4.8.3 2.5-.6 3.8-2 1.5-1.6 1.9-2.5 1-2.5-.9 0-.5-.9 1-2.5 2.4-2.6 4.7-3.4 3.4-1.3-.8 1.2 5.1-2.6 7.4-4.9.7-.7 4.6-3.1 8.5-5.3 8.9-5.1 8.2-4.7 15.3-9.6 7.9-5.5 16.2-9.6 17.7-8.7 1.7 1 4.7 1.1 4.7.1 0-.4.6-.8 1.4-.8.7 0 1.9-.6 2.5-1.3.8-1.1.6-1.8-.9-3.2-2-1.8-2.8-5.5-1.2-5.5.5 0 2.1 1.3 3.7 3 3.5 3.7 8.4 6 12.5 6 3.8 0 11.6-5.2 12.4-8.3.5-2.1.6-2.1 2.3-.4 1.3 1.3 1.5 2.1.7 3.4zm-243.4-.4c0 .2-1.5 1.6-3.2 3.3l-3.3 2.9 2.9-3.3c2.8-3 3.6-3.7 3.6-2.9zm249.3.4c.3.5-.5 1.6-1.8 2.5-2.1 1.6-2.2 1.6-1.7-.8.4-2.3 2.5-3.3 3.5-1.7zm-123.4 4.8c.6.3 1.1 1.3 1.1 2.1s.6 1.4 1.3 1.5c.6 0-.1.7-1.8 1.4-1.6.8-2.4 1.4-1.7 1.5 2.1 0 1.3 2-1.3 3.2-1.3.6-2.2 1.4-2 1.9 1.2 1.8-1.7 1.8-3.7 0-1.2-1.2-2.7-2.1-3.4-2.1-.6 0-1.9-1.1-2.8-2.5-.9-1.4-1.2-2.5-.6-2.5.5 0 1-.6 1-1.3 0-3.2 10.2-5.6 13.9-3.2zm124.3 1.2c.7 2.5-.1 4.3-1.8 4.3-.8 0-1.4.3-1.4.8 0 1-9.5 5.2-13.3 5.9-3.6.5-6.9-1.8-4.6-3.3.8-.5.9-.3.4.6-.6.9-.1 1 1.6.6 6.8-1.9 10.7-4 13.4-7 3.4-3.9 5.1-4.4 5.7-1.9zm-8.4 1.2c-.7 1.1-1.6 1.7-2.1 1.4-.4-.3 0-1.1 1-1.9 2.4-1.8 2.5-1.7 1.1.5zm-248.8.5c0 .2-.7.7-1.6 1-.8.3-1.2.2-.9-.4.6-1 2.5-1.4 2.5-.6zm45 4.1c.7.8 1 2.5.6 4-.8 3.1-3.8 3.3-7.3.5-1.4-1.1-3.2-2-3.9-2-2 0-1.7-2.8.4-3.3 3.9-1 9-.6 10.2.8zm22.1-.5c1 .6 1.9 1.8 1.9 2.6 0 1.3-.2 1.3-2.2 0-1.2-.9-3.3-1.6-4.5-1.6-1.3 0-2.3-.5-2.3-1 0-1.3 4.6-1.3 7.1 0zm77.9 1.2c0 1.8-.2 2-.9.8-.6-.8-.7-1.8-.5-2.2.9-1.4 1.4-.9 1.4 1.4zm146.5-1.2c1.2-1 1.5-.7 2 1.7.3 1.5 1.5 4.7 2.6 7.1 1 2.3 1.9 4.9 1.9 5.6 0 .8.4 1.6.8 1.8 1 .4 9.3 21 8.7 21.6-.2.3-1.9-2.6-3.8-6.4-2.9-6.1-9.1-17.3-13.6-24.4-.8-1.4-1.4-3-1.3-3.7.1-.6-.2-1.4-.8-1.8-.5-.3-1-1.1-1-1.7 0-.7.6-.6 1.5.2 1.2 1 1.8 1 3 0zM177 254c0 .5-.5 1-1.1 1-.5 0-.7-.5-.4-1 .3-.6.8-1 1.1-1 .2 0 .4.4.4 1zm67.5 1.2c1.4.6 2.8 2.3 3.1 3.7.3 1.4.7 3.1.9 3.7.4 1.2-1.4 3.4-2.6 3.4-.4 0-1.1-1-1.4-2.3-.4-1.2-1.8-3.6-3.1-5.3-3.1-4.3-1.9-5.5 3.1-3.2zm239.9 4.9c1 1.7 1.4 2.9.8 2.6-.5-.4-2-2.4-3.2-4.4-1.2-2-1.6-3.2-.8-2.6.7.6 2.2 2.6 3.2 4.4zm-246.7-.9c1.3 1.2 2.3 2.7 2.3 3.5 0 .7.5 1.3 1.1 1.3.6 0 .9 1 .7 2.2-.2 1.4-.9 2.2-1.8 1.9-.8-.2-2.8-.4-4.5-.5-2.2-.1-3.3-.8-4.3-2.9-.7-1.5-1.7-2.7-2.3-2.7-.5 0-.9-.9-.9-2s.5-2 1-2c.6 0 1 .7 1 1.5 0 2.2 1.7 1.8 2.3-.5.7-2.6 2.5-2.5 5.4.2zm220.8 2.8c1.6 1.7 1.6 2 .3 1.5-.9-.4-1.9-1.3-2.2-2.1-.7-1.9-.2-1.8 1.9.6zM226 265.5c0 .8.4 1.5.9 1.5s1.1 1.8 1.5 3.9c.8 5.3 2.2 5.9 4.4 2.1 1.6-2.9 2-3.1 5.7-2.5 2.2.3 4.2 1 4.3 1.5.2.6 1 1 1.7 1 1.9 0 2.3 3 1 7-.9 2.6-2.3 4-5.6 5.7-4.3 2.1-10 3.3-7 1.4 1.7-1.1.6-1.7-4.6-2.6-4.1-.6-4.3-.9-4.3-4 0-5.2-1.7-8.5-4.8-9.6-2.9-1-4-3.9-1.5-3.9.7 0 1.3.4 1.3 1 0 1.9 1.7 1 2.8-1.5 1.3-2.7 4.2-3.4 4.2-1zm264.6 5.7c3.1 6.2 7.4 17 7.4 18.6 0 .9-4.2-4.3-5.5-6.8-.7-1.4-2-5.2-3-8.5-.9-3.3-2.1-7-2.6-8.3-1.8-4.7.2-1.9 3.7 5zm-232.8-3.7c3.8 2.9 5.3 4.8 5 6.3-.2 1.1-1.1 1.6-2.6 1.4-1.2-.2-3.8.2-5.7.8-3.3 1.1-3.7 1-6.6-1.9-3.3-3.3-3.5-6.2-.6-6.7 1.1-.1 2.2-.5 2.5-.9.9-.9 6.5-.2 8 1zM306 273c0 .5-.4 1-1 1-.5 0-1-.5-1-1 0-.6.5-1 1-1 .6 0 1 .4 1 1zm134 3c0 .5-.2 1-.4 1-.3 0-.8-.5-1.1-1-.3-.6-.1-1 .4-1 .6 0 1.1.4 1.1 1zm6.6 1.5c0 1.4-.7 2.5-1.4 2.5s-1.1-.3-.9-.8c.2-.4.7-1.5 1-2.5.9-2.5 1.5-2.1 1.3.8zM263 280.1c.4 1.5 1.3 2.4 2.5 2.4 1.4 0 2 .7 2 2.4 0 1.9-.8 2.7-3.5 3.7-3.9 1.4-3.9 1.5.8 1.9 1.8.1 4.1 1 5.1 1.9 1 .9 2.5 1.6 3.4 1.6 1.9 0 4.3 3.9 3 4.9-1.2 1-7.1 2.8-11.8 3.6-2.1.4-5.2 1.4-6.8 2.2-2.8 1.4-3.1 1.4-5.4-1.1-3.3-3.6-7.2-5.4-11-5.1-2.3.2-3.3-.2-3.6-1.6-.3-1-.2-2.1.1-2.4.3-.3.6-1.8.7-3.3 0-2.5.3-2.7 5.2-3 5.6-.3 6.1 0 11.7 7.1 3.2 4 4.7 4.2 2.6.2-1.2-2.2-1.1-2.7.6-4 1.8-1.4 1.7-1.4-1.1-1.5-1.8-.1-4.4-1.3-6.5-3.1l-3.5-2.9 3.1-2.8c1.6-1.5 3.9-3.2 4.9-3.8 2.9-1.6 6.8-.2 7.5 2.7zm122 5.4c0 .5-.5.3-1-.5s-1-2-1-2.5c0-.6.5-.3 1 .5s1 1.9 1 2.5zm32.5 1.5c-.1 2.7-.7 4.5-2 5.6-1.1.8-1.4 1.2-.6.8.8-.4 5.5-.7 10.5-.6 7.3.1 9.3.4 10.3 1.8.7.9 2.9 2 5 2.4 3.7.8 3.7.8-1.3.9-11.2.2-25.5 11.4-25.9 20.1-.3 4.6-1.9 13.1-2.6 13.5-1.2.8-4.8-1.7-5.5-3.8-.3-.9-1-1.5-1.5-1.2-.5.4-.9.2-.9-.4 0-.5.5-1.3 1-1.6.6-.3 1-2.8 1-5.6 0-4.8-.1-4.9-2.2-3.7-3.2 1.8-3.6 2.6-3.6 6.5 0 3.2-1.6 6.3-3.3 6.3-.4 0-1.5-1.8-2.5-4s-2.5-4-3.3-4c-1.2 0-1.2-.3-.3-1.2 2.2-2.2 1.4-4.8-1.3-4.8-1.9 0-2.5-.5-2.3-1.7.2-1-.2-1.8-.9-1.8s-1.8-.6-2.4-1.3c-1-1-.8-1.2 1-1.2 1.4 0 2.5-.7 2.8-2 .6-2.2 2.3-2.8 2.3-.8 0 .9.3.9 1.1.1.6-.6 1.7-.9 2.4-.7.6.3 1.8-.2 2.5-1.1.7-.8 1.9-1.5 2.6-1.5.8 0 1.4-.5 1.4-1.1 0-.7-1-.5-2.5.5-3.1 2.1-3.5 2-3.5-.4 0-1.1-.7-2-1.5-2-1.8 0-2-1.6-.2-2.3.6-.3-.6-.6-2.8-.6-5-.1-3.6-1.4 3.5-3.1 7.2-1.7 13.3-2.2 12.5-1-1 1.6.4 1.1 3.8-1.3 1.8-1.2 3.8-2.3 4.5-2.3 3.3-.2 3.7-.4 2.3-1.3-1.2-.8-1.2-1.1 0-2.5 2.1-2.3 2.5-2 2.4 2.4zm5.5-2.5c0 .8-.5 1.5-1.1 1.5-.5 0-.7.4-.4 1 .3.5.2 1-.3 1-1.1 0-2.3-3.6-1.4-4.4 1.1-1.2 3.2-.6 3.2.9zm24.5-.5c.3.5-.1 1-1 1s-1.3-.5-1-1c.3-.6.8-1 1-1 .2 0 .7.4 1 1zm-54.2 2c.3 1.1.1 2-.4 2s-.9-.9-.9-2 .2-2 .4-2 .6.9.9 2zm-12.1.2c-.9.9-1.5.9-2.4 0-.9-.9-.7-1.2 1.2-1.2s2.1.3 1.2 1.2zm51.3.8c.3.5-.1 1-1 1s-1.3-.5-1-1c.3-.6.8-1 1-1 .2 0 .7.4 1 1zm-127.4 7.2c6.2 4.9 9.7 12.7 5.5 12.8-1 0-4.5 6.5-4.7 8.6 0 .5-1.3 2-3 3.2l-3 2.4.7-4.4c.3-2.3.8-4.9 1-5.7.2-.7-.7-3.3-2.1-5.7-1.4-2.3-2.5-5-2.5-5.9 0-.9-1.1-2.7-2.5-4.1-3.2-3.2-2.5-4.4 2.5-4.4 2.8 0 5 .9 8.1 3.2zm-17.9-1c2.7.8 4 1.8 4.4 3.5.8 2.9.8 2.9-4.3 3.7-3.9.6-4.2.4-6.2-3-1.2-1.9-2.1-3.9-2.1-4.5 0-1.2 3.5-1.1 8.2.3zm174.6 1.5c.4.6 1.9 1.6 3.4 2.2 1.8.7 3.5 2.9 5.6 7.3 4.2 9.1 6.5 16.5 5.8 19.3-.3 1.3-.1 2.7.4 3 .8.5.8 1.1 0 2-.7.9-.8 1.5-.1 2 2.4 1.4-.6 10.5-3.4 10.5-.8 0-1.5.5-1.5 1.2 0 .6-.3.8-.6.5-.4-.3.1-2.3 1-4.2 1-2 1.5-4.4 1.1-5.3-.5-1.3-1-.6-2.1 2.6-.8 2.3-3 6.8-4.9 10-1.9 3.1-3.5 6.9-3.5 8.4s-.4 3-1 3.3c-.5.3-1 1.9-1 3.5s-.5 3.2-1.1 3.5c-1.3.9-1.5.6-2.3-3.1-.5-2.3-.1-3.9 1.8-6.6 1.3-2 2.2-3.8 2-4.1-.2-.2.5-2.5 1.7-5.2 2.8-6.3 6.9-21.2 6.8-25 0-1.7-.9-4.6-1.9-6.5-1.1-1.9-2.4-4.7-3.1-6.3-.6-1.5-1.7-2.7-2.4-2.7s-2.5-2-3.9-4.5c-1.5-2.5-3.1-4.5-3.6-4.5s-.7-.6-.5-1.3c.7-1.5 6.3-1.6 7.3 0zm-9.3 1.3c.3.5.1 1-.4 1-.6 0-1.1-.5-1.1-1 0-.6.2-1 .4-1 .3 0 .8.4 1.1 1zm-2.7 3.4c3.1 1.6 7 5.6 5.5 5.6-.6 0-1.6-.7-2.3-1.5-.7-.8-1.6-1.5-2.1-1.5-2.1 0-5.9-2.1-5.4-3 .8-1.3 1.1-1.3 4.3.4zm44.6 3.4c2.2 2.7 4.3 6.9 5.5 11 2.4 8.1 3.4 17.9 1.9 18.8-.7.4-.5 1 .5 1.6 1 .5 1.4 1.5 1 2.5-.4 1.1-.2 1.4.5.9 1-.6 1.3.2 2.6 8.6.3 1.5.7 3.2 1 3.6 1.9 3.1 2.2 25.6.5 37.2-1.3 8.7-1.6 13.3-.8 14.5 1 1.5-.7 14.2-2.9 22l-2.1 7 .5-8.5c.3-4.7.9-9.7 1.4-11.2.5-1.5.7-6.2.5-10.5-.3-4.3-.7-14.8-1-23.3-.3-9.9-1-17.5-2.1-21-.9-3-2-10.5-2.4-16.6-.5-6.1-1.3-12.9-1.9-15-1.5-5.4-1.4-12.4.2-12.5.6 0 .2-.4-1-.9-2.3-.9-3.2-4-1.3-4 .6 0 1-.5 1-1.1 0-.6-.8-.8-1.8-.5-1.4.5-2.1-.2-3-2.7-1.2-3.3-1.6-5.4-.8-4.6.2.2 2 2.3 4 4.7zm-248.2-.8c1 0 1.8.5 1.8 1.1 0 .7.7 1.7 1.6 2.3.8.7 2.4 3.1 3.4 5.4 2 4.5 1.6 5.4-2.9 5.7-1.4.1-4.8.6-7.5 1l-4.9.8.5-3.9c.3-2.1.1-5-.4-6.3-.5-1.3-.6-3.1-.3-4.1.7-2.2 4.7-4.1 6-2.9.5.5 1.7.9 2.7.9zm34.4 1.6c3 2 5.6 6.7 4.8 8.8-.4 1.1-1.4 1.3-3.3 1-2.1-.5-3.5.1-5.6 2-1.5 1.4-3.4 2.6-4.1 2.6-.8 0-1.4.4-1.4 1 0 .5.7 1 1.6 1 3.1 0 .6 2.5-3.2 3.2-4.6.8-7.4.2-7.4-1.6 0-.7-1.1-1.8-2.4-2.6-2.8-1.5-3.7-4.1-2.9-8.4.6-3.3 3.8-6.5 6.3-6.6.8 0 3.1 1.6 5 3.6 3.3 3.4 3.4 3.5 4.2 1.4.4-1.2.5-2.6.2-3.1-2.2-3.6 3.7-5.2 8.2-2.3zm163.3-.4c2 .7 3.8 1.5 4.1 1.8.3.3 1.8 1.4 3.3 2.4 2.3 1.4 2.8 2.2 2.2 4.3-.4 1.8-.1 2.9 1.2 4 1.3 1 1.5 1.6.6 1.9-.8.3-1.3 2.3-1.3 4.6 0 5.2-.7 4.6-1.4-1.1-.3-2.4-1.4-5.4-2.6-6.6-1.1-1.2-1.8-2.3-1.6-2.6.3-.2-3.3-.6-7.8-.7l-8.4-.3-3.1 3.9c-2.5 3.2-3.1 5-3.3 9.7-.2 5.4-.1 5.8 3.2 8.6 1.9 1.6 4.2 2.9 5.1 2.9.9 0 2.3.7 3 1.7 1.3 1.5 1.1 1.6-1.3.9-2.2-.5-2.8-.3-2.8.9 0 1-.5 1.3-1.2.9-.8-.5-.9-.2-.5.9.8 2.1 0 2.1-4.9.1-7.1-2.9-12.4-9.4-12.4-15.2 0-15.7 15.8-27.9 29.9-23zm-149.3 3.5c3.3 3.5 3.6 4.2 3.1 8.2-.3 3 0 4.9.9 5.8 1.5 1.5.9 4.2-1.4 6-.9.7-1.2 1.3-.8 1.3.4 0-.2 1.3-1.4 3-1.8 2.5-6.4 11.9-11.5 23.5-3.4 7.8-5.7 15.5-6.5 22.4-.7 5.1-1.5 8-2.7 8.8-2 1.5-5.7 1.7-4.8.3.3-.6-.1-1-.9-1-.9 0-1.6.6-1.6 1.2-.1.7-.8.1-1.6-1.5-.8-1.5-1.9-2.7-2.5-2.7-.6 0-.7-.5-.4-1 .9-1.5 2.3-1.2 4.2 1 1.3 1.4 1.9 1.6 2.5.7 1.5-2.4.7-6.6-1.9-9.7-2.5-3-2.5-3.3-1-4.5 2.1-1.5 2.1-3.5.3-8-.8-1.8-1.1-3.6-.8-3.8.4-.2.2-.3-.3-.1-.6.1-2-.5-3-1.3-1.7-1.2-1.8-1.5-.5-2.3 4.3-2.8 9.7 2 10.2 9l.3 4.5 1.8-4c1.2-2.7 1.7-5.2 1.3-7.6-.7-4.6 1.1-10 3.2-9.7 1 .2 2.1-1.4 3.4-5.5 1.2-3.3 2.5-5.7 3.4-5.7 1.7 0 1.8-3.7.3-7.7-1.1-3.1-5.5-7.3-7.6-7.3-2.4 0-1.3-2.8 1.3-3.3 4.2-.8 10 3.8 10.8 8.5.7 4.4 1.9 5.4 4 3.2 2.4-2.3 1.9-4.9-1.3-8.2-3-3-3.5-4.2-4.5-12-.8-5.4 1-5.6 6-.5zm217.3 19.2c2.4 10.1 3.8 23.6 2.3 21.1-.5-.8-1.5-4.9-2.1-9-1-6.3-3.8-18.6-6.6-29-.4-1.4.4-.2 1.8 2.6 1.3 2.8 3.4 9.2 4.6 14.3zm-53.5-7.8c.9 4.6.7 8.4-.5 11.6-.8 2.2-1.2 2.4-1.9 1.3-.7-1-.5-1.9.5-2.6 2-1.5 1.9-5.4 0-5.4-.8 0-1.5-.7-1.5-1.5s.6-1.2 1.5-.9c1.1.5 1.2 0 .5-2.5-.5-1.7-.5-3.1-.1-3.1.5 0 1.1 1.4 1.5 3.1zm-197.6 6.6c1.1 7 2.1 7.8 5.1 4.2 2.5-3.1 7.5-1.8 9.6 2.3.8 1.7 1.5 3.5 1.5 4 0 1.3-5.4 1-6.8-.4-.7-.7-2.6-1.3-4.2-1.4-3.5-.2-12-4.2-12-5.6 0-.6-1.4-2.7-3.2-4.6l-3.1-3.6 2.4-.7c3-.8 10.3 3.1 10.7 5.8zm202.9 3c-.2 1.6-.4.5-.4-2.2 0-2.8.2-4 .4-2.8.2 1.3.2 3.5 0 5zM279 323.5c.7.9 1 1.8.7 2.2-.8.7-3.7-1.5-3.7-2.8 0-1.4 1.6-1.1 3 .6zm-91.8 2.9c3.1 2.8 7.5 10.3 6.6 11.2-.2.1-2.8 1.2-5.8 2.3-6.8 2.6-10 2.7-10 .3 0-.9-.6-2.7-1.3-3.8-4.6-7.9-4.8-8.4-3.7-10.3.5-1.1 2-2.2 3.2-2.4 5.6-1.1 7.4-.6 11 2.7zm25.1-2.2c1.7 1.3 1.4 5.8-.4 5.8-.5 0-1.4 1.1-1.9 2.4-.7 1.8-1.9 2.7-4.7 3.2-2.1.3-4.8 1.2-6 2-3 1.9-3.6 1.8-2.3-.6.7-1.4.8-2.6 0-3.9-1.6-3-1.2-4.6 1.6-7.5 2.1-2.1 3.6-2.6 7.3-2.6 2.6 0 5.5.6 6.4 1.2zm15.9 4.7c3 2.7 3.1 5.1.4 5.1-.8 0-2-.7-2.7-1.6-.7-.9-2.3-2-3.6-2.5-1.3-.5-2.3-1.5-2.3-2.4 0-2.5 4.8-1.7 8.2 1.4zm260.5.8c-.3 1-.5.4-.5-1.2 0-1.7.2-2.4.5-1.8.2.7.2 2.1 0 3zm-356.1 5.1c-1.2 1.2-1.8-.8-1-3.5l.8-2.8.4 2.8c.2 1.6.1 3.1-.2 3.5zM451 331c0 .5-.5 1-1.1 1-.5 0-.7-.5-.4-1 .3-.6.8-1 1.1-1 .2 0 .4.4.4 1zm-194.6 4.7c-2.1 1.6-4.1 1.7-4.9.3-.3-.6 0-1 .8-1s1.8-.7 2.1-1.6c.5-1.4.9-1.4 2.2-.3 1.4 1.2 1.4 1.4-.2 2.6zM217 334c0 .5-.7 1-1.5 1s-1.5-.5-1.5-1c0-.6.7-1 1.5-1s1.5.4 1.5 1zm7.6 2c2.8 2.8 3.8 4.2 5.1 7.2 2.2 5 5.3 2.7 3.3-2.3-1.5-3.4-.7-4.8 1.5-2.9.8.7 1.5.9 1.5.4 0-.4.9.2 2 1.4 1.2 1.3 2 3.5 2 5.8 0 3.3.2 3.6 2.3 2.9 1.2-.4 2.9-.7 3.8-.8 2.1-.2 1.8-3.9-.3-5.5-2.4-1.8-2.3-4.2.1-3.5 1.2.3 2.4 2.3 3.5 5.5 2.2 7 2 8.3-1.6 10.7-2.9 1.8-3.4 1.9-4.4.6-.6-.8-1.6-1.5-2.2-1.5-.6 0-1.2-.4-1.4-1-.6-1.9-10.4-1.4-14.9.8-5.1 2.5-7.5 1.7-8.4-3.1-.9-4.5-6.6-8.7-11.9-8.7h-4l2.1-2.2c4.4-4.3 18.3-1 18.3 4.3 0 2.7 1.8 3.2 3 .9 1.2-2.2.3-4.7-2.4-7-1.9-1.5-2.1-4-.3-4 .7 0 2.2.9 3.3 2zm-92.9 3.7c-.3 1-.5.4-.5-1.2 0-1.7.2-2.4.5-1.8.2.7.2 2.1 0 3zM259 341c0 .5-.4 1-1 1-.5 0-1-.5-1-1 0-.6.5-1 1-1 .6 0 1 .4 1 1zm11 2c0 .5-.4 1-1 1-.5 0-1-.5-1-1 0-.6.5-1 1-1 .6 0 1 .4 1 1zm202.6 7c-1.4 1.4-2.6 4.4-3 7-.8 5.1-2.7 11-3.6 11-.4 0-.6-2-.6-4.4.1-5-.8-5.2-1.9-.4l-.9 3.3-.3-3.2c-.5-4 1.5-8.3 2.8-6.2.6 1 .9.8.9-1 0-1.3 1.4-4.6 3.1-7.3 2.9-4.4 3.3-4.7 4.5-3.1 1.1 1.5.9 2.2-1 4.3zm-215.2-1.5c-.4.8-.8 1.5-1 1.5-.2 0-.4-.7-.4-1.5s.4-1.5 1-1.5c.5 0 .7.7.4 1.5zm99.3.1c-.3.3-1.2.4-1.9.1-.8-.3-.5-.6.6-.6 1.1-.1 1.7.2 1.3.5zm5.8 1.4c.3.6-.1.7-.9.4-1.8-.7-2.1-1.4-.7-1.4.6 0 1.3.4 1.6 1zm-17.5 6.3c0 .9-8.5 4.7-10.7 4.7-.8 0-2.1-.7-2.9-1.5-1.4-1.3-1.3-1.5.3-1.7h3.6c1.4.2 1.7-.3 1.2-1.8-.4-1.1-.2-2 .4-2 .6 0 1.1-.7 1.1-1.5 0-1.2.7-1.1 3.5.7 1.9 1.3 3.5 2.7 3.5 3.1zm4.3-2.6c-.4 1-.9 1.1-1.9.2-1.8-1.5-1.8-1.5.5-1.5 1.1 0 1.7.5 1.4 1.3zm10-.5c.9.7 1.3 1.8.9 2.3-2.1 3-23.4 17.5-25.7 17.5-.6 0-4.4 1.1-8.5 2.4-13.3 4.2-39.1 7.9-40.4 5.7-1-1.6 1.6-8.2 4.1-10.5 2.5-2.4 2.7-2.4 19.9-2 9.6.3 17.4.1 17.4-.4 0-.4 2.6-1.6 5.8-2.7 7.9-2.6 13.9-5.7 19.2-9.8 5.2-4.1 5.1-4.1 7.3-2.5zm-229.6 6.5c-.3 1-.5.2-.5-1.7s.2-2.7.5-1.8c.2 1 .2 2.6 0 3.5zm108.2-2.7c1 .5.4 1.4-2.3 3.5-2 1.5-3.6 3.4-3.6 4.1 0 1.8.5 1.8 3.7-.3 3.9-2.6 13.6-2.7 15.8-.2 1.5 1.5 1.5 2.1.5 3.4-.7.8-1.7 1.5-2.2 1.5-.5 0-1.9.9-3 2-2.8 2.6-1.1 4.9 2.4 3.3 4.1-1.9 7.9-3.3 8.9-3.3 1.1 0 6.9 5.4 6.9 6.4 0 .4-1 1.1-2.2 1.5-1.7.7-3.2.4-5.6-1-3.5-2-10.7-2.6-11.7-.9-1.1 1.8-2.5 1-2.5-1.5 0-2.7-3.3-6.3-6.6-7.1-3-.8-9.5 1.1-13.7 4-2.7 1.9-3.7 2.1-4.1 1.1-.3-.8-2.8-1.7-6.3-2-5.7-.7-5.9-.8-7.6-4.9-.9-2.3-1.7-4.6-1.7-5.1 0-1.8 4.6-3.2 9.4-2.9 5.2.3 8 2.7 9 7.6.4 2 1.2 2.8 2.7 2.8 1.9 0 2.1-.4 1.6-3.8-.3-2-.8-4.6-1.2-5.8-.5-1.7-.1-2.2 2.7-3.1 3.3-1 8-.7 10.7.7zm-74.9 2.3c0 .7.7 2.5 1.5 4.1.9 1.6 1.3 3.6 1.1 4.3-.7 1.7-3.1 1.7-4.8 0-2.7-2.8-6.8-4.9-8.3-4.3-1.6.6-1.9-.3-.9-2.8.3-.9 1.2-1.6 1.9-1.6s1.8-.6 2.4-1.4c1-1.1 1.9-1.2 4.2-.4 1.6.5 2.9 1.5 2.9 2.1zm203.2 3.2c.2 1.1-.9 3.7-2.4 5.8-1.4 2.1-4.1 8.2-5.8 13.5-4 11.9-7.7 19.4-14 28.1-4.7 6.4-15.2 17-21.9 22.1-1.9 1.4-5 3.9-7 5.6-2 1.7-5.6 4.4-8.1 6.1-5.5 3.7-24.5 13.3-26.3 13.3-.7 0-4.1 1.1-7.5 2.5-3.4 1.4-6.8 2.5-7.5 2.5-.8 0-2.2-1.5-3.2-3.3-3.6-6.7-.1-23.3 4.7-21.8 2.6.8 9.4 0 18.4-2.3 13-3.3 27.4-12 41-24.9 12.5-11.9 22.7-24.7 19.7-24.7-.6 0-1.5 1-2 2.3-1.6 3.4-16.4 18.8-25.2 26.1-8.1 6.7-25.3 17.6-28 17.6-.9 0-5.4 1.2-10 2.5-4.7 1.4-9 2.5-9.6 2.5-1.7 0-4.7-8.1-4.1-11.2 1.2-5.9 4.8-12.8 6.7-12.8 1.1 0 1.9-.5 1.9-1 0-.6 2.4-1 5.3-1 6.1 0 20.4-3.8 28.5-7.5 8.1-3.8 20.9-12.6 26.4-18.2 2.6-2.6 7.1-6.8 10.1-9.3 5.5-4.5 10.1-9.8 6-6.9-2.7 2-12.8 10.7-17.7 15.4-13.5 12.8-32.1 22-49.7 24.4-7.5 1-9.9 0-9.9-4.2 0-6.1 2.3-12 6.1-15.7 3.6-3.5 4.4-3.8 12.1-4.4 19.8-1.7 42.4-7.5 48.9-12.7 1.9-1.5 4.7-3.3 6.2-4 1.5-.7 2.7-1.6 2.7-2.1 0-.4.6-.8 1.3-.8 1.1 0 5.1-2.9 8.7-6.3 1.3-1.2 1.7-1.1 3.2.7.9 1.2 1.8 3 2 4.1zm-103.2 0c1.1 1.4 1 1.9-.7 3.7-2.7 2.7-5.2 1.8-4.6-1.5.3-1.4 0-2.8-.6-3.1-.6-.4-1.1-1.4-1.1-2.2 0-1.3.3-1.3 2.8 0 1.6.8 3.5 2.2 4.2 3.1zm66.4-2c.5 1.5-.4 2.2-6.1 3.9-1.7.5-2.3.3-2.3-.8 0-.8-.3-2.1-.6-3-.5-1.3.2-1.6 3.9-1.6 3.1 0 4.7.5 5.1 1.5zm42.6-.5c0 .5-.7 1-1.6 1-.8 0-1.2-.5-.9-1 .3-.6 1-1 1.6-1 .5 0 .9.4.9 1zm-226.3.6c-.3.3-1.2.4-1.9.1-.8-.3-.5-.6.6-.6 1.1-.1 1.7.2 1.3.5zM130.4 384l.6 6.5-1.4-4c-.9-2.5-1.4-7.8-1.4-14l.1-10 .7 7.5c.4 4.1 1 10.4 1.4 14zm52.4-13.1c.2 1.1 0 2.1-.4 2.1-1.3 0-4.4-3.3-4.4-4.6 0-2.2 4.5.1 4.8 2.5zm186.7-2.9c.3.5-.1 1-1 1s-1.3-.5-1-1c.3-.6.8-1 1-1 .2 0 .7.4 1 1zM157 371.4c.1.6 1 2.2 2 3.5 1.7 1.9 2.3 2.1 3.5 1.1.8-.7 1.5-1.8 1.5-2.5 0-2.1 6.5-2.7 10.5-1.1 3.5 1.5 4.1 2.3 4.7 6 .4 2.5-4.7 3.2-5.7.8-.6-1.5-.8-1.4-1.6.6-.7 1.9-1.2 2.1-2.8 1.2-1.4-.7-2.2-.7-2.7.2-.4.6-.2 1.4.4 1.6 1.6.5 1.5 2.2 0 2.2-.7 0-2.6 1.1-4.2 2.3-3.5 2.8-2.8 5.2 1.3 4.2 3.6-.9 2.1.4-1.8 1.5-2.4.7-3.1.6-3.1-.5 0-.8-.5-1.7-1.1-2.1-.7-.4-.9 0-.5 1.3s0 2.5-1.1 3.4c-1.5 1.3-1.6 1.2-1.1-.9.5-1.8.3-2.2-1.1-1.7-1.5.4-2-.4-2.9-4.7-.6-2.9-1.3-8.4-1.6-12.1-.3-5.5-.1-6.7 1-6.3.8.3 1.4.1 1.4-.4 0-1.3 5 1.1 5 2.4zm213.2 1.6c1.8 1.1 2.6 2 1.8 2.1-.8 0-.1.7 1.6 1.4 1.7.8 4.5 2.8 6.4 4.5 2.5 2.3 3.5 2.8 4.1 1.8.6-.9.9-1 .9-.1 0 1.6-3.7 3.6-5.2 2.7-2.2-1.4-6.2-1.2-7.3.3-1 1.4-1.3 1.4-2.1.2-.4-.8-1-2.3-1.1-3.4-.4-2.3-3.4-4.9-4.4-3.8-.4.5-1 1.9-1.4 3.3-.7 2.3-.7 2.4 1 1 1.7-1.3 1.8-1.3 1.3.1-.3.9-.2 2.2.3 3 .7 1.1.9 1 .9-.6.1-1.7.2-1.7 1.1.4.6 1.6.6 2.8-.1 3.5-1.2 1.2-1.3 2.7-.2 2.5 2-.3 3.2.3 3.2 1.7 0 .9.9 1.8 1.9 2.1 1.7.4 1.8.9 1 3.1-.5 1.4-.8 3.5-.7 4.6.2 1.6-.3 2.2-2.3 2.4-3.3.4-5.9-3.9-4.1-6.8.7-1.1 1.2-2.2 1.2-2.4 0-.8-3.1-3.6-4-3.6-1.3 0-4.1 5.6-3.3 6.4.4.3.1.6-.6.6-2.2 0-4 6-2.8 9.4 1.7 5 4.3 6.6 10.8 6.6 3.2 0 6.1-.5 6.4-1 .4-.6-1.1-1-3.7-1-4.8 0-8.3-1.9-9.1-5-.6-2.4.9-3.6 2.7-2.1.7.6 3.3 1.5 5.7 2 10.4 2.3 13.9 3.3 13.9 4.2 0 .5-.4.9-.8.9-1.5 0-3.2 7.2-2.2 9.1 1.3 2.3-.1 3.2-3.5 2.3-1.5-.4-2.5-.2-2.5.5 0 .6.7 1.1 1.6 1.1.8 0 1.2.4.9 1-.4.6-1.6.4-3.1-.6-1.7-1.2-2.4-2.5-2.4-5 0-4.1-1.4-5.1-3.7-2.4-1.3 1.5-2.9 2-6.5 2-5.6 0-7.6-1.6-8.4-7.1-.4-2.1-1.1-3.9-1.6-3.9-.6 0 0-.9 1.3-2 2.2-1.8 1.7-2.6-1.4-2.1-.5.1.6-2.4 2.3-5.6 2.8-5.2 8.6-19.3 9.5-23.3.2-.8.6-2.7 1-4.3.6-3.2 1.4-3.3 5.7-.7zM234 376.7c1.7 1.4 3 3.6 3 4.8 0 2.1 1.7 4.5 3.2 4.5.4 0 2.3-1.4 4.3-3.1 3.5-3.1 3.7-3.2 7.7-1.8 4 1.3 4 1.3 3.5 5.7-.5 4.8-1.8 6.6-5.6 7.7-2 .6-2.3.4-1.8-.9.4-1 .3-1.5-.2-1.2-.5.3-1.6-.5-2.5-1.8-1.3-2-2.7-2.6-8.2-3.2-4.5-.4-7.3-.3-8.6.5-1 .6-3.5 1.1-5.5 1.1-2.1 0-5.1.7-6.8 1.6-2.5 1.3-3.6 1.3-6.7.3-2.5-.8-4.5-.9-6.5-.2-2.2.8-3.4.7-4.8-.3-1-.8-2.9-1.4-4.2-1.4-1.4 0-2.3-.6-2.3-1.5 0-1.1 1.1-1.5 4-1.5 2.2 0 4-.5 4-1 0-.6-.5-1-1-1-.6 0-.5-.6.2-1.4 1.5-1.6 5.2-.3 7.9 2.6 1.9 2.1 5.5 2.4 6.2.5.2-.6-.2-2.5-1-4-1.8-3.5-1.4-4.1 1.9-2.8 1.9.7 2.7 2 3.2 4.6.6 3 1.1 3.6 2.9 3.3 1.8-.2 2.2-.9 2.2-4.3 0-4.2.7-5.4 4-7.3 3-1.7 4.2-1.5 7.5 1.5zm-119 17.5c1.1 2.9 1.7 3.5 2.7 2.7.9-.8 1.4-.8 1.7.2.9 3 2.5 10.6 3.1 14.4.5 3.7.4 3.9-1 2.1-1.4-1.9-1.5-1.8-1.6 1.5l-.1 3.4-1.3-3.1c-1.6-3.7-7.5-32.1-7.4-35.5.1-1.3.7.5 1.3 4.1.7 3.6 1.9 8.2 2.6 10.2zm381.2-8.4c.9 3.4-.3 8.1-2.3 8.7-1 .4-1.9 1.3-1.9 2.1s-.2 1.4-.5 1.4c-.9 0-5-2.5-5.7-3.5-1.1-1.5-1-3.7.2-3 .5.3.7 0 .4-.8-.4-1 .6-1.6 3.6-2.1 3.5-.5 4-.9 3.5-2.6-.4-1.4-.2-2 .8-2 .8 0 1.7.8 1.9 1.8zm-310.8 2.9c1.4 1.5 2.1 3 1.6 3.3-.5.3-.5 1.1 0 2 .6.8 1 2.7 1 4.1 0 3.8.9 4.1 3.9 1.3 1.5-1.4 2.7-2 3-1.3.2.6-.2 1.5-.9 1.9-1 .6-.6 1.5 1.5 3.6 2.7 2.7 2.9 2.7 3.6.9.6-1.7.8-1.6.8.7l.1 2.8h-8c-8 0-8 0-7.4-2.4.4-1.7 0-3-1.4-4.4-1.1-1.1-1.8-2.3-1.5-2.6.3-.3-.1-2.2-.9-4.3-.9-2.1-1.3-4.4-1-5.2.2-.8 0-1.1-.6-.8-.5.4-1.5 0-2.2-.8-1.1-1.3-.7-1.5 2.3-1.5 2.6 0 4.3.7 6.1 2.7zM411 387c1.9.6 5.7 1.2 8.5 1.5 3.2.3 5.4 1 6.3 2.2.7 1 .9 1.9.5 2-.4 0-2 .4-3.5.7-1.9.4-2.8 1.3-2.8 2.6 0 2.5-1.6 3.4-2.4 1.4-.5-1.3-.9-1.4-2.1-.4-.8.7-1.2 1.6-.9 2.1.3.5-.9.9-2.6.9-1.7 0-2.9-.4-2.5-.9.3-.5.1-1.2-.4-1.6-.6-.3-.7-1.5-.1-2.9.6-1.6.5-2.7-.3-3.5-.9-.9-.8-1.4.3-2.1.9-.6 1-1 .3-1-.6 0-1.5.5-1.8 1-.4.7-1.2.7-2.5 0-1-.5-2.6-.7-3.4-.4-.9.4-1.6.1-1.6-.6 0-.9 1-1.1 3-.6 1.9.3 2.9.2 2.5-.4-.8-1.3 1.1-1.3 5.5 0zm-28 1c-1.9 1.3-3 1.3-3 0 0-.6 1-1 2.3-1 1.8 0 1.9.2.7 1zm93.7.6c-.3.3-1.2.4-1.9.1-.8-.3-.5-.6.6-.6 1.1-.1 1.7.2 1.3.5zm-201.9 3.5c-1.8 2.4-2.3 4.5-2.4 9.5-.1 5.1-.5 6.9-2.2 8.7-3.5 3.7-5.5 9.7-5.6 17-.1 5.1-.5 7.1-1.7 7.7-1.2.7-1.9.1-3.2-2.5-1.1-2.3-2.4-3.5-3.7-3.5-3 0-10-2.3-10-3.4 0-.4.7-.6 1.5-.2.8.3 1.5.1 1.5-.4 0-1.8 6.7-1 9.3 1 3.2 2.6 3.7 2.5 3.7-.4 0-1.6-1.2-3.1-4-5-5.9-3.9-9.3-4.3-11.9-1.5-1.1 1.2-2.1 2.7-2.1 3.2 0 2.1-3.4 3.5-6 2.5-3.9-1.5-10-1.1-12.1.8-1.1 1-1.9 1.2-1.9.5 0-.6-1.6-1.9-3.5-2.8-3.3-1.6-4.6-3.3-2.5-3.3 1.6 0 1.2-5.7-.5-7.4-1.4-1.4-1.4-1.8.1-4.1 2-3.1 3.6-3.1 8.1-.4 3.9 2.5 3.9 3.9-.3 5.2-3.7 1.2-5.4 2.6-5.4 4.3 0 1.8 3.1 1.8 5.6-.1 2.2-1.6 6.4-2 6.4-.5 0 .5 1 1 2.3 1 1.2 0 3 .7 4 1.5 2.6 1.9 5 .8 4.3-2-.5-1.9-.2-2.2 1.3-1.8 1 .3 2.2 0 2.5-.6.4-.6 2.4-1.1 4.4-1.1 2.8 0 3.3.3 2.2 1-1.2.8-1.1 1 .8 1 1.2 0 2.2.6 2.2 1.2 0 .9.3 1 .8.2.4-.6 1.4-1.4 2.2-1.8.8-.3.5-.4-.7-.2-1.3.2-2.3.1-2.3-.4 0-1.5 3.1-2 5.2-.9 1.6.8 2.3.8 2.9-.2 1.8-2.8.6-5.3-3.1-6.8-2.4-.9-2.4-1 1.8-2.8 3.7-1.6 4.2-2.1 3.7-4.3-.4-1.4-1.1-2.7-1.6-2.8-.5-.2-.9-1.4-.9-2.8 0-1.6-.4-2.2-1.4-1.8-.8.3-1.7 0-2.2-.7-.5-.9-.2-1.1.8-.6.9.3 1.9.3 2.2-.1.4-.3 2.6-.5 5-.3 2.4.1 4.7-.2 5.1-.8.3-.6 1.3-1.1 2.1-1.1 1.1 0 .9.7-.8 3.1zm161.4-1.1c2.8.8 4.4.8 6-.1 2.1-1.1 2.2-1.1.9.4-1.2 1.5-1 1.7 1.8 1.7 4.8 0 3.7 1.8-1.5 2.2-2.5.2-4.8.1-5-.1-.3-.3-1.6-.5-3.1-.6-1.7 0-2.8-.7-3.4-2.3-1-2.5-.8-2.6 4.3-1.2zm32 1.7c-.5 1-1.4 3.1-1.8 4.7-1 3.1-3.2 3.9-8.6 2.9-2-.4-2.8-1.2-2.8-2.5 0-1.4.5-1.8 1.5-1.4 1.3.5 1.3.2-.1-1.8-1.3-2.1-.6-4.5.9-2.9 1.3 1.3 9.7.8 10.2-.6.3-.8.8-1.1 1.1-.8.3.3.1 1.3-.4 2.4zm10.8 1.9c-.9 2.3-1.3 2.5-2 1.4-1.4-2.1-1.2-3 .5-3 .8 0 1.5-.8 1.6-1.8 0-.9.3-1.2.5-.6.3.6 0 2.4-.6 4zm-242-1.5c0 .5.6.9 1.3.9.8 0 2.1.8 3 1.8 1.6 1.7 1.4 1.8-2.1 1.4-2-.3-4.5-1.3-5.5-2.3-1-1.1-2.3-1.9-3-2-.7 0-.3-.4.8-.8 2.3-.9 5.5-.3 5.5 1zm237.4.5c.5 1.4.4 1.5-.9.4-1.7-1.4-1.9-2-.6-2 .5 0 1.2.7 1.5 1.6zm-247.7 3c4.7 3.6 3.3 6-4.1 6.6-3.2.3-6.1 1.1-7.1 2.1-3 3-5.5 3.9-9.6 3.2-3.4-.6-3.8-.9-2.9-2.5 1.1-2 .4-5-1.4-6.2-.7-.5-.7-.8.2-.8.6 0 1.2-.6 1.2-1.4 0-2.2 1.7-2.8 5.1-2.1 2.4.5 2.9 1.1 2.4 2.6s-.1 1.9 1.9 1.9c1.3 0 3.1.3 4 .6 1.3.5 1.6-.1 1.6-3 0-3.2.3-3.6 2.7-3.6 1.4 0 4.1 1.1 6 2.6zm173 0c.8 2-1.3 4.2-2.7 2.8-1.2-1.2-.3-4.4 1.1-4.4.5 0 1.2.7 1.6 1.6zm-255.5.4c.3 2.5.2 3-.6 3.2-.5.2-1-.7-1.1-2-.2-2.1 1.3-3.3 1.7-1.2zm4.1 2.2c.4 1.2.1 2.9-.6 3.7-.9 1.1-.9 1.5.1 1.8.6.3 1.2.9 1.2 1.4 0 1.7-1.8.9-3.3-1.5-1.3-2-1.4-2.9-.4-5 1.5-3.2 2.3-3.3 3-.4zm19.8-.6c1.1 1.3.9 1.4-1.4.9-1.6-.4-3.8-.1-5.6.8-4.1 2.1-5 .7-.9-1.5s6.2-2.2 7.9-.2zm222.9.5c0 .5-.7.9-1.5.9-1.5 0-2-1.2-.9-2.3.8-.8 2.4.1 2.4 1.4zm4-1.2c0 .5-.6 1.4-1.4 2-1.2 1-1.3.8-.9-.8.5-2.1 2.3-3 2.3-1.2zm35.9 1.7c.3 1.6.1 1.7-1.3.5-1.9-1.6-2.1-3.4-.3-2.9.6.3 1.4 1.3 1.6 2.4zm-46.5 1c1 1.4 1.6 3.9 1.4 5.7-.3 2.9-.6 3.2-3.3 2.9-4.1-.5-5.5-1.9-5.5-5.4 0-5.7 4.5-7.7 7.4-3.2zm67.1-.6c.4 1.2 2.5 2.6 5.6 3.7 5.3 1.9 5.7 2.4 3.4 4.3-1 .9-3.1 1-6.7.6-5.9-.8-8-2-7.1-4.3.8-2.2-1.4-3.2-5.6-2.6-4.9.8-3.2-.7 2.6-2.3 6.5-1.7 7.1-1.7 7.8.6zm-196.1.1c2.6 1.2 2.7 3.2.1 2.3-.9-.4-2.1.5-3.2 2.4-1 1.7-3.6 4.1-5.8 5.3-2.2 1.2-4.3 2.7-4.7 3.3-.4.6-1.4.4-2.6-.7-1-.9-2.6-1.7-3.5-1.7-.9 0-1.7-.7-1.7-1.6 0-.9-.7-2.2-1.6-2.8-2.5-1.9-.7-4.6 3.1-4.6 4.2 0 6.5.9 6.5 2.5 0 .7.7 1.8 1.5 2.5 2.1 1.8 4.5-.4 4.5-4 0-2.6.8-3.3 4.2-3.9.4 0 1.8.4 3.2 1zm235.7.6c1.3 1.5 1.2 1.5-.8.4-2.4-1.2-2.9-2.1-1.4-2.1.5 0 1.5.7 2.2 1.7zm-56.1-.3c0 .2-.7.6-1.5 1-.8.3-1.5.1-1.5-.4 0-.6.7-1 1.5-1s1.5.2 1.5.4zm-27.4 1.5c.5.5 2.4 1.1 4.3 1.3 2.7.2 3.8 1 5.2 3.7 1.4 2.6 1.6 3.8.7 4.8-.6.7-1.3 1.1-1.6.8-.3-.3-1-.1-1.7.5-2.1 1.8-11.9 1.8-17.6-.1-2.9-1-4.8-1.8-4.1-1.8 1.9-.1 1.4-1.9-.9-2.6-4.1-1.3-1.6-3.8 5.6-5.6 8.5-2.1 8.9-2.1 10.1-1zm25.1 4.5c-.5 1.6-6.1 1.6-9.4 0-3.8-1.7-4.2-3.1-1.2-4.2 2.3-.9 11 2.6 10.6 4.2zm-250.3.1c.3.9 0 1.5-.9 1.5-.8 0-1.5-.7-1.5-1.5s.4-1.5.9-1.5 1.1.7 1.5 1.5zM441 406c0 .5-.4 1-1 1-.5 0-1-.5-1-1 0-.6.5-1 1-1 .6 0 1 .4 1 1zm50 1.5c-1.4 1.7-3 2-3 .4 0-.5.5-.7 1-.4.6.3 1 .1 1-.4 0-.6.5-1.1 1.1-1.1.8 0 .8.5-.1 1.5zm4.7 2.7c.1 3 .1 3.1-.6.8-.7-2.1-.5-4 .2-4 .2 0 .3 1.5.4 3.2zm-348.2-1.3c.3.5.1 1.2-.5 1.6-.5.3-1-.1-1-.9 0-1.8.6-2.1 1.5-.7zm203.2 5.1c.2 6.5 2.4 10.9 5.6 11 1.5 0 1.8.7 1.6 4-.2 2.1 0 4.2.4 4.6 1.5 1.6.5 2.4-2.9 2.4h-3.6l.4 4.5c.3 3.9 0 4.5-1.9 5-1.3.3-2.3 1.2-2.3 2 0 1.4-3 2-8 1.7-.8 0-2.2.4-3.2.9s-1.8.8-1.8.5c0-.2-.3-1.1-.6-1.9-.8-2.1 4.5-6.8 6.5-5.8.8.5 2.2.5 3 .1.9-.5 2.4-1.1 3.4-1.4 2.2-.7 1.3-2.6-1.1-2.6-1.7 0-4.5-3.3-3.6-4.3.3-.2 2.3 0 4.6.6 3.5.9 4.3.8 5.4-.7 1.7-2.4.9-4.1-2.3-4.4-3.1-.2-4.2-1-2.6-2 .9-.6 1.2-4.7.4-8.5-.2-1.4-3.8-.7-5.6 1.3-3.8 4.2-3.4 1.7.7-4.1 6.1-8.7 6.2-8.9 6.8-8.9.3 0 .6 2.7.7 6zm89.3-5.6c0 1.1-1.9 1.5-2.5.6-.3-.5.1-1 .9-1 .9 0 1.6.2 1.6.4zm-47 8.7c2.1.8 6.4 1.3 10.7 1.1l7.3-.2v3.5c0 2.2-.6 3.8-1.7 4.4-1 .6-1.2 1.1-.5 1.1.6 0 1.2.7 1.2 1.5 0 .9.7 2.7 1.6 4 .9 1.4 1.4 3.1 1.1 4-.4.8-.2 1.7.3 2 .6.4 1 1.9 1 3.4 0 2.1-.6 3-2.2 3.5-3.6.9-9.8.7-9.8-.4 0-.6.5-1 1-1 .6 0 1-.5 1-1 0-.6-.9-1-2-1-1.6 0-2-.7-2-3.5 0-1.9-.4-3.5-1-3.5-.5 0-1 1.6-1 3.5 0 3.3-.2 3.5-3.2 3.5-4.4-.1-6.5-1.9-7.3-6.2-.6-3.1-.4-3.7 1.4-4.3 1.1-.3 1.8-1.2 1.5-1.9-.4-.9.9-1.5 4.2-1.9 2.5-.2 5-1 5.4-1.7.6-.9.9-.9 1.5 0 .4.6-.1 1.8-1.1 2.5-1.8 1.4-1.8 1.4.3 1.5 1.2 0 2.5.4 2.8 1 .3.5-.3 1-1.4 1-1.2 0-2.1.4-2.1.9s1.9.4 4.3-.2c2.4-.6 3.5-1.3 2.5-1.5-1.9-.4-2.5-3.2-.8-3.2.5 0 .9-1.2.8-2.6-.2-2.3-.5-2.5-3.3-1.8-3.9 1-16.1 1.1-17 .2-.8-.8-1.4-9.9-.7-11.2.3-.5 1.2 0 2.1 1.1.9 1.1 3.2 2.6 5.1 3.4zm45-2.6c.5 1.3 1.9 3.4 3 4.5 2.1 2.1 2.1 2.2.3 3.5-2.6 2.1-4.6 1.9-3.8-.4.7-2.4-2.2-5.1-3.1-2.7-.7 1.7-3.4 2.2-3.4.6 0-.6.4-1.8.9-2.8.5-.9 1.2-2.5 1.5-3.5.8-2.5 3.5-2.1 4.6.8zm-285.6 1c.7 2.9.3 4.1-2.3 5.5-1.6.8-1.8.5-1.7-2.8.1-5.3 2.9-7.2 4-2.7zm295.6-1c0 .8.5 1.5 1 1.5.6 0 .9-.5.8-1.1-.2-.7 1.5-1.3 4.1-1.6l4.5-.4-2.4 2.1c-3.1 2.7-11.3 2.5-11.8-.3-.2-1.2.3-1.7 1.7-1.7 1.2 0 2.1.6 2.1 1.5zm-261.5 1.1 2.5 1.6-2.5 2.6c-1.4 1.3-2.5 2.9-2.5 3.3 0 1.7-1.8.9-2.3-1.1-.3-1.1-1.1-2-1.7-2-.7 0-1 .8-.7 2 .6 2.3-.5 2.6-2.2.7-1.5-1.8 4.5-6.5 6.2-4.8.6.6 1.5 1.1 1.9 1.1 1.4 0 .8-2.2-.9-3.6-2.5-1.9-.7-1.7 2.2.2zm235.7 2.2c-.4 1.1-.1 1.4 1.1.9 2.2-.8 3.6 1.2 3.5 5.1-.1 3.2-.2 3.2-5 3.2-4.3 0-5-.3-5.8-2.6-1.5-3.8-1.2-5.5.8-6.1 1-.2 2.5-1.3 3.2-2.4 1.6-2.1 3.2-.7 2.2 1.9zm-211.5-2.2c-.3.3-1.2.4-1.9.1-.8-.3-.5-.6.6-.6 1.1-.1 1.7.2 1.3.5zm257.9.9c.5 1.1 1 1.3 1.9.5.9-.8 1.1-.4.7 1.5-.3 1.6-1 2.4-1.7 2.1-1-.3-1.3.7-1.3 3.7.1 4.7-1.9 11.7-3.3 11.7-.5 0-.9.9-.9 2 0 2.4-4.7 12-5.8 12-1.5-.1-4.2-2.8-5.1-5.3-1-2.5-3-3.5-4.4-2.1-.9.9 1.1 5.6 3.4 8 2.5 2.7 1.1 3.4-5 2.5-5.2-.7-6.9-3.1-2.2-3.1 2 0 3.1-.5 3.1-1.4 0-.9-1.9-1.5-6.1-1.9-4.9-.4-6.4-1-7.7-2.9-.9-1.2-1.6-2.7-1.4-3.2.2-.5 0-1.6-.3-2.4-.8-2.2-4.6 1.5-4.3 4.2.3 1.8-.2 2.1-3.2 1.8-4.9-.5-8.2-2.8-7.8-5.5.3-2 1-2.2 6.3-2.4 8.7-.4 12.5-1.2 12.5-2.7 0-.9-2.4-1.2-9.4-1.2-6.3.1-9.9-.3-10.7-1.1-1.9-1.9-.6-2.4 2.9-1.1 2.4.9 4.7.9 10.1 0 9-1.5 12.1-.4 12.1 4.3 0 4.4 2 5.8 8.5 5.7 6.2 0 7.5-.6 7.5-3.2 0-1 .7-2.5 1.5-3.4.8-.8 1.5-1.9 1.5-2.4s1.1-2.1 2.5-3.6c2-2.2 2.1-2.6.7-2.7-1.5-.1-1.5-.2.1-.6 1-.3 1.7-1.4 1.7-2.9s.4-2.3 1-1.9c.7.4.9-.2.4-1.9-.7-2.8 1.2-3.7 2.2-1.1zm-342.4 6.7c14.1 38.1 13.4 36.2 22.3 55.3 6.2 13.3 5.8 13.7-1.7 1.7-6.4-10.2-12.3-22.3-13.2-27-.3-1.9-1.9-6.2-3.5-9.5-1.6-3.4-3.6-9.6-4.6-13.7-.9-4.1-2.1-9-2.5-10.8-1.4-5.7.4-3.4 3.2 4zm358-3c-.7.7-1.2.8-1.2.2 0-1.4 1.2-2.6 1.9-1.9.2.3-.1 1.1-.7 1.7zm-29.1.7c-1 1-2.5 2.1-3.2 2.4-1 .4-.9.6.4.6.9.1 1.7.5 1.7 1 0 2-3 3.1-7.6 2.7-6.2-.5-6.5-.6-3.4-1.5 1.5-.4 2.6-1.5 2.8-2.8.3-1.7 1.4-2.4 4.5-3.1 6.4-1.5 6.9-1.4 4.8.7zm-263.5 3.5c-1.2 1.9-1.3 2.7-.4 3.2.8.5.5 1-.8 1.4-1 .4-2.2.6-2.6.4-.9-.5 1.7-5.5 3.4-6.5 2.1-1.4 2.1-1.1.4 1.5zm-40.4 2.5c-.2 1.7-.8 2.9-1.2 2.6-1.3-.8-1.8-5.4-.6-5.8 1.9-.7 2.3.1 1.8 3.2zm360.3 3.3c-.8 2.9-2 6-2.6 6.8-.9 1.2-1 1.1-.4-.5.3-1 1.4-4.5 2.3-7.7.9-3.2 1.8-5.4 2-4.9.2.5-.4 3.3-1.3 6.3zm-340-4.6c3.6 2.4 3.1 3.6-1.2 2.8-4.7-.8-4.8-.9-3.2-2.8 1.7-1.9 1.5-1.9 4.4 0zM154 427c0 .5-.2 1-.4 1-.3 0-.8-.5-1.1-1-.3-.6-.1-1 .4-1 .6 0 1.1.4 1.1 1zm179.6 1.5c-1.5 1.5-2.1 4.1-1.7 7.2.1.7-.4 1.3-1.2 1.3-.7 0-3.1 1.6-5.3 3.5-2.1 1.9-4.3 3.5-4.8 3.5-.6 0-.1.6.9 1.4 1.8 1.3 1.8 1.4-.3 2.5-2.6 1.4-3.5 1.4-2.7.1.3-.6.1-1-.6-1-.8 0-.8-.4.1-1.5 1.6-1.9.1-1.9-3.9.1-1.8.9-3.5 1.4-3.8 1.1-.2-.3.8-1.2 2.4-2 1.5-.8 3.7-2.4 4.7-3.6 1-1.1 2.3-1.8 2.9-1.4.5.3.7.2.4-.3-.3-.6 1.3-2.5 3.6-4.4 2.2-1.9 5.5-4.7 7.1-6.2 3.3-2.8 5-3 2.2-.3zm33.1 0c1 2.2.9 2.5-.7 2.5-2.2 0-3.5-1.6-2-2.5.6-.4.8-1.1.5-1.6-.4-.5-.3-.9.2-.9.4 0 1.3 1.1 2 2.5zm109.4.8c-1 .9-1.1.8-.5-.6.3-1 .9-1.5 1.2-1.2.3.3 0 1.1-.7 1.8zm-255.3 4.1c-1 1.1-2.1 3.1-2.5 4.4-.7 3-3.7 2.5-4.1-.7-.3-1.7-.9-2.2-2.2-1.8-2.4.6-3.4-1.8-1.4-3.3.8-.8 1.4-.8 1.4-.2 0 .5.9.8 2 .5 1.1-.3 2-1.1 2-1.8 0-.9.8-1 3.4-.2 3.3 1.1 3.3 1.1 1.4 3.1zm13.2-4c0 2-1.4 3.4-2.8 2.8-1.6-.5-1.6-.5 0 1.1 2.2 2.2 3.3 2.1 6.8-.4 1.6-1.2 3.5-1.9 4.4-1.6.8.3 1.8.2 2.1-.4.8-1.3 7.3-.1 10.5 2 5 3.2 5.8 4.6 4.5 7.2-3.5 6.7-2.6 16.2 2 22.9 2.1 3 3.1 3.7 4.3 3 1-.4 5.4-2 10-3.4 8.2-2.6 23.4-9.5 30.2-13.8l3.5-2.2-2.2 2.5c-1.3 1.4-2.3 3.1-2.3 3.7 0 .7-1.4 1.2-3.2 1.2-1.8 0-4.8 1.1-6.8 2.5-3.1 2.1-3.6 3.1-3.9 6.7-.2 5-.9 6.1-1.8 3-.7-2.7-3.9-3.6-10.1-2.9-3.6.4-5.1 1.2-7.2 3.7-2.5 3.1-2.9 3.2-6 2.2-4.1-1.5-10-1.6-10-.2 0 1.5-3.2 1.2-5.4-.5-4.5-3.4-15-.6-16.3 4.3-.9 3.6.4 3.7 3.2.3 1.5-1.7 3.4-3.1 4.3-3.1 2 0 8.2 2.2 8.2 3-.2 2.7-6.4 5-14.1 5.1-1.2 0-1.6 1.2-1.8 4.7-.1 2.5-.3 4.7-.5 4.9-.6.6-7.6-3-7.6-3.9 0-.4-.6-.8-1.4-.8-1.6 0-2.5-1.9-1.9-3.7.3-.7 2-1.5 3.9-1.9 2.5-.5 3.4-1.1 3.2-2.3-.6-3-8.2-.6-9.3 2.8-.4 1.2-1.5 2.1-2.7 2.1-1.4 0-1.8-.5-1.4-1.6.3-.9.6-2.4.6-3.3 0-2.1 3.9-4.1 8-4.1 1.7 0 3-.4 3-.9 0-1.9-5.9-5.3-8-4.6-1.6.5-2 .2-2-1.6 0-2.6 2.7-5.9 4.8-5.9.7 0 2.7.8 4.3 1.7 2.2 1.3 3.2 1.4 4.1.5.8-.8.6-1.6-1.3-3.1-3.5-3-9-2.7-12.9.5-2.8 2.4-3.1 3.1-2.5 6.4.6 3.3.3 4-2.1 5.9-1.9 1.5-2.2 2.1-1 2.1 1 0 1.6.9 1.6 2.5 0 2.5-.1 2.5-2.7 1-4.5-2.4-10.1-7.8-10.5-10-.3-1.8.2-2 5.1-1.6 3.7.2 5.6-.1 6.2-1 1.4-2.2 1.1-2.6-3.3-4.8-3.3-1.6-3.8-2.1-2-2.1 1.2 0 2.2-.4 2.2-.9 0-1-4.2-3.9-6.2-4.3-.7-.2-1.6-.7-1.9-1.2-1.5-1.9-8.5 2.7-9.1 6-.2 1.6.3 1.9 2.9 1.8 3.5-.2 4.7 1.4 3.5 4.6-.6 1.7-1.2 1.5-5.5-2.8-2.6-2.6-5.5-5.7-6.4-7-1-1.2-3.3-2.6-5.1-3.2-4.1-1.1-6.6 1-7.6 6.3-.4 2-2.2 6-4.2 8.9-1.9 2.9-4 6.8-4.6 8.5-.7 1.8-1.5 3.3-1.9 3.3-1.2 0-3-2.7-3.9-6.1l-.9-3.2 2.6 2.4c1.5 1.3 2.2 1.6 1.4.7-.7-.9-1.1-2.8-.9-4.1.1-1.3-.3-3.2-1.1-4.1-1-1.2-1-1.6-.1-1.6.8 0 1-.8.6-2.3-.4-1.2-1.4-4.6-2.2-7.6-.8-3-2-6.1-2.7-7-.9-1.1-.9-1.5.2-1.9 1.1-.4 1.1-.6 0-1.3-1-.6-1.1-.9-.1-.9 1.9 0 4.8 3.3 4.4 5.3-.2.9.3 1.7 1 1.7s2.4 1.3 3.8 3c2.5 3.1 4 3.8 4 2 0-2.2 6.6-10 8.9-10.6 1.4-.4 3.3-.1 4.4.6 5.7 3.5 11.9 2.6 10.3-1.5-.8-2.1 1-4.5 3.3-4.5.9 0 2.4.9 3.4 2 1.6 1.9 1.6 2.4.2 5.6-1.9 4.6-1.9 5.4 0 5.4.9 0 2-1.1 2.4-2.4 1.1-2.8 2.9-3.6 8.1-3.6 4.7 0 5.4.9 4.1 5.6-.5 1.9-.7 4.2-.4 5 .9 2.4 2.8 1 2.5-1.8-.2-1.8.6-3.5 2.5-5.4l2.8-2.8.3 2.7c.3 2.3.6 2.6 1.8 1.6.8-.6 1.4-1.8 1.4-2.5 0-.8.4-1.4.9-1.4 1.2 0 6.6 4.9 6.7 6.1.1.5.2 1.7.3 2.6.1 1.1.7.5 1.7-1.7 1.9-4.3 2.9-5 7.9-5 2.7 0 5.3.8 7.7 2.5 4.1 2.7 5.8 3.1 5.8 1.3 0-2-6.1-7.7-7.7-7.1-1.6.6-6.2-1.5-7.9-3.6-1.1-1.4-8.5-1.2-14.1.5-1.9.5-2.3.3-2.3-1.7 0-3.3.9-4.3 5.5-6.2 4.2-1.7 5.5-2 5.5-1.3zm222 1.6c0 .5-.4 1-.9 1s-1.1 1.2-1.3 2.7c-.4 3.3-1.9 3.5-3.3.4-.5-1.1-1.6-2.1-2.4-2.1-2.3 0 0-1.8 2.9-2.3 4.4-.8 5-.7 5 .3zm-303 2.6c0 .8-.4 1.2-1 .9-.5-.3-1-1-1-1.6 0-.5.5-.9 1-.9.6 0 1 .7 1 1.6zm29.4-.1c1.9 1.4 1.8 1.5-1.1 1.5-1.8 0-3.3-.6-3.7-1.5-.7-2 2.2-1.9 4.8 0zm187.6 0c1 1.2.9 1.5-.8 1.5-2.7 0-5.2-1-5.2-2.1 0-1.5 4.7-1 6 .6zM172.5 436c.9 1.4-1.4 5.2-2.8 4.7-.7-.2-1.1-1.4-1-2.6.2-1.3-.3-2.1-1.2-2.1-1.8 0-2-1.7-.2-2.3 1.3-.5 4.3.8 5.2 2.3zm301.1 3.6c-.8 2.1-1.5 3.4-1.5 2.9-.1-.6-1 .5-2.1 2.2-1.1 1.8-2.5 3.3-3 3.3-1.1 0-.6-1.4 1.5-4 .7-.8 1.6-2.8 1.9-4.5.4-1.6 1.2-3.6 1.8-4.3 2-2.4 2.8.4 1.4 4.4zm-113.1 1c-1.8 1.9-2.4 1.8-2-.4.2-.9.4-2.1.4-2.6.1-.5.8-.3 1.6.4 1.2 1 1.2 1.4 0 2.6zm15.5-.6c0 .5-.5 1-1.1 1-.5 0-.7-.5-.4-1 .3-.6.8-1 1.1-1 .2 0 .4.4.4 1zm8 1c.8 1.3 5.7 3 8.5 3 1.3 0 3.6 1.1 5.1 2.4 2.7 2.3 2.8 2.4 1.1 5-1.4 2.1-2.5 2.6-6.1 2.6-4.5 0-6.8-1.6-8-5.8-.4-1.2-1.2-2.2-1.9-2.2-.8 0-.8-.3.1-1.2 1.9-1.9 1.4-2.9-1.2-2.2-1.8.4-2.5.1-2.9-1.6-.5-1.9-.3-2.1 2.1-1.5 1.5.4 2.9 1 3.2 1.5zm-148.2-.2c1.5 1 .7 3.8-1.4 4.6-1.3.5-6.4-3.3-6.4-4.8 0-.9 6.3-.7 7.8.2zm134.2 3.1c0 1.7-1.8 2.1-2.4.6-.3-.9 0-1.5.9-1.5.8 0 1.5.4 1.5.9zm-40 .5c0 .3-.4.8-1 1.1-.5.3-1 .1-1-.4 0-.6.5-1.1 1-1.1.6 0 1 .2 1 .4zm51 1c0 .2-.7.7-1.6 1-.8.3-1.2.2-.9-.4.6-1 2.5-1.4 2.5-.6zm46.1 2c5.6.2 8.9 1.7 8.9 4.1 0 2.2 4 4.8 8.5 5.5 2.6.4 4.8.3 5.2-.2.3-.6 1.8-.8 3.4-.6 1.5.2 2.8.2 2.7-.1-.2-2.1.4-3 1.7-2.5 2.2.9 1.9 1.8-1.9 7.2-1.8 2.7-3.7 5.8-4 7-.4 1.2-1.8 2.5-3.2 2.8-1.3.3-2.1 1-1.8 1.5.3.5.1.9-.4.9-1.5 0-2.2 4.2-1 5.7.7.9.7 1.3-.1 1.3-.6 0-1.1-.5-1.1-1 0-.6-.4-1-.9-1-1.4 0-2 3.7-.8 4.9.8.8.6 1.1-.5 1.1-.9 0-1.9-.3-2.1-.8-.6-.9 6.2-15.6 7.4-16 .5-.2.9-1.2.9-2.3 0-1.6-.7-1.9-4-1.9-2.2 0-4-.4-4-.8s-1.4-1.3-3.1-1.9c-2.1-.8-3-1.8-2.7-3 .3-2.3-.9-4.3-2.7-4.3-.9 0-1.7 1.5-2.1 4-.7 4.5-2.4 5.4-2.4 1.2 0-1.5-.5-3.4-1-4.2-.9-1.3-1.2-1.3-2.3.1-.7.9-2.7 2-4.5 2.3-3.2.7-3.2.7-3.2-2.9 0-3.2-.3-3.6-2.2-3.3-1.7.2-2.4 1.1-2.6 3.3-.5 4-1.4 4.7-4.6 3.9-2.1-.5-2.6-1.2-2.6-3.8 0-4 1.5-5.6 5.5-5.7 1.6 0 3.9-.4 5-.9s3.1-.7 4.5-.4c1.4.3 5 .6 8.1.8zm-68.7.5c.3.5 1.6.7 2.8.3 1.4-.3 1.9-.1 1.4.6-.5.8.2 1 2.3.6 2.5-.5 3.5 0 6.5 2.9 3.4 3.5 3.5 3.6 2 6.6-.9 1.7-1.3 4-.9 5.1.8 2.6-1.8 3.7-5.2 2.1-2.1-1-2.3-1.4-1.3-2.6 1.6-2 1.4-2.1-4.2-2.9-3.3-.5-4.8-.4-4.8.4 0 .6.5.8 1.2.4.8-.5.9 0 .3 1.7-.4 1.3-.8 3.9-.8 5.7v3.2l-1.9-2.7c-1-1.6-2.1-4.4-2.4-6.3-.4-1.9-1.2-4.2-1.9-5-2.3-2.8-2.4-5.9-.3-8.5 1.9-2.5 6.1-3.4 7.2-1.6zm20.4 1.3c1.4 1.4 1.6 3.8.3 3.8-1.2 0-4.1-2.9-4.1-4.1 0-1.3 2.4-1.1 3.8.3zM340 452c0 .5-.5 1-1.1 1-.5 0-.7-.5-.4-1 .3-.6.8-1 1.1-1 .2 0 .4.4.4 1zm-183 4.4c0 .6-.7.2-1.5-.8-.8-1.1-1.5-2.5-1.5-3 0-.6.7-.2 1.5.8.8 1.1 1.5 2.5 1.5 3zm32.3 4.9c5.1 5.1 11 10.7 13.2 12.3 11.2 8.3 15.5 10.8 24 14.4 4.4 1.8 11.3 4.8 15.2 6.6 5.9 2.7 9 3.4 16.5 4 5.1.3 11.5 1.2 14.2 2 6.5 1.8 20.9 1.8 27.2-.1 8-2.4 20.1-13.2 28.1-25.2 3-4.6 6.1-8.3 6.8-8.3.7 0 3.1-3 5.4-6.6 3.5-5.5 4.4-6.4 5.6-5.4.8.7 1.5 1.7 1.5 2.3 0 .6.6 1.8 1.4 2.6 2.8 3.4 7.7 17.7 8.3 24.5.5 5.1.3 6.7-.5 6.2s-1.2.2-1.2 1.8c0 1.4.4 2.6.8 2.6 1.2 0 3.2 8.4 2.3 9.3-.5.5-1.1-.6-1.4-2.2-.5-2.3-1.2-3.1-2.7-3.1-1.6 0-2 .5-1.6 1.7.2 1 .7 3.4 1.1 5.3 1.3 7.1 4.7 16 5.8 15.3.7-.4.8 0 .3 1.2-.4 1 0 2.8 1 4.2 1.8 2.9 1.2 4.2-1.2 2.2-1.5-1.2-1.6-1.1-.9 1.1 1.3 4.4 3.6 8.1 4.5 7.5.5-.3 1.1-.1 1.5.5.3.5.2 1-.3 1s-1.3 1-1.6 2.3c-.6 1.8-.8 1.9-1.4.6-1.2-2.7-3.6-4.6-5.2-4.2-1.1.3-2-1.1-3.3-5.3-1-3.1-1.5-5.9-1.1-6.3.4-.3.9 0 1.1.6.3.7.9 1.3 1.4 1.3.6 0 .7-.5.4-1-.4-.6-.8-2.6-1-4.5-.2-1.9-1.2-5-2.4-6.8-2.2-3.5-2.9-8.3-1.1-7.2 1.3.8 1.2 0-.5-6l-1.5-5 .3 4.2c.1 2.3-.2 3.9-.7 3.6-.5-.4-.6 1.4-.2 4.1.9 5.5.1 5.9-2 .9-1-2.3-1.8-3.2-2.3-2.5-1 1.7-2.7-2-4-8.8l-1-5.5.6 6.5c1.2 13.7 2.5 20 4.3 20 .5 0 1.4 1.6 2 3.5 1.8 5.4 6.6 13.6 7.5 12.8.4-.5.5 0 .2.9-.4 1.2.5 3 2.9 5.4 1.9 2.1 3.2 3.9 3 4.2-1 1-5.6-.9-5.6-2.3 0-.8-.4-1.5-.8-1.5s-2.1-2-3.6-4.5c-3.6-5.5-5.4-5.9-2.6-.6 2.4 4.7 1.1 6.3-1.9 2.4-1.1-1.6-2.1-2.2-2.1-1.4 0 1.1-.3 1.1-1.5.1-.9-.8-1.5-.8-1.5-.2 0 1.5 3.4 7.2 4.3 7.2.4 0 .7.5.7 1.1 0 .6-.7.8-1.7.5-.9-.4-5.3-.9-9.7-1.2-4.8-.2-8.3-.9-8.8-1.7-.5-.9-1.1-.7-2.2.8-1 1.3-1.5 1.5-1.6.6 0-1.1-.3-1.1-1.4-.1-.8.6-2.8 1-4.3.9-1.5-.2-3.3 0-4 .4-.7.4-2.1.2-3.3-.5-2.1-1.3-2.7-2.8-1.1-2.8.5 0 .7-.9.4-2-.3-1.1 0-2 .6-2s1.1.4 1.1 1c0 .5 1.1 1 2.4 1 1.3 0 3.1 1 4 2.2 1.2 1.6 1.8 1.9 2.2 1 .3-.6 1.3-1.2 2.1-1.2.9 0 1.3-.6.9-1.5-.7-1.8-.2-1.9 2.4-.3 1 .7 2.2.9 2.6.5.8-.8-1.4-3.7-2.9-3.7-.5 0-1.5-.7-2.2-1.6-1.5-2.1-6.5-2.7-6.5-.8 0 .8-.5 1.4-1.1 1.4-.5 0-.8-.4-.5-.9.8-1.2-2-2.2-4.1-1.4-1.1.4-1.4.3-.9-.5.4-.7.3-1.2-.2-1.2-1.6 0-2.2 1.3-1.1 2.6.6.8.6 1.4 0 1.8-1.3.9-4.1-.4-4.1-1.9 0-.7-1.2-1.3-2.6-1.3-2.7 0-8.5-5.2-8.3-7.5 0-.9.2-.8.6 0 .2.7.9 1.3 1.4 1.3.4 0 .6-.7.3-1.5-1.1-2.8-8.4-1.6-8.4 1.4-.1.9-.7.3-1.6-1.4l-1.4-3 .4 3.8c.7 5.4 5.1 14.7 7.1 14.7.9 0 1.4.4 1.1.9-.4.5.6 1.4 2.1 2 2.1.7.7.8-5.7.4-4.7-.3-8.7-.8-9-1-.2-.2.1-1.3.8-2.3 1.5-2.4-.4-7.4-2.5-6.6-1 .4-1.1.1-.3-1.3 1.3-2.6.1-11.1-1.6-11.1-.8 0-1.9-.9-2.6-2-3-4.8-3.8-.2-1.2 7.4 1.2 3.4 1.3 5.1.6 5.8-.8.8-1.3.7-1.8-.5-.9-2.5-2.6-2.1-1.9.4.6 1.9.4 2.1-1.6 1.6-2.3-.6-2.3-.5-.5.9 1.6 1.1 1.7 1.7.8 2.6-.9.9-1.5.9-2.6-.2-2.3-2.5-5.6-9.3-5.6-11.8 0-1.3-.7-3.1-1.6-4-1.6-1.5-1.6-1.1-1 5.3l.7 7-2-2.5c-1.3-1.6-2.1-4-2.1-6.8 0-4-.1-4.2-3.1-4.2s-3.1.1-2.7 4c.2 2.3-.1 4-.7 4-.5 0-.1.7.9 1.5 1.9 1.4 1.9 1.5-.7 1.5-3.4 0-3.5 1.3-.2 2.8 3.2 1.5 3.8 1.5 2.9 0-.4-.6-.3-.9.2-.7.5.3 2.1 1.1 3.6 1.8 1.5.8 2.5 1.8 2.2 2.3-.3.4.1 1 .8 1.2 4.1 1.3 5 1.7 4.5 2.2-1 1-8.6-1.7-9.6-3.4-.6-.9-1.1-1.2-1.1-.6 0 .7-1.3.9-3.7.5-3-.5-3.8-1.1-3.9-2.8-.2-3.7-2.6-8.4-4-7.9-2.1.8-3.5-1.9-4.1-7.7-.4-4.1-.9-5.4-1.9-5-.8.3-1.4 0-1.4-.6s-.7-.8-1.6-.4c-1.3.5-1.5 0-1-3.1.3-2 .2-3.6-.3-3.6-1.7 0-2 1.5-2.2 10.5-.2 7.3 0 8.9 1.4 9.7 2.1 1.1 2.2 2.8.1 2.8-1.1 0-1.4.6-.9 2.2.5 1.8.4 2-.4.8-.6-.8-1.1-1-1.1-.4 0 .8-1.1 1-3.3.4-4.1-.9-8.7-3.8-8.7-5.5 0-.7-.6-1.6-1.2-1.9-.7-.3 0-.4 1.7 0 2.8.5 2.9.4 1.4-1.3-2.4-2.7-3.9-8-3.9-13.6 0-4-.2-4.7-1.3-3.8-.8.6-1.7.8-2 .4-1.5-1.4-.6 3.9 1 6.4l1.7 2.6-2.8-.7-2.9-.7 1.7 2.5c1.5 2.4 1.5 2.6 0 2.6-1.1 0-1.4.5-1 1.6.3.9.6 2 .6 2.5s.6.9 1.4.9c.8 0 1.8.5 2.1 1.1 1 1.5-6.4 0-9.5-1.9-2.2-1.4-2.3-1.7-.7-2 1.6-.3 1.7-.6.4-2-2.6-3.1-4.1-9.6-4.3-19.5-.1-5.4-.3-10-.6-10.2-.5-.6-.8 1.9-1.1 10.7-.3 8.4-.7 9.7-2.8 7.2-1.5-1.8-1.4-12.9.2-17.1.7-1.8.6-3-.1-3.7-.8-.8-1.2-.4-1.6 1.2-.4 1.2-1 2.2-1.5 2.2s-.7-1.1-.3-2.5c.4-1.5.2-2.5-.5-2.5-.6 0-1.1 1.5-1.1 3.2 0 1.8-.3 4.9-.6 6.9-.4 2.5-.1 4 1 5.1 1.4 1.5 1.4 1.7-.1 2.2-3.1 1.2-4.8-2-4.7-8.7 0-6.3-1-8.4-3.3-6.5-1 .8-1.2.4-.8-1.8 1-7 1.4-10.6.9-10.1-1 1-3.1 13-2.6 14.9.3 1.1-.1 1.8-1.1 1.8-.9 0-1.7-1.3-2.1-3.5-.8-4 .4-14.2 1.4-12.5.4.6.7-.3.7-1.9 0-1.7.7-3.9 1.6-4.9 1.9-2.1 2.2-3.2.7-3.2-.5 0-1 .7-1 1.5s-.3 1.5-.8 1.5c-1.5 0-5.7 12.6-5.6 17.2 0 5-.5 5.8-2.6 3.3-2-2.4.9-18.5 3.3-18.5.5 0 .7-.6.4-1.4-.3-.8 0-1.7.7-1.9.8-.3 1.7-1.8 2.1-3.4.8-3.4 2.6-5.7 3.4-4.5.3.6 1.3.3 2.1-.6 1.3-1.4 1.2-1.5-.3-.9-1.6.6-1.7.2-1.1-3.1.7-3.9 2-6.2 3.6-6.2.5 0 5.1 4.2 10.1 9.3zm125.1-5.6c.3 1 .8 3.9 1.2 6.5.5 4.2.4 4.8-1.2 4.8-2.7 0-5.4-3-5.4-6.2 0-2.2.5-2.8 2.1-2.8s1.9-.4 1.4-2c-.3-1.1-.2-2 .4-2 .5 0 1.2.8 1.5 1.7zm10.3 2.3c.2 2.6 0 3-2.2 3-2.9 0-3.1-1.1-.9-4.6 1.9-2.9 2.6-2.5 3.1 1.6zm-125-.9c.1 1.2.1 2 0 1.8-.2-.2-.9-1.2-1.6-2.2-1.1-1.4-1.1-1.7.1-1.7.7 0 1.4 1 1.5 2.1zm135.9-.6c.7 1.8-1 4.7-6.2 10-2.2 2.2-4.8 5.6-5.9 7.5-1.1 1.9-2.5 4.3-3.1 5.3-1.2 2-8.1 8.7-8.9 8.7-1.1 0-.4-4.2 1-7 1.2-2.3 2.2-3 4.5-3 2.8 0 3-.2 3-4 0-2.7.4-4 1.4-4 2 0 4-2.6 2.6-3.5-.6-.3-.8-1.1-.4-1.6.3-.5.9-.7 1.3-.4.5.2 2.3-.2 4.1-1.1l3.1-1.6-2.3-2.5c-1.9-2-2-2.5-.8-3.3 2.3-1.5 6-1.2 6.6.5zm48.2.6c1.2.8 3.6.8 7.8.2 6.6-1 8.4-.8 8.4 1 0 2.1 4 3.8 10.6 4.4 3.5.3 6.4 1 6.4 1.4 0 .5-.8.9-1.9.9-1 0-2.4.7-3.1 1.5-1 1.2-1.5 1.2-3.5-.1-2.8-1.8-4-1.3-6.4 2.7-1.6 2.6-2 2.8-3.1 1.4-1.1-1.3-1.1-2 0-3.9 1.4-2.8.9-4.1-1.9-4.9-3-.7-5.3 2.6-5.9 8.3-.2 2.8-1 5-1.6 5-.6 0-2.1-1.6-3.4-3.5l-2.3-3.5 2.6-2.4c2.9-2.7 3.2-4.6.8-4.5-3.4.1-5.5 1.5-6.9 4.5-1.2 2.8-1.3 2.8-1.9.6-.4-1.2-1.2-2.2-1.7-2.2-.6 0-.5-.7.2-1.5 1-1.2 1-2.1.2-4-1.1-2.4-1-2.5 1.8-2.5 1.7 0 3.8.5 4.8 1.1zm95.6 9.1c-.9 1.8-2.6 4.4-3.7 5.8l-1.9 2.5.7-2.4c1-3.4 5.9-11.3 6.3-10.2.2.5-.4 2.5-1.4 4.3zm-40.7 1c4.4.1 5 2.2.9 3.2-1.3.3-2.7 1.9-3.6 4.1-1.4 3.7-2.4 4.3-3.4 2.2-.3-.6-.3-.2 0 1 .5 2 .1 2.3-2.2 2.3-2.2 0-2.5-.3-1.6-1.2 1.6-1.6 1.5-2.8-.2-2.8-.8 0-1.7.9-2.1 1.9-.7 2.2-3.2 3.5-4 2.1-.8-1.3 7.2-6.3 9-5.6.9.3 1.5 0 1.5-.9 0-.8.5-1.4 1.1-1.3 2.8.7 1.7-2.3-1.4-3.6-4-1.6-5.1-3-4.3-5.3.6-1.4 1.1-1.2 3.4 1 2 1.9 4 2.7 6.9 2.9zM296.6 470c.1 3.3-.3 6-.7 6-.5 0-.9-.3-1-.8 0-.4-.2-1.6-.4-2.7-.5-2.4.5-8.5 1.4-8.5.3 0 .6 2.7.7 6zm126.5-3.8c2.5 2.8 2.4 3.2-.7 5.3-1.4.9-3.5 3.7-4.6 6.1-2 4.7-3.3 4.9-4.9.7-1.3-3.5-.5-5.5 3.1-7.6 2-1.2 3-2.6 3-4.3 0-3 1.7-3.1 4.1-.2zm50.3.8c-1 1.6-1.9 2.8-2.1 2.6-.6-.6 2-5.6 2.9-5.6.5 0 .1 1.3-.8 3zm-166.4-.5c.7.8 2.2 1.5 3.4 1.6 1.3.1.7.5-1.8 1.3-2.4.8-4.2 2.1-4.7 3.4-1.1 2.9-3.5 2.8-4.3-.2-.8-3.2 0-5.1 2.7-6.4 3-1.4 3.3-1.4 4.7.3zm76.3 8.7 2.8 2.3-2 4c-1.1 2.3-3.1 4.7-4.5 5.4-4.8 2.6-6.5 9-6.7 24.4-.1 2.9.6 4.6 2.7 6.8 1.6 1.6 3.4 2.7 4 2.5.7-.3 2 .6 2.8 2 2.2 3.2 6.2 3.3 7 0 .3-1.4 1.4-2.7 2.4-2.9 1.3-.4 1.3-.5-.4-.6-1.3-.1-2.4-.9-2.7-2.1-.7-2.8 1.8-2.6 5.5.5 1.6 1.4 2.7 2.5 2.3 2.5-.3 0-.3.5 0 1.1.5.6 1.2.3 2.1-1 .8-1.1 2.4-2.1 3.7-2.3 1.7-.2 2.2-1 2.2-3.3 0-1.7-.5-3.6-1.2-4.2-.6-.7-1.3-1.8-1.6-2.5-.8-2.1-3.8 2.4-3.4 4.9.2 1.2 0 2-.5 1.7-.5-.3-.6-2.6-.2-5l.6-4.4h-3.1c-3.5 0-3.8-.6-1.4-3.2 1.9-2.1 3.3-2.3 3.3-.4 0 .7 1.2 2.2 2.8 3.2 1.5.9 4.1 3.2 5.8 5.1 1.7 1.8 3.4 3 3.7 2.6.4-.3.7.1.7.9 0 2.2 7 3 7.8 1 .3-.8-.2-1.9-1.1-2.4-2.6-1.4-2.1-3.1.6-1.7 3.7 2 5.8 4.6 4.4 5.6-5.8 4.3-26.7 13-28 11.6-.3-.2-2.6.3-5.2 1.1-2.5.9-5.2 1.3-5.8.9-.7-.4-4.5-3.9-8.5-7.8-5.5-5.1-8.2-8.7-10.3-13.3-3.3-7.4-3.7-9.4-4.3-22.2l-.5-9.5 1.9 4.4c1.1 2.4 2 6 2 8.2 0 7.5 4.4 11.8 7 6.8.9-1.6.8-2.4-.4-3.8-1.9-2.1-2.1-6.2-.3-5.9.8.2 1.1-1.1 1-4.2l-.2-4.5 1.6 2.7c1.9 3 5.2 4.3 6.8 2.7.7-.7.4-1.5-1-2.4-4-2.8-4.5-3.6-4.5-7 0-6.1.8-6.7 4.3-3.5 1.8 1.6 4.5 3.9 6 5.2zm102.2-3.6c-.8 2-1.5 3.8-1.5 3.9 0 .2-.6.5-1.4.8-1.1.4-.9-.6.7-3.8 2.6-5.3 4.3-6 2.2-.9zM369 473c0 2.7-.4 4-1.4 4-1.7 0-2.7-5.5-1.2-7 1.9-1.9 2.6-1 2.6 3zm100.2.2c-.7.7-1.2.8-1.2.2 0-1.4 1.2-2.6 1.9-1.9.2.3-.1 1.1-.7 1.7zm-176.4 2c.2 1.6-.1 2.8-.7 2.8-2.6 0-6.2 4.9-6.6 9-.2 2.4-.9 4.8-1.4 5.3-.6.6-1.1 2.4-1.1 3.9 0 3.3-.7 3.4-12.4 1.3-4.4-.8-8.3-1.2-8.6-1-1.7 1-16.8-2.7-20.2-5-2.1-1.4-4.2-2.5-4.8-2.5-.5 0-1-1.5-1-3.4 0-2.8.4-3.4 2.6-3.9 1.5-.3 4.1-.1 5.8.4 4.2 1.2 10.6 1.1 10.6-.1 0-.6-.7-1.3-1.5-1.6-2.3-.9-1.8-3.3 1-4.6 3.2-1.4 4.2-.4 2.5 2.6-1.2 2.4-1.1 4.2.7 11.5.8 3.3 3.6 5.8 3.2 3-.1-.8-.1-1.9 0-2.5.1-1.4 6.4-4.1 11.4-4.9 3.4-.5 3.7-.4 3.7 1.7.1 3.1 2.7 6.5 4 5.2.7-.7.4-1.9-1.2-3.9-2-2.5-2-3-.7-5.4 1-1.7 3.3-3.3 6.7-4.5 5-1.8 6-3.1 2.5-3.1-2.3 0-2.8-2.2-.6-2.8 3.9-1.1 5.8-.3 6.1 2.5zm115.5 1c.6 3.9-.3 4.7-3.1 3-1-.7-.9-1.5.4-4.1 1.9-3.8 1.9-3.8 2.7 1.1zm-96.3-.9c-.9.7-2.7 3-4 5.2l-2.5 4-.3-2.9c-.4-3.4 3.1-7.6 6.2-7.6 1.8.1 1.9.2.6 1.3zm-42 4.2c0 .8.1 1.8.3 2.2.1.3-1.4.7-3.3.8-1.9.1-4.3.6-5.2 1-2.4 1-2.3-1 .2-3.5 2.4-2.4 8-2.7 8-.5zm127.8 1.9c2.9 1 2.8 3.9-.3 5.6-1.4.7-2.5 1.9-2.5 2.7 0 .7-.7 1.3-1.5 1.3-1.8 0-1.9 1.2-.3 2.8.6.6.9 1.5.5 1.8-.3.3-1.7-.7-3.1-2.2-2-2.3-2.4-3.6-2-5.9.4-1.7 1.1-3.6 1.6-4.2.6-.7.8-1.9.5-2.7-.8-2 1.4-2.7 3.3-1.1.8.7 2.5 1.6 3.8 1.9zm-96.8.9c0 2.9 3.4 6.7 6 6.7 3 0 2.4 1.6-1.5 4-1.9 1.2-3.5 2.5-3.5 3 0 1-5 2.7-10.8 3.6-3.7.6-4.2.4-3.6-1 .3-.9.1-1.6-.5-1.6-2.1 0-1.1-1.9 1.7-3.4 2.8-1.4 10.8-3.1 13-2.7.6.1 1.2-.4 1.2-1.2 0-2.1-5.9-3.5-10.3-2.4-4.5 1.2-5.4.5-3.9-2.8.8-1.7 2-2.5 3.6-2.5 1.4 0 2.8-.5 3.1-1 .3-.6 1.7-1 3.1-1 1.8 0 2.4.5 2.4 2.3zm-140.4.1c.8.8 1.4 3 1.4 4.8l-.1 3.3-1.9-3.5c-2.9-5.2-2.6-7.7.6-4.6zm250.7.6c2.2 2.6 2.1 3.3-.4 5.6-2.6 2.3-3.7.9-3.1-4.1.5-4 1.1-4.3 3.5-1.5zm16.7-.3c-.1 1.8-1.8 3.5-2.4 2.4-.4-.6-.4-1.6-.1-2.1.7-1.2 2.5-1.3 2.5-.3zm32 2.3c0 .5-.9 1.4-2 2-2.3 1.2-2.6.6-.7-1.5 1.4-1.7 2.7-1.9 2.7-.5zm-28 1.5c0 .8-.4 1.5-1 1.5-.5 0-1 .5-1 1.2 0 2.1-5.1 7.8-7 7.8-2.1 0-5.1-4.7-4.9-7.7.1-1.6.2-1.6.6-.1.4 1.7 6.3 2.3 6.3.6 0-.5.8-.8 1.8-.6.9.2 1.8-.4 1.8-1.2.3-2.8.4-3 1.9-3 .8 0 1.5.7 1.5 1.5zm3 3c0 .8-.9 1.9-2 2.5-1.8 1-1.9.9-.8-1.5 1.2-2.7 2.8-3.3 2.8-1zm-274.8 7.8c1.1 2.2 1.7 4.1 1.5 4.3-.8.8-7.7-9.2-7.7-11.2 0-1.5 4.3 3.3 6.2 6.9zm224.6-1.7c3.7 3.1 4.2 4.8 1.1 3.9-1.6-.5-2.7 0-4.4 2.1l-2.2 2.8-1.2-2.3c-1-1.8-1-2.9.4-5.7.9-1.9 1.9-3.4 2.4-3.4.4 0 2.2 1.2 3.9 2.6zm20.8 3.9c-.1.5-1 1.1-1.8 1.3-1.7.3-3-3.1-2.1-5.5.5-1.3.9-1.1 2.4.8 1 1.3 1.7 2.8 1.5 3.4zm-232.5-.5c1.2 0 1.6.6 1.2 2-.9 3.3-3.1 2.1-4.7-2.5-.6-1.6-.5-1.8.5-.8.7.7 2.1 1.3 3 1.3zm279.2 3.2c-1 1.8-6.1 7-11.3 11.4-5.2 4.5-9.5 9-9.5 9.9 0 .9-1.6 2.6-3.6 3.8-2 1.2-4.7 3.2-6 4.4-4.4 4-12.1 9.4-12.7 8.9-.3-.3.6-1.5 2-2.6 3.4-2.6 7.6-9.8 8.6-14.6.7-3.5 1.3-4 10.8-8.8 5.5-2.8 12.9-7.5 16.4-10.4 3.6-2.8 6.6-5.2 6.8-5.2.2 0-.5 1.5-1.5 3.2zM445 501c-.1.3-1.7 1.7-3.7 3.2-3.6 2.8-7.3 3.7-7.3 1.8 0-.6.9-1 2.1-1 1.1 0 2.7-.7 3.5-1.5.9-.8 1.3-1.5.9-1.5-.3 0-.4-.4-.1-.8.5-.9 4.6-1.1 4.6-.2zm-20.4 1.4c.3.8-.3 2.4-1.3 3.5-1.7 1.8-2.3 1.9-4.6.8-1.6-.7-2.7-2-2.7-3.2 0-1.6.8-2.1 4-2.3 2.8-.2 4.2.2 4.6 1.2zm-248.9 1.8c-.3.8-.6.5-.6-.6-.1-1.1.2-1.7.5-1.3.3.3.4 1.2.1 1.9zm212.3 2.4c0 1.4.5 3.4 1 4.5.8 1.5.7 1.9-.4 1.9-4.4 0-5.4-1.8-3.6-6.4 1.2-3.3 3-3.3 3 0zm-209 1.5c0 .6-.4.7-1 .4-.5-.3-1-1.1-1-1.6 0-.6.5-.7 1-.4.6.3 1 1.1 1 1.6zm183 9.4c2.9 5.5 6.2 11 7.4 12.3 1.7 2 1.8 2.4.6 3.3-1.3.8-1.3 1 0 1.9 1.1.7 1.2 1 .2 1-.8 0-1.6-.9-1.9-2-.5-2.1-3.3-2.8-3.3-.9 0 .6-.7.3-1.5-.5-1.2-1.2-1.4-2-.5-3.6.8-1.4.8-2.6 0-4-1.4-2.7-2.3-2.5-1.5.2.5 2 .4 2.1-.5.5-.6-.9-.9-2.1-.6-2.5.3-.5-.6-3.1-1.9-5.8-1.4-2.7-2.5-6.2-2.5-7.8 0-3.7-.3-4 6 7.9zM186.3 521c3.2 2.3 5.5 4.5 5.2 4.8-.9 1-11-6.7-15.2-11.7-5.5-6.4-5.5-8 0-2 2.3 2.5 6.8 6.5 10 8.9zM430 509c1.3.9 1.1 1.3-1 3-3.9 3-5.4 2.6-3.5-1 1.7-3.3 2.2-3.5 4.5-2zm-243.3 5c-.2.8 5.1 5.8 7.4 7.1 1.1.6 1.8 1.3 1.5 1.6-.7.7-8.9-4.4-13.4-8.3-4.4-3.9-3.6-6.2 1.2-3.1 1.9 1.2 3.3 2.4 3.3 2.7zm191.3-.9c0 1.1-.4 1.7-1 1.4-.5-.3-1-1.5-1-2.6s.5-1.7 1-1.4c.6.3 1 1.5 1 2.6zm8.7 1.5c-.3.3-1.2.4-1.9.1-.8-.3-.5-.6.6-.6 1.1-.1 1.7.2 1.3.5zm-35.4 5.6c.4 1.2.4 2.4.2 2.7-.3.2-.5-.2-.6-1 0-.8-.4-.6-.9.6-.7 1.6-.8 1.4-.7-1.2.2-3.8 1.2-4.3 2-1.1zm23.7 7.4c2.5 2.5 6.2 5.5 8.3 6.6 2 1.2 3.7 2.7 3.7 3.2 0 .6.9 1.7 2.1 2.4 1.2.8 1.8.9 1.4.3-.8-1.4.4-1.4 4.6.1 3.4 1.3 3.4 1.3-3.6 1.9-8.5.8-9.3.5-8.7-2.7.3-1.8 0-2.4-1.4-2.4s-1.6-.2-.6-.9c1.1-.6 1-1-.5-1.6-1-.5-2.1-.7-2.5-.7-.5.1-.8-.3-.8-.9 0-.5-.3-.8-.7-.6-.5.2-1.9-.7-3.3-2.1-1.4-1.3-1.9-2.2-1.2-1.8 1.9 1.1 1.4-1.2-.8-3.4-1.1-1.1-1.6-2-1.2-2 .4 0 2.8 2.1 5.2 4.6zm70 3.3c-.6 2.2-1.5 4.3-2 4.6-.6.3-1 2.3-1 4.4 0 2.5-.6 4.3-1.7 5.2-1.6 1.2-1.7 1.2-.6-.1.7-.9.8-2.1.4-2.9-.7-1.1-1.7-.7-4.7 1.7-8 6.4-24.1 12.8-37.1 14.7-2.4.4-4.3 1.1-4.3 1.6s.5.9 1 .9c.6 0 1 .7 1 1.5 0 .9 1 1.5 2.3 1.6 1.8.1 1.7.2-.8 1-2.8.9-35.5.4-45-.6-5.4-.6-62.4-2-75.5-1.9-5.8.1-23.5.2-39.5.4l-29 .3-5.1-2.6c-4.7-2.4-7.8-5.7-5.3-5.7 1.5 0 5.3 2.1 6.1 3.4.4.6 3.1 1.2 6 1.4 2.9.1 5.5.7 5.8 1.2.3.5 3.3.9 6.7.9 4.8-.1 6.5-.5 7.9-2 .9-1 2.4-1.9 3.3-1.9 3.8 0-1.2-2-10.4-4-8.9-2-10.5-2.7-15.2-6.8-2.9-2.5-5.1-4.8-4.8-5 .3-.3 1.3.2 2.3 1.1 1 1 2.8 1.7 4 1.7 1.1 0 2.4.5 2.7 1 .3.6 1.7.7 3 .4 1.3-.3 5.3.1 8.9 1 4.8 1.2 7.1 1.4 8.5.6 2.8-1.4 10.4-1.3 9.5.1-.5.8.1 1 1.8.6 1.4-.4 4.6.1 7.7 1.2 2.8 1.1 8.2 2.2 11.9 2.6 3.7.4 7.4.8 8.2 1.1.8.2 2.2-.1 3-.6 1.3-.8 1.3-1.3.2-3.1l-1.4-2.2 7.9.7c4.3.4 9.6 1.1 11.8 1.6 2.5.6 9.7.5 19.3-.2 11.5-.8 16.6-.8 20.4 0 8.4 2 20.4 1.5 31.8-1.3 5.7-1.5 11.3-2.5 12.4-2.3 1.2.2-1.3 1.2-5.4 2.2-15.2 3.6-16.3 5.2-4 6.2 8.6.6 8.1.6 18 .1 7.6-.4 16.6-3.5 36.2-12.6 6.3-2.9 21.9-13.4 22.7-15.4.1-.4.5-.6.8-.4.2.3-.1 2.3-.7 4.6zm-195-1.2c0 1.2-.2 1.2-1.5-.1-.8-.8-1.5-1.7-1.5-2 0-.3.7-.3 1.5 0 .8.4 1.5 1.3 1.5 2.1zm-48 1.1c9 4.2 15.3 6.4 25.2 8.9 6.2 1.5 10.4 2.9 9.4 3.1-1.1.2-4.5-.3-7.5-1.2-3.1-.8-8.5-2.3-12.1-3.1-5.7-1.4-19-7.8-19-9.1 0-.3.3-.4.8-.2l3.2 1.6zm211.4.4c-1.2 2.2-4.7 5.8-5.6 5.8-.4 0-.8-.5-.8-1 0-.6.7-1 1.5-1s2.2-1.1 3.1-2.5c1.7-2.5 3.1-3.5 1.8-1.3zm-174.6 3.6c.2.7-.2 1-1.2.6-.9-.3-1.6-1.1-1.6-1.6 0-1.3 2.3-.5 2.8 1zm-42.2 3.7c1.8 1.4 1.7 1.4-1.2 1.5-2.1 0-3.1-.5-3.1-1.5 0-1.9 1.8-1.9 4.3 0zm72.4-.1c0 .8.6 1.7 1.3 1.9.7.3.5.6-.5.6-1.7.1-2.6 2.1-1 2.1.5 0 1.7.7 2.8 1.5 1.8 1.4 1.7 1.4-1.2 1.5-3.5 0-4.5-1.8-3.7-6.4.6-2.7 2.3-3.6 2.3-1.2zm31 .2c0 .8-.4 1.2-1 .9-.5-.3-1-1-1-1.6 0-.5.5-.9 1-.9.6 0 1 .7 1 1.6zm-5.3 2.3c1.3 1.7 1.7 3.1.8 3.1-1.1 0-7.5-4.5-7.5-5.3 0-1.2 5.4.5 6.7 2.2zm80.3-.9c-.7.4-1 1.2-.6 1.8.3.6.2 1.3-.4 1.7-.5.3-1 0-1-.9 0-.8-.3-2.1-.6-2.9-.4-1.2 0-1.4 1.6-1 1.5.4 1.8.8 1 1.3zm-17 .3c0 .7.6 2.2 1.4 3.2 1.1 1.6 1.7 1.7 2.9.7.8-.7 2.2-1 3.1-.6 1.2.5 1.5.2 1-1-.4-1.1-.1-1.6 1-1.6 3.4 0 1.3 3.3-3.2 4.8-2.8 1-3.5.9-5.2-.8-1-1-2.3-2.8-3-3.9-.9-1.7-.8-2.1.5-2.1.8 0 1.5.6 1.5 1.3zm48 2.2c0 .6-7.3 2.5-7.8 2-.2-.2 1.1-.8 2.9-1.4 4.1-1.1 4.9-1.2 4.9-.6zm-163.3 1.1c-.3.3-1.2.4-1.9.1-.8-.3-.5-.6.6-.6 1.1-.1 1.7.2 1.3.5zm110.8 3.4c.3.5-.3 1-1.4 1-1.1 0-2.3-.5-2.6-1-.3-.6.3-1 1.4-1 1.1 0 2.3.4 2.6 1zm87.1 4.7c-1 1-1.9-.5-1-1.8.6-1.1.8-1.1 1.2 0 .2.7.1 1.5-.2 1.8zm-3.2 6.8c-.6 1.4-4 2.8-10.1 4-5.2 1-3.8-.2 2.1-1.9 3-.9 5.8-2.1 6.1-2.6 1-1.6 2.5-1.2 1.9.5z"/><path d="M358.5 75.6c-1.6 1.4-2.1 2.1-1 1.5 3-1.4 6.1-4 5-4.1-.5 0-2.3 1.2-4 2.6zM432 77c-1.2.8-1.1 1 .8 1 1.2 0 2.2-.5 2.2-1 0-1.3-1.1-1.3-3 0zM334 84.5c-.6.8-1 1.9-.8 2.4.1.6.8-.1 1.5-1.4 1.3-2.8 1.1-3.1-.7-1zM449.5 84c2.8 1.2 4.7 1.2 4 0-.3-.6-1.8-1-3.3-.9-2.4 0-2.5.1-.7.9zM176.8 89.7c.6.2 1.8.2 2.5 0 .6-.3.1-.5-1.3-.5-1.4 0-1.9.2-1.2.5zM465 90.7c1.9.3 3.9.9 4.5 1.4 1.4 1.4 2.5 1.1 2.5-.6 0-1.2-1.2-1.5-5.2-1.3-4.1.1-4.5.2-1.8.5zM289 94c0 .9.4 2 .9 2.5 1.6 1.8 5.3 8.9 7.2 14 1.5 4 1.8 4.3 1.3 1.5-.4-1.9-2.1-6.2-3.8-9.4-4.9-9.3-5.6-10.3-5.6-8.6zM342.5 96.1c-.4.6-.5 1.2-.2 1.5.2.3.7-.2 1-1.1.7-1.7.1-2-.8-.4zM316.5 100c-.4 2.3-.5 4.3-.2 4.6.2.3.7-1.4 1.1-3.7.4-2.3.5-4.4.2-4.6-.2-.2-.7 1.4-1.1 3.7zM472.1 98.4c1 .9 7.9 1.4 7.4.5-.4-.5-2.2-.9-4.2-.9s-3.4.2-3.2.4zM391.6 100.7c-.6 1.4-.5 1.5.5.6.7-.7 1-1.5.7-1.8-.3-.3-.9.2-1.2 1.2zM386.5 104.6l-3 2.6 3.3-2.2c1.7-1.2 3.2-2.3 3.2-2.6 0-.7-.4-.5-3.5 2.2zM305.8 119.7c.4 23.7.8 25.2 1 3.5.1-10.5-.1-19.2-.5-19.2-.5 0-.7 7.1-.5 15.7zM314.4 109.4c-.3 2.1-.4 3.9-.1 4.2.3.4.9-1 1.3-3 .3-2.1.4-3.9.1-4.2-.3-.4-.9 1-1.3 3zM152.8 108.7c.7.3 1.6.2 1.9-.1.4-.3-.2-.6-1.3-.5-1.1 0-1.4.3-.6.6zM143.8 109.7c.6.2 1.8.2 2.5 0 .6-.3.1-.5-1.3-.5-1.4 0-1.9.2-1.2.5zM376.9 112.7l-3.4 3.7 3.2-2.5c2.6-2 5-4.9 4-4.9-.2 0-1.9 1.7-3.8 3.7zM493.5 112c.3.5 1.1 1 1.6 1 .6 0 .7-.5.4-1-.3-.6-1.1-1-1.6-1-.6 0-.7.4-.4 1zM260.6 113.3c.3 1 .9 1.5 1.2 1.2.3-.3 0-1.1-.7-1.8-1-.9-1.1-.8-.5.6zM263 115.9c0 .6.4 1.3 1 1.6.6.3.7-.1.4-.9-.7-1.8-1.4-2.1-1.4-.7zM359.5 117.6c-.9 1.5-1.2 2.3-.6 2 1.1-.7 3.5-4.6 2.8-4.6-.3 0-1.2 1.2-2.2 2.6zM299.2 118c0 1.4.2 1.9.5 1.2.2-.6.2-1.8 0-2.5-.3-.6-.5-.1-.5 1.3zM153.8 117.7c1.2.2 3.2.2 4.5 0 1.2-.2.2-.4-2.3-.4s-3.5.2-2.2.4zM321.1 121.7c-.1.6-.4 2-.7 3-.5 1.7-.5 1.7.6 0 .6-1 .9-2.3.6-3-.3-.9-.5-.9-.5 0zM300.5 125.5c.6 5.5 3.2 17.4 3.4 15.4.1-1.6-1.3-8.9-3-15.9l-.8-3.5.4 4zM204 126.9c.8.5 2.6 1.2 4 1.5l2.5.7-2.5-1.5c-1.4-.9-3.2-1.5-4-1.5-1.3 0-1.3.1 0 .8zM125.4 129.6c-1.8 1.4-1.8 1.5.4.4 1.2-.6 2.2-1.3 2.2-1.5 0-.8-.5-.6-2.6 1.1zM177.8 130.7c1.2.2 3 .2 4 0 .9-.3-.1-.5-2.3-.4-2.2 0-3 .2-1.7.4zM278.1 134.1c1.2 2.4 2.8 6.2 3.6 8.4l1.3 4-.6-4c-.6-4.2-3.7-10.9-5.5-12-.6-.4 0 1.3 1.2 3.6zM283.1 133.7c.7 1.2 1.5 2 1.8 1.7.3-.2-.3-1.2-1.3-2.2-1.7-1.6-1.8-1.6-.5.5zM232 134.1c0 .5 1.1 1.5 2.5 2.1 1.4.6 2.5 1.5 2.5 2 0 .4.5.8 1 .8 2.1 0 .9-1.9-2.5-3.9-1.9-1.1-3.5-1.6-3.5-1zM219 134.4c0 .2.8 1 1.8 1.7 1.5 1.3 1.6 1.2.3-.4s-2.1-2.1-2.1-1.3zM318.2 138c0 1.4.2 1.9.5 1.2.2-.6.2-1.8 0-2.5-.3-.6-.5-.1-.5 1.3zM341.6 139.6c-.9 2.4-.2 2.6 1.2.4.7-1.1.8-2 .3-2s-1.2.7-1.5 1.6zM272 140.2c0 .9.7 2.2 1.7 2.9 1.5 1.3 1.5 1.2.3-1.1-1.7-3.4-2-3.6-2-1.8zM311.2 142c0 1.4.2 1.9.5 1.2.2-.6.2-1.8 0-2.5-.3-.6-.5-.1-.5 1.3zM242 141.7c0 .8 8.8 9.3 9.6 9.3 1.2 0-3.2-6.1-4.8-6.6-1-.3-1.8-.9-1.8-1.4 0-.4-.7-1-1.5-1.4-.8-.3-1.5-.2-1.5.1zM264.3 143c.6 1.1 1.5 2 1.9 2 1.2 0-.3-2.8-1.8-3.4-1.1-.4-1.2-.2-.1 1.4zM293 149.7c0 1.7.5 3.5 1 3.8 1.3.8 1.3-3.5 0-5.5-.7-1.1-1-.7-1 1.7zM298 148.4c0 .9.5 1.6 1 1.6.6 0 1-.4 1-.9 0-.6-.4-1.3-1-1.6-.5-.3-1 .1-1 .9zM329.1 148.6c0 1.1.3 1.4.6.6.3-.7.2-1.6-.1-1.9-.3-.4-.6.2-.5 1.3zM311 152.7c0 4.3.5 4.1 1.3-.5.4-1.8.2-3.2-.3-3.2-.6 0-1 1.6-1 3.7zM321 153c-1.5 5.5-.7 6.3.9.9.7-2.2 1-4.3.7-4.6-.2-.3-1 1.4-1.6 3.7zM277.1 151.6c0 1.1.3 1.4.6.6.3-.7.2-1.6-.1-1.9-.3-.4-.6.2-.5 1.3zM288.5 153c-.7 2.3.2 6 1.6 6 1.2 0 1.2-1.7-.1-2.5-.6-.3-.7-1.7-.4-3.1.7-2.9-.2-3.3-1.1-.4zM296.4 152.4c-.3.8-.4 2.7-.2 4.3.3 2.3.5 2 .9-1.5.5-4.3.2-5.3-.7-2.8zM328.3 153.1c-.2 2.3.3 2.5 1 .4.4-.8.3-1.6-.1-1.9-.4-.3-.9.4-.9 1.5zM252 152.9c0 .5.5 1.3 1 1.6.6.3 1 .2 1-.4 0-.5-.4-1.3-1-1.6-.5-.3-1-.2-1 .4zM280.2 155c0 1.9.2 2.7.5 1.7.2-.9.2-2.5 0-3.5-.3-.9-.5-.1-.5 1.8zM243 154.3c0 .2.9 1.4 2 2.7 1.1 1.3 2 1.8 2 1.1s.5-.9 1-.6c.6.3 1 .4 1 .1 0-.3-1.3-1.2-3-2.1-1.6-.9-3-1.4-3-1.2zM343.8 173.7c.6.2 1.8.2 2.5 0 .6-.3.1-.5-1.3-.5-1.4 0-1.9.2-1.2.5zM164.4 237.2c-6.2 6.5-15.6 18.8-13.9 18.2 1.1-.5 1.4-.1.9 1.2-.6 2 .8.6 9.1-9.1 6.8-7.9 8.1-9.8 8.2-12.3.1-1.2.1-2.2-.1-2.2-.1 0-2 1.9-4.2 4.2zm2.6.3c-.7.9-1.5 1.3-1.9 1-.3-.3.1-1 .9-1.5 2.1-1.4 2.4-1.2 1 .5zM138.6 273.2c-6.3 9.7-12.8 23.8-15.2 32.8-1.6 6.1-1.8 9.9-.2 5.7.5-1.5 1.3-2.5 1.8-2.2.4.3.6-.4.3-1.5-.3-1.2.1-2.2 1-2.6.9-.3 1.3-1.3.9-2.6-.3-1.4-.1-1.9.6-1.4.7.4 1.2.2 1.2-.4 0-.7 1.6-4.4 3.5-8.3 1.9-3.9 3.5-7.8 3.5-8.8 0-.9.7-2.2 1.5-2.9 1.9-1.5 8-11.7 9-14.8 1.5-5-2.3-1.7-7.9 7zM351.6 189.9c-1.2 1.8 4.2 3.9 11.5 4.4 4.1.3 12.9 1.1 19.6 1.8 8.1.8 13.4 1 15.9.3 3.7-.9 5.7-3 3.2-3.2-.7 0-5.3-.4-10.3-.7-4.9-.3-12.4-1-16.5-1.5-13.1-1.6-22.8-2.1-23.4-1.1zM297.6 225.9c-.4.7-.5 1.5-.2 1.8.9.9 1.9-.4 1.4-1.8-.4-1.1-.6-1.1-1.2 0zM304.5 227.7c1 1.6 2.4 3.1 3.1 3.6.7.4 1.1 1.3.8 2-.7 2 4.4 4.1 6.3 2.6 1.2-1.1 1-1.6-1.1-3.6-1.4-1.3-2.6-2.7-2.6-3.2 0-.7-6.3-4.1-7.6-4.1-.4 0 .2 1.2 1.1 2.7zM203.4 236.5c-.9 1.4-1.4 2.8-1.1 3.1.9.9 2.7-.6 2.7-2.2 0-.8.7-1.4 1.5-1.4s1.5-.5 1.5-1c0-2-3-1-4.6 1.5zM270.8 271.3c-2.5 2-2.2 3.1.5 2.3 4.7-1.4 5.9-1.5 8.1-.4 1.8.8 2.3 1.8 2.2 4.2-.1 2.5.3 3.2 2.2 3.4 3.2.5 5.3-1.5 4.6-4.4-.9-3.3 2-3.2 5.1.2 2.6 2.8 3.1 4.9 1.5 5.9-1.1.7-1.4 4.5-.4 4.5 1.5 0 6.4-4.3 6.4-5.6 0-4.5-7.9-10.5-13.6-10.4-1.6.1-5.6-.1-8.9-.5-4.4-.4-6.5-.2-7.7.8zM306.7 281.8c-2.3 2.5-2.1 3.9.5 5.3 1.3.7 2.9 1.8 3.6 2.6.7.7 2.4 1.3 3.8 1.3 3.9 0 3.2-4.2-1.3-7.9-4.4-3.6-4.5-3.6-6.6-1.3zM204.7 290.8c.6.4 1.5 2 1.8 3.5.8 3.2 3.1 4.5 4.7 2.9 1.5-1.5-3-7.1-5.7-7.1-1.2-.1-1.6.2-.8.7zM142.5 334.8c-.3.8-.3 1.7 0 2 .3.3.5-.1.5-.9s.7-.4 1.6.9c1.3 1.8 1.9 2.1 3 1.1 1-.8 1.1-1.5.4-2.4-1.7-2-4.8-2.5-5.5-.7zM145.5 349.1c-.4.6-.5 1.3-.2 1.6.7.7 2.7-.6 2.7-1.8 0-1.2-1.7-1.2-2.5.2zM157.5 351c-.3.5-.1 1 .4 1 .6 0 1.1-.5 1.1-1 0-.6-.2-1-.4-1-.3 0-.8.4-1.1 1zM144.2 354.5c0 1.6.2 2.2.5 1.2.2-.9.2-2.3 0-3-.3-.6-.5.1-.5 1.8zM146.5 354.3c-.4 1-.5 2.1-.1 2.4 1 1 1.8-.4 1.3-2.4-.4-1.7-.4-1.7-1.2 0zM140.5 365c.3.5.8 1 1.1 1 .2 0 .4-.5.4-1 0-.6-.5-1-1.1-1-.5 0-.7.4-.4 1zM313.5 330c-.3.5-.1 1 .4 1 .6 0 1.1-.5 1.1-1 0-.6-.2-1-.4-1-.3 0-.8.4-1.1 1zM267 297c0 .5.7 1 1.5 1s1.5-.5 1.5-1c0-.6-.7-1-1.5-1s-1.5.4-1.5 1zM402.7 311.1c-.4 1.6-.3 1.8.9.8.7-.6 1.1-1.5.8-2-.8-1.3-1.1-1.1-1.7 1.2zM464 303c0 .5.5 1 1.1 1 .5 0 .7-.5.4-1-.3-.6-.8-1-1.1-1-.2 0-.4.4-.4 1zM472.4 323.6c.3 6.5 1.1 8.8 2.7 7.8.6-.4.6-1.1-.2-2-.9-1.1-.8-1.4.2-1.4 1.1 0 1.1-.2.1-.8-.7-.5-1.6-2.8-2.1-5.3-.9-4.3-.9-4.2-.7 1.7zM500.5 339c.3.5.8 1 1.1 1 .2 0 .4-.5.4-1 0-.6-.5-1-1.1-1-.5 0-.7.4-.4 1zM449.9 309.6c1.8 1.3 2 1.8 1 2.5-.8.5-.9.9-.3.9 2.1 0 2.4-1.4.7-3.2-.9-1-2.1-1.8-2.7-1.8-.6 0 0 .7 1.3 1.6zM260.5 377c.3.5.8 1 1.1 1 .2 0 .4-.5.4-1 0-.6-.5-1-1.1-1-.5 0-.7.4-.4 1zM349.5 379.3c-2.7 4.4-2.8 4.7-1.8 4.7.4 0 1.8-1.8 3.1-4 2.7-4.8 1.6-5.4-1.3-.7zM190 404.1c0 .5.5.7 1 .4.6-.3 1-.8 1-1.1 0-.2-.4-.4-1-.4-.5 0-1 .5-1 1.1zM410.8 395.7c.7.3 1.6.2 1.9-.1.4-.3-.2-.6-1.3-.5-1.1 0-1.4.3-.6.6zM411 398c0 .5.5 1 1 1 .6 0 1-.5 1-1 0-.6-.4-1-1-1-.5 0-1 .4-1 1zM242 409c0 .5.5 1 1.1 1 .5 0 .7-.5.4-1-.3-.6-.8-1-1.1-1-.2 0-.4.4-.4 1zM459.6 434.6c-.4.9-.5 1.8-.4 1.9.7.6 4.8-1.5 4.8-2.5 0-1.7-3.7-1.1-4.4.6zM447 426.1c0 .5.5.7 1 .4.6-.3 1-.8 1-1.1 0-.2-.4-.4-1-.4-.5 0-1 .5-1 1.1zM171.5 448c-.3.5-.2 1 .4 1 .5 0 1.3-.5 1.6-1 .3-.6.2-1-.4-1-.5 0-1.3.4-1.6 1zM243 454.3c-3.4 1.6-7.5 5.5-6.7 6.3.3.4 1.8-.1 3.1-1 3.1-2 7.3-2 10.6-.1 1.4.8 2.8 1.4 3.3 1.5 1.3 0 .7-2.7-1-4.8-2.3-2.7-6.1-3.4-9.3-1.9zM234.1 463.4c-.7.8-.8 1.7-.3 2 .6.3 1.3-.1 1.6-1 .9-2.3.2-2.8-1.3-1zM343 457.9c0 .6.7 2.2 1.5 3.5 2 3 4.5 14.7 4.5 21.3 0 2.9.5 5.3 1 5.3 1.3 0 1.2-.6-.4-11.5-1.6-10.8-3.4-17.1-5.3-18.6-.9-.9-1.3-.8-1.3 0zM180.6 462.5c-.3.8-.1 1.5.3 1.5.5 0 1.1-.7 1.5-1.5.3-.8.1-1.5-.3-1.5-.5 0-1.1.7-1.5 1.5zM336 469.1c0 .9 1.4 3.6 3.2 6 2.8 3.9 3.3 5.4 3.8 13.1.4 4.8 1 9.1 1.3 9.5 1.3 1.3-.6-17.2-2-19.7-4.1-7.3-6.3-10.3-6.3-8.9zM184.5 472.1c-2.2 4.2-1.5 4.4 1.2.3 1.2-1.9 1.8-3.4 1.3-3.4s-1.7 1.4-2.5 3.1zM190.2 478.3c-3.1 3.3-2.7 4.1.5 1.1 1.4-1.3 2.4-2.6 2.1-2.9-.2-.3-1.4.5-2.6 1.8zM329.6 477.2c.4.7 1.8 2.7 3.1 4.4 1.3 1.8 3 5.1 3.7 7.5 1.1 3.5 1.4 3.9 1.5 1.8.1-2.3-7-14.9-8.4-14.9-.4 0-.3.6.1 1.2zM199 480.6c-.8.3-2.6 2.4-3.9 4.7-1.3 2.3-2 3.7-1.5 3.2.5-.6 2.5-2.7 4.3-4.8 1.9-2 3.3-3.6 3-3.6-.2.1-1.1.3-1.9.5zM354 484.9c0 1.1.5 2.3 1 2.6.6.3 1-.3 1-1.4 0-1.1-.4-2.3-1-2.6-.5-.3-1 .3-1 1.4zM323.5 487.2c.9 3 5.8 12.9 5.1 10.3-1.4-5.5-4.2-12.5-4.9-12.5-.5 0-.5 1-.2 2.2zM203.2 488c-.7 1.1-1 2-.6 2 .7 0 3.4-2.7 3.4-3.4 0-1.3-1.6-.5-2.8 1.4zM350 490.9c0 1.2.5 2.1 1 2.1.6 0 1-.6 1-1.4 0-.8-.4-1.8-1-2.1-.5-.3-1 .3-1 1.4zM210 494c-1 1.9-1 2 .9.8 2.2-1.3 2.8-2.8 1.1-2.8-.5 0-1.4.9-2 2zM318.1 495.6c0 2.1.4 4.8.9 5.9.6 1.3.7.1.3-3.5-.7-6.6-1.3-7.8-1.2-2.4zM220.5 494.6c-1.8 1.8-3.8 6.4-3.2 7.1.3.2 1-1 1.7-2.7.7-1.7 2-3.5 2.9-3.9.9-.5 1.3-1.2 1-1.6-.4-.3-1.4.2-2.4 1.1zM230.6 497.5c-1.5 1.6-2.6 3.2-2.6 3.8 0 .5 1.4-.5 3-2.3 1.7-1.8 2.8-3.5 2.6-3.7-.3-.3-1.6.7-3 2.2zM200.1 499.4c-.8.9-1.1 1.9-.7 2.3.9.9 2.9-1.3 2.4-2.7-.2-.8-.8-.7-1.7.4zM235.7 501.9c-2.5 4.3-2.1 5 .8 1.1 2.7-3.7 2.9-4 1.7-4-.4 0-1.5 1.3-2.5 2.9zM245.7 500.4c-.9.7-1.7 1.9-1.7 2.7 0 .9.8.6 2.2-.9 2.5-2.4 2.2-3.7-.5-1.8zM310.3 500.5c-.6 1.7 1.5 10.3 2.8 11.1.4.2.1-1.6-.7-4-1.2-3.4-1.3-5-.4-6.5.7-1.5.7-2.1 0-2.1-.6 0-1.3.7-1.7 1.5zM206.6 502.5c-.9 2.4-.8 4.5.3 4.5 1.2 0 2-3.5 1.1-5-.5-.8-.9-.7-1.4.5zM253.4 505.9c-1.9 2.9-2.8 5.7-3 9.4l-.3 5.2.8-4.5c.7-4.7 2.3-8.3 4.9-11.3.8-.9 1.3-2 .9-2.3-.3-.3-1.8 1.3-3.3 3.5zM197 507.7c0 4.4 3.1 13.3 4.5 13.3.3 0 .1-.8-.4-1.9-.6-1-1.1-4.4-1.2-7.4-.1-3.5-.6-5.4-1.2-5-.6.4-.8-.2-.5-1.5.4-1.2.2-2.2-.3-2.2s-.9 2.1-.9 4.7zM214.6 505.8c-2.3 4.5-2.1 12.6.6 17.9 1.4 2.8 2.7 4.2 3.5 3.8.8-.2 1.2-.1.9.3-.6 1 1.1 3.9 1.8 3.1.3-.3-.1-2.6-.9-5.2-1.6-5.3-2-12.7-.9-17.2.4-1.7.3-2.6-.2-2.2-.4.4-1.3-.2-2-1.4-1.2-2.2-1.2-2.2-2.8.9zm2.2 13.7c-.3.3-.9-.2-1.2-1.2-.6-1.4-.5-1.5.5-.6.7.7 1 1.5.7 1.8zM296 508.7c0 5.5.5 5.4 1.4-.5.4-2.6.2-4.2-.4-4.2-.5 0-1 2.1-1 4.7zM320.5 506.1c.2 1.4.7 4.4 1.1 6.5.8 5.5 3.2 10.2 5.1 10 1.1-.1 2.2 1.7 3.5 5.6 1.1 3.2 2.3 5.8 2.7 5.8.5 0 1.3-1.5 1.8-3.3.5-1.7 1.5-3.1 2.1-3 .6.2.9-.4.6-1.2-.7-1.8-.9-1.8-3.4-.3-1 .7-2.2.9-2.5.6-.9-.8 2.7-4.8 3.7-4.2.8.5-.5-3.6-2.3-7.1-1.5-3.1-4.8-4.9-6.3-3.6-1.6 1.3-3.8-.9-5.5-5.4-1-2.6-1-2.7-.6-.4zM330.3 504.7c.2.5 1.2 2.5 2.1 4.6 1 2.1 2 3.6 2.3 3.3.8-.8-2.8-8.6-3.9-8.6-.5 0-.7.3-.5.7zM262.7 506.5c-1.7 1.6-4.1 10.8-3.4 12.7.2.7.8-.8 1.2-3.5.5-3.1 1.7-5.8 3.5-7.7 2.8-3 1.6-4.4-1.3-1.5zM305.1 507.1c0 1.3.4 3.3.9 4.4.7 1.5.8 1.1.6-1.7-.3-4.2-1.6-6.5-1.5-2.7zM282.2 506.8c-1.9 1.3-2.8 6.1-2.1 11.7.5 4.7.6 4.6.7-2.3.2-6.5.4-7.5 2.2-7.9 1.1-.3 2-.9 2-1.4 0-1.1-1.1-1.1-2.8-.1zM287.6 507.7c-.2 1-.7 2.8-1.1 4-.4 1.4-.2 2.3.4 2.3.6 0 1.1-1.4 1.1-3 0-1.7.5-3 1-3 .6 0 1-.5 1-1 0-1.7-1.8-1.1-2.4.7zM271.4 510.2c-1.2 1.8-2.2 8.8-1.3 8.2.5-.3.9-1.6.9-2.9 0-1.3.7-3 1.5-3.9.8-.8 1.5-1.7 1.5-2 0-1.1-1.9-.6-2.6.6zM297.2 516c-.2 4.9 5 19.1 6.5 17.7.2-.3 0-1.4-.6-2.5-1.6-3.1-1.3-3.8.7-1.6 2.4 2.6 5.4 3.1 4.5.7-.3-1-1.3-2.7-2.1-3.8-1.3-1.9-1.4-1.9-.7.4.5 1.6.4 2.1-.4 1.6-.7-.3-1-2.3-.9-4.3.3-3.1 0-3.7-1.7-3.7-2.6 0-4.2-1.6-4.8-4.6l-.4-2.4-.1 2.5zm4.5 10.2c-.3.8-.6.5-.6-.6-.1-1.1.2-1.7.5-1.3.3.3.4 1.2.1 1.9zM307.4 517c.2 1.9.9 4.8 1.5 6.3.6 1.6 1.1 3.1 1.1 3.5.1 1.2 3.8 5.7 4.3 5.2.2-.3-.5-2.5-1.6-5s-2.2-5.2-2.3-6c-.1-.8-.9-2.8-1.8-4.5l-1.5-2.9.3 3.4zM315.1 516.8c-2.1 1.7-2.1 1.7-.2 6.6 1 2.8 2.7 5.3 3.7 5.7 1.1.4 1.4.8.7.8-.7.1.4 1.7 2.3 3.6l3.5 3.6-2.8-.7c-2.1-.5-2.5-.4-1.7.5.6.6 2.7 1.4 4.7 1.8 2.9.4 3.8.2 4.3-1.1.8-2 .3-2.7-2.4-2.9-1.1 0-1.8-.6-1.6-1.2.3-.6-.7-3.4-2.1-6.3-1.4-2.8-2.5-5.7-2.5-6.3 0-.6-.9-2.2-1.9-3.5-1.8-2.3-2-2.3-4-.6zM259.5 524.7c.7 3.8 3.4 10.4 3.5 8.5 0-.7.4-1.1.8-.8.4.2 1.4.1 2.2-.4 1.1-.7 1.2-1.2.3-2.1-.6-.6-.9-1.8-.6-2.5.3-.8.2-2.5-.1-3.8-.4-1.8-1.2-2.3-3.6-2.2-3 .1-3.1.3-2.5 3.3zM235.3 523.4c.4 1 .7 2.4.7 3.2 0 .8.4 1.4.9 1.4 1.1 0 .1-4.9-1.2-5.7-.7-.4-.8 0-.4 1.1zM200 524.4c0 .2.7.7 1.6 1 .8.3 1.2.2.9-.4-.6-1-2.5-1.4-2.5-.6zM295 527.2c0 .7.5 2 1 2.8.8 1.2 1 1.1 1-.7 0-1.2-.4-2.5-1-2.8-.5-.3-1 0-1 .7zM298.1 533.6c0 1.1.3 1.4.6.6.3-.7.2-1.6-.1-1.9-.3-.4-.6.2-.5 1.3zM356.1 534.6c0 1.1.3 1.4.6.6.3-.7.2-1.6-.1-1.9-.3-.4-.6.2-.5 1.3zM328.8 539.7c-2.1.5-2.3 1.7-.5 3.1 1.7 1.5 5.6 1.1 5-.4-.3-.7-1.2-1-2.1-.7-1.1.5-1.4.2-.9-1 .3-.9.5-1.6.4-1.6-.1.1-1 .3-1.9.6zM392 484c0 .6.7 1 1.5 1s1.5-.2 1.5-.4-.7-.6-1.5-1c-.8-.3-1.5-.1-1.5.4z"/></svg>