<?xml version="1.0" standalone="no"?>
<!DOCTYPE svg PUBLIC "-//W3C//DTD SVG 20010904//EN"
 "http://www.w3.org/TR/2001/REC-SVG-20010904/DTD/svg10.dtd">
<svg version="1.0" xmlns="http://www.w3.org/2000/svg"
 width="630.000000pt" height="630.000000pt" viewBox="0 0 630.000000 630.000000"
 preserveAspectRatio="xMidYMid meet">

<g transform="translate(0.000000,630.000000) scale(0.100000,-0.100000)"
fill="#000000" stroke="none">
<path d="M3890 5699 c-96 -9 -299 -58 -415 -100 -106 -38 -184 -82 -263 -148
-87 -72 -143 -111 -161 -111 -9 0 -45 25 -81 56 -132 112 -409 215 -620 230
-117 8 -328 -32 -499 -93 -191 -69 -297 -130 -447 -255 -182 -152 -303 -307
-312 -399 -5 -49 -4 -49 34 -65 48 -20 135 -13 214 17 59 23 168 55 240 70 25
5 97 10 160 10 95 0 129 -4 195 -24 156 -49 234 -89 298 -155 l39 -40 -84 -7
c-110 -10 -219 -9 -298 4 l-64 11 -33 -32 c-24 -23 -33 -41 -33 -64 0 -56 7
-64 60 -64 27 0 60 -4 73 -9 24 -9 25 -14 26 -96 2 -154 -30 -217 -159 -314
-25 -19 -53 -43 -63 -54 -9 -10 -35 -33 -56 -51 -41 -33 -216 -239 -268 -316
-60 -89 -175 -340 -232 -507 -77 -225 -114 -657 -76 -884 33 -199 74 -340 157
-534 105 -245 176 -377 289 -540 96 -137 167 -210 242 -246 77 -36 94 -53 102
-99 4 -21 13 -46 20 -57 8 -10 15 -30 15 -46 0 -15 12 -50 27 -79 22 -40 38
-55 73 -71 41 -18 61 -20 220 -16 275 6 798 5 995 -3 334 -14 889 -21 1018
-13 l127 7 60 50 c64 55 82 93 95 208 14 122 96 252 222 351 154 121 256 258
391 527 64 126 85 178 92 230 6 37 16 99 22 137 5 39 11 196 12 350 1 287 -14
468 -49 570 -7 22 -17 56 -20 75 -7 36 -49 131 -112 255 -19 39 -50 104 -68
147 -40 95 -113 226 -166 298 -22 30 -51 71 -63 90 -13 19 -65 85 -117 145
-167 195 -183 225 -195 342 -8 77 -3 83 74 83 29 0 68 7 87 14 34 14 35 17 35
69 0 81 -12 92 -112 94 -46 2 -101 5 -123 7 -60 6 -731 26 -892 26 l-83 0 33
46 c17 25 59 66 92 91 76 58 238 153 290 171 394 138 847 144 1055 13 33 -21
95 -44 130 -48 32 -5 40 -2 54 19 9 14 17 41 17 59 2 46 -36 142 -81 209 -56
82 -197 208 -280 250 -24 13 -60 33 -80 46 -19 13 -53 30 -75 37 -22 8 -69 28
-105 45 -144 67 -394 101 -600 81z m426 -77 c39 -10 97 -31 129 -46 32 -14 61
-26 66 -26 27 0 242 -120 307 -171 111 -86 190 -184 229 -279 24 -59 28 -86
14 -94 -12 -8 -105 26 -161 57 -64 36 -188 67 -310 77 -110 10 -349 -1 -445
-20 -78 -16 -155 -42 -155 -53 0 -5 -11 -7 -25 -5 -14 3 -28 1 -31 -3 -3 -5
-18 -9 -33 -9 -31 0 -146 -43 -170 -63 -9 -8 -43 -30 -76 -50 -33 -19 -91 -58
-128 -86 l-69 -51 44 57 c72 94 90 123 76 118 -8 -3 -21 -18 -30 -33 -20 -33
-115 -153 -132 -167 -7 -6 -16 -21 -20 -35 -7 -24 -6 -24 8 -6 19 24 21 8 4
-30 l-12 -26 -266 7 c-146 4 -375 8 -509 10 -193 2 -245 5 -252 16 -14 22 -11
29 14 30 14 0 17 2 7 6 -8 3 -23 12 -33 21 -9 8 -20 12 -24 9 -3 -4 -25 10
-48 32 -46 43 -175 107 -280 141 -38 12 -81 26 -94 31 -13 6 -28 6 -33 1 -4
-4 35 -20 87 -35 52 -14 128 -42 167 -62 105 -51 259 -195 208 -195 -5 0 -14
9 -20 21 -42 77 -230 190 -382 230 -152 39 -414 16 -585 -53 -89 -35 -179 -47
-206 -26 -15 11 -16 18 -8 41 6 15 17 27 25 27 7 0 20 8 27 18 11 14 11 15 -1
5 -24 -22 -31 -14 -15 15 50 87 166 212 198 212 15 0 18 3 9 8 -18 12 140 134
253 195 50 27 95 53 100 57 6 4 78 31 160 59 167 56 289 77 445 75 108 -1 257
-39 384 -99 39 -18 88 -40 108 -48 44 -18 54 -26 121 -90 62 -59 83 -65 136
-37 41 20 57 32 130 96 112 98 293 176 526 228 111 24 110 24 310 21 152 -2
204 -7 261 -23z m-1961 -863 c11 -17 -1 -21 -15 -4 -8 9 -8 15 -2 15 6 0 14
-5 17 -11z m338 -116 c-7 -2 -21 -2 -30 0 -10 3 -4 5 12 5 17 0 24 -2 18 -5z
m-609 -18 c7 -20 -22 -19 -48 0 -19 14 -18 15 11 15 18 0 33 -6 37 -15z m1873
-8 c3 -4 -12 -7 -35 -7 -23 0 -47 -7 -56 -15 -15 -16 -31 -21 -22 -7 2 4 -13
6 -35 4 -27 -3 -40 0 -44 10 -3 8 -16 13 -28 12 -12 -1 -42 -3 -67 -5 -25 -1
-35 -4 -22 -6 12 -2 20 -8 17 -13 -3 -5 21 -11 52 -15 111 -12 136 -17 123
-25 -18 -11 -452 -11 -470 0 -11 7 -6 10 20 10 26 0 31 3 20 10 -13 8 -12 10
5 11 43 3 48 4 52 17 3 7 -4 12 -15 12 -11 0 -29 3 -39 8 -13 5 -6 8 27 12 60
7 508 -5 517 -13z m-580 7 c-3 -3 -12 -4 -19 -1 -8 3 -5 6 6 6 11 1 17 -2 13
-5z m950 -10 c35 -4 50 -10 47 -18 -6 -16 -147 -10 -219 10 l-50 13 85 0 c47
0 108 -2 137 -5z m-1956 -25 c12 -6 57 -10 102 -10 146 2 379 -11 365 -20 -13
-8 -282 -3 -326 7 -13 3 -21 1 -18 -4 8 -14 -295 -26 -416 -16 l-103 8 65 14
c88 19 142 22 158 10 7 -6 17 -7 25 -1 6 4 41 8 77 7 41 -1 58 2 45 7 -11 4
-14 8 -7 8 7 1 22 -4 33 -10z m1336 5 c-3 -3 -12 -4 -19 -1 -8 3 -5 6 6 6 11
1 17 -2 13 -5z m-827 -24 c0 -5 -5 -10 -11 -10 -5 0 -7 5 -4 10 3 6 8 10 11
10 2 0 4 -4 4 -10z m348 0 c32 0 52 -4 52 -11 0 -9 -27 -10 -97 -4 -152 11
-164 13 -171 20 -4 4 31 5 78 1 47 -3 109 -6 138 -6z m110 -17 c-10 -2 -26 -2
-35 0 -10 3 -2 5 17 5 19 0 27 -2 18 -5z m-1367 -26 c-1 -12 -15 -9 -19 4 -3
6 1 10 8 8 6 -3 11 -8 11 -12z m2122 6 c-7 -2 -21 -2 -30 0 -10 3 -4 5 12 5
17 0 24 -2 18 -5z m347 -23 c0 -5 -12 -10 -27 -9 -25 0 -26 1 -8 9 27 12 35
12 35 0z m-683 -16 c-3 -3 -12 -4 -19 -1 -8 3 -5 6 6 6 11 1 17 -2 13 -5z
m593 -8 c0 -9 -39 -13 -51 -5 -10 6 -4 9 19 9 17 0 32 -2 32 -4z m-2035 -28
c-29 -101 -60 -133 -143 -148 -105 -19 -122 -29 -122 -70 0 -32 -6 -40 -57
-78 -81 -59 -143 -116 -143 -130 0 -7 -18 -30 -41 -52 -22 -21 -38 -44 -35
-49 4 -5 -2 -14 -11 -20 -10 -6 -14 -11 -10 -11 9 0 -65 -70 -75 -70 -3 0 -10
-12 -16 -27 -5 -16 -28 -49 -51 -75 -22 -25 -41 -49 -41 -52 0 -8 -79 -129
-89 -136 -13 -9 -56 -82 -74 -126 -9 -23 -29 -70 -45 -105 -86 -185 -158 -431
-168 -574 -2 -33 -6 -76 -8 -95 -3 -19 -5 -63 -5 -97 -1 -66 -13 -82 -26 -35
-11 39 -14 283 -4 276 5 -3 10 16 11 43 1 26 3 62 3 78 3 44 -7 53 -21 20
l-13 -30 -1 30 c-1 84 47 266 105 400 98 226 163 345 234 426 17 18 31 37 31
42 0 4 9 16 20 27 11 11 32 37 48 57 35 48 188 194 227 217 18 11 4 -7 -35
-46 -42 -41 -66 -72 -66 -86 0 -12 2 -22 4 -22 8 0 151 128 195 174 62 65 85
116 52 116 -8 0 -15 5 -15 11 0 21 21 49 37 49 9 0 39 11 67 24 28 13 73 33
100 45 27 13 50 30 53 41 3 11 13 22 22 25 10 3 28 17 41 30 13 14 34 25 47
25 20 0 23 -4 18 -22z m1230 11 c159 -16 311 -18 389 -5 39 7 98 11 129 8 l58
-5 -42 -37 c-51 -46 -50 -72 4 -81 21 -3 47 -15 60 -26 22 -21 130 -50 220
-60 43 -5 47 -3 47 17 0 29 16 17 23 -17 3 -16 22 -52 42 -81 39 -60 41 -64
21 -56 -8 3 -27 30 -43 60 -26 49 -53 71 -53 42 0 -9 -3 -9 -12 0 -20 20 -31
14 -24 -14 6 -24 5 -26 -16 -20 -56 17 -95 26 -121 26 -16 0 -43 6 -60 14 -63
28 -274 61 -447 71 -31 2 -74 8 -97 14 -23 6 -101 16 -175 21 -73 6 -137 15
-141 19 -5 5 -4 25 3 45 15 47 8 69 -9 28 -8 -18 -17 -32 -21 -32 -5 0 -6 -9
-3 -20 4 -16 0 -20 -17 -20 -19 0 -21 4 -15 33 13 65 24 76 79 80 99 7 122 6
221 -4z m-1137 -17 c2 -7 -2 -10 -11 -6 -8 3 -18 1 -21 -4 -3 -5 4 -12 15 -15
30 -8 18 -30 -22 -40 -19 -5 -38 -13 -44 -19 -7 -8 -4 -9 10 -4 11 4 35 10 53
13 23 4 32 11 32 24 0 12 7 19 18 19 14 0 15 -2 2 -10 -12 -8 -10 -10 10 -10
19 0 21 -3 12 -12 -7 -7 -18 -13 -25 -13 -29 -2 -101 -29 -85 -32 9 -3 26 1
37 6 11 6 30 11 43 10 50 -1 -25 -21 -90 -23 -57 -3 -61 -2 -47 14 8 9 15 19
15 22 0 3 9 27 21 52 18 41 24 47 46 44 15 -2 28 -9 31 -16z m67 8 c4 -6 11
-7 17 -4 20 13 98 10 98 -3 0 -17 8 -16 26 2 18 17 24 18 44 5 21 -13 9 -20
-48 -27 -28 -3 -49 -9 -47 -14 5 -6 -7 -3 -75 19 -8 3 -25 4 -37 3 -22 -2 -30
9 -16 22 10 10 31 8 38 -3z m691 -6 c-3 -9 -6 -18 -6 -20 0 -2 -4 -4 -9 -4 -5
0 -7 9 -4 20 3 11 10 20 15 20 6 0 7 -7 4 -16z m34 -14 c-6 -12 -14 -19 -17
-17 -2 3 1 15 7 27 6 12 14 19 17 17 2 -3 -1 -15 -7 -27z m39 0 c-6 -16 -15
-30 -20 -30 -13 0 -11 13 7 38 21 30 25 28 13 -8z m-529 10 c0 -5 -7 -10 -16
-10 -8 0 -12 5 -9 10 3 6 10 10 16 10 5 0 9 -4 9 -10z m174 -2 c-7 -12 -62
-10 -69 2 -4 7 8 10 34 9 22 -2 38 -6 35 -11z m152 -3 c4 -8 9 -13 13 -10 4 2
8 -2 8 -10 0 -8 -6 -15 -14 -15 -7 0 -13 7 -13 15 0 8 -7 15 -15 15 -8 0 -15
5 -15 10 0 16 30 12 36 -5z m-1064 -20 c-2 -14 -6 -25 -8 -25 -2 0 -4 11 -4
25 0 14 4 25 9 25 4 0 6 -11 3 -25z m2444 -12 c-10 -10 -19 5 -10 18 6 11 8
11 12 0 2 -7 1 -15 -2 -18z m-1753 -10 c-7 -2 -19 -2 -25 0 -7 3 -2 5 12 5 14
0 19 -2 13 -5z m298 -15 c21 1 44 -5 54 -11 13 -10 -11 -13 -122 -16 -126 -3
-158 -3 -210 -1 -10 1 -49 -2 -87 -6 -104 -11 -75 11 35 26 75 10 96 10 116
-1 21 -12 26 -11 34 3 5 10 15 15 22 13 6 -3 26 -1 42 4 17 4 41 4 55 -1 14
-6 41 -10 61 -10z m1389 7 c0 -8 -4 -15 -9 -15 -13 0 -22 16 -14 24 11 11 23
6 23 -9z m-1733 -1 c-3 -3 -12 -4 -19 -1 -8 3 -5 6 6 6 11 1 17 -2 13 -5z
m-67 -11 c-14 -3 -29 -9 -34 -14 -6 -5 -21 -9 -35 -8 -24 0 -23 2 9 14 19 7
46 13 60 13 l25 -1 -25 -4z m604 -14 c6 -5 -4 -5 -24 1 -18 5 -35 12 -39 16
-9 10 53 -6 63 -17z m66 11 c0 -5 -4 -10 -10 -10 -5 0 -10 5 -10 10 0 6 5 10
10 10 6 0 10 -4 10 -10z m-332 -102 c-2 -9 12 -13 42 -14 63 -1 72 -3 65 -14
-3 -5 3 -10 14 -10 16 0 21 -6 21 -25 0 -27 3 -28 38 -19 19 6 22 11 17 33 -4
14 -12 30 -18 34 -11 8 123 -1 174 -12 7 -1 -5 -78 -13 -86 -2 -3 -64 -6 -137
-7 l-133 -3 -28 32 c-40 45 -81 63 -140 63 -27 0 -50 5 -50 10 0 6 8 10 18 11
31 0 107 11 111 15 9 9 21 3 19 -8z m-240 -14 c12 -4 22 -11 22 -16 0 -6 -11
-7 -26 -4 -16 4 -23 3 -19 -3 3 -6 1 -20 -5 -31 -9 -18 -8 -20 15 -20 14 0 25
5 25 10 0 16 53 12 79 -7 23 -16 23 -17 5 -24 -10 -4 -45 -8 -77 -8 -52 -1
-61 2 -86 29 -18 20 -41 33 -67 37 -40 6 -40 -10 1 -20 16 -4 14 -5 -7 -6 -14
0 -28 -7 -30 -13 -5 -13 -180 -20 -266 -10 -53 6 -38 18 28 23 25 2 48 8 51
13 4 4 36 9 73 10 36 0 66 4 66 8 0 8 88 27 145 31 22 2 42 4 45 5 3 1 15 -1
28 -4z m932 -20 c69 -9 154 -22 190 -29 36 -7 108 -16 160 -20 119 -8 143 -12
134 -27 -5 -8 -49 -9 -158 -2 -165 9 -184 9 -459 3 l-187 -4 0 32 c0 62 4 64
104 63 50 -1 147 -8 216 -16z m-720 -59 c0 -17 -2 -18 -24 -9 -23 9 -20 24 4
24 11 0 20 -7 20 -15z m-740 -22 c0 -4 -26 -33 -57 -63 -32 -31 -76 -76 -97
-100 -22 -25 -41 -40 -43 -33 -2 6 14 30 36 52 23 23 41 47 41 54 0 15 67 82
90 90 22 8 30 8 30 0z m105 -3 c3 -6 -1 -13 -9 -16 -9 -3 -13 -10 -10 -15 3
-5 18 -2 34 6 27 14 30 13 59 -14 42 -40 43 -82 1 -98 -35 -13 -42 -6 -43 41
-1 33 -1 33 -50 33 -31 -1 -52 4 -59 14 -8 11 -9 10 -4 -4 4 -13 1 -17 -12
-15 -10 2 -16 -3 -14 -10 1 -8 -2 -11 -7 -8 -11 7 -20 -14 -13 -31 6 -18 31
-16 38 2 8 19 33 19 58 0 19 -14 14 -35 -8 -35 -20 0 -50 -50 -38 -62 7 -7 15
-3 24 11 10 16 23 21 53 21 36 -1 43 -5 68 -45 16 -25 26 -49 22 -55 -3 -5 -4
-10 -1 -10 2 0 11 -3 20 -6 12 -5 16 0 16 20 0 14 5 26 10 26 6 0 10 7 10 15
0 23 38 37 87 32 55 -5 75 -24 75 -71 0 -20 5 -39 10 -42 13 -9 30 18 18 30
-4 4 -6 15 -3 23 8 20 -26 78 -56 96 -14 8 -45 18 -69 22 -37 6 -47 4 -67 -15
-12 -12 -25 -18 -28 -13 -7 12 2 24 37 51 16 12 24 22 17 22 -6 0 -11 9 -11
21 0 14 5 19 15 16 8 -4 17 -2 20 3 4 6 -3 10 -14 10 -12 0 -21 7 -21 15 0 8
5 15 10 15 6 0 10 -4 10 -10 0 -5 9 -10 20 -10 11 0 20 5 20 10 0 12 37 14 42
3 2 -5 25 -23 52 -42 47 -33 49 -33 62 -16 10 14 11 21 3 26 -26 15 0 39 43
40 24 0 67 3 96 5 32 3 52 1 52 -6 0 -5 7 -10 15 -10 8 0 15 5 15 10 0 6 11
10 25 10 20 0 29 -8 40 -32 l13 -33 7 28 c9 33 33 40 103 29 29 -5 72 -6 95
-2 23 3 60 6 82 5 l40 -2 0 -59 c0 -32 -4 -65 -9 -72 -6 -9 -5 -16 3 -21 7 -5
13 -39 14 -92 2 -61 0 -77 -6 -58 -11 29 -61 53 -117 55 -43 2 -136 -32 -151
-54 -8 -14 -9 -11 -4 12 5 26 4 28 -9 17 -13 -11 -20 -9 -44 7 -15 12 -48 22
-72 25 -40 3 -46 7 -54 36 -5 17 -6 34 -2 38 3 3 31 8 61 11 64 5 89 -10 99
-59 7 -36 36 -40 36 -5 0 57 -86 104 -155 85 -19 -5 -37 -14 -40 -19 -9 -15
-43 -12 -52 5 -6 10 -26 15 -63 16 -64 1 -110 -14 -110 -36 0 -12 4 -11 20 5
24 24 73 26 124 5 43 -18 63 -57 47 -92 -13 -27 -3 -30 38 -9 25 13 32 13 73
-7 26 -12 49 -29 52 -37 3 -8 8 -20 11 -26 8 -17 -68 -54 -87 -43 -19 10 -75
4 -93 -11 -10 -8 -18 -4 -35 19 -27 39 -91 59 -129 40 -25 -12 -24 -13 28 -19
57 -6 78 -23 88 -72 l5 -28 29 24 c54 46 69 44 117 -10 l43 -49 -5 37 c-4 31
0 41 17 53 31 21 62 19 93 -8 25 -22 27 -30 26 -88 0 -35 -2 -75 -4 -89 -2
-19 2 -25 17 -26 77 -4 98 -7 80 -11 -37 -9 -40 -23 -6 -23 21 0 39 -7 49 -21
26 -31 52 -16 52 30 0 20 -4 41 -10 47 -5 5 -6 15 -2 22 6 9 17 7 45 -7 61
-31 66 -32 64 -10 -1 22 -58 72 -93 83 -16 5 -20 12 -16 31 7 37 -23 32 -37
-5 -10 -31 -33 -38 -61 -20 -13 9 -13 11 0 19 8 5 19 9 24 9 5 0 12 6 17 13
12 19 89 16 104 -5 7 -9 19 -16 28 -16 9 0 27 -26 46 -65 16 -36 34 -65 40
-65 20 0 21 20 1 55 -11 19 -20 44 -20 55 0 10 -5 22 -10 25 -7 4 -6 13 1 27
6 11 8 29 6 40 -3 10 4 45 14 76 11 31 22 65 24 75 2 10 9 32 16 50 11 30 14
32 64 32 58 0 58 -1 21 -65 -24 -39 -46 -97 -46 -120 0 -32 -21 -90 -30 -85
-6 3 -7 0 -5 -8 3 -7 -1 -30 -10 -50 -18 -45 -19 -47 -1 -47 8 0 17 11 20 25
4 16 11 23 18 19 6 -4 8 -3 5 3 -4 6 0 27 8 47 8 19 15 48 15 63 1 15 9 46 20
68 11 22 19 44 20 48 0 5 9 29 20 55 l20 47 68 0 67 0 -48 -80 c-26 -44 -52
-80 -57 -80 -4 0 -12 -4 -17 -9 -5 -5 -3 -6 5 -2 17 10 16 6 -18 -60 -31 -62
-37 -84 -20 -84 6 0 10 5 10 10 0 6 10 21 23 34 12 13 23 27 24 32 10 41 68
162 93 193 27 33 37 38 71 38 45 0 47 -3 16 -37 -27 -30 -112 -181 -110 -195
2 -10 -15 -25 -182 -148 -100 -75 -197 -173 -271 -277 l-39 -55 -6 35 c-8 49
-29 95 -50 109 -25 15 -137 16 -174 1 -16 -6 -30 -12 -31 -13 0 -1 -8 4 -17
11 -13 11 -26 11 -71 1 -72 -16 -86 -9 -86 40 0 22 -4 43 -10 46 -5 3 -10 14
-10 24 0 33 -30 80 -65 101 -19 12 -35 26 -35 31 0 5 -17 9 -37 9 -33 1 -36 2
-21 13 13 11 15 21 7 61 -5 27 -6 52 -3 57 3 5 -4 9 -15 9 -11 0 -23 5 -27 11
-11 18 -88 4 -122 -21 l-32 -24 -25 24 c-13 12 -22 26 -20 31 9 14 -16 21 -30
9 -11 -9 -15 -9 -15 -1 0 6 -9 11 -19 11 -21 0 -31 19 -31 56 0 18 -9 27 -36
39 -20 8 -38 15 -41 15 -8 0 10 -45 22 -55 7 -5 15 -25 19 -44 5 -27 3 -32
-10 -27 -8 3 -12 2 -9 -4 13 -21 -27 -22 -49 -1 -41 39 -184 61 -194 31 -2 -5
-9 -10 -17 -10 -22 0 -40 -29 -27 -42 9 -9 17 -7 32 10 29 31 48 29 42 -5 -4
-23 -2 -26 9 -15 18 17 39 15 61 -5 17 -15 18 -15 18 5 0 17 6 22 25 22 28 0
58 -41 35 -48 -22 -8 -50 -41 -50 -59 0 -16 3 -15 18 3 21 26 93 32 111 10 10
-12 9 -21 -4 -46 -13 -26 -14 -34 -4 -47 11 -13 10 -18 -6 -29 -27 -20 -51
-17 -99 11 -37 22 -48 24 -72 14 -17 -6 -52 -8 -84 -5 -62 7 -105 -12 -96 -42
5 -15 -4 -17 -74 -16 -78 2 -80 1 -80 -22 0 -27 28 -44 39 -25 9 14 55 17 88
7 23 -7 50 -67 38 -86 -3 -5 -34 -10 -69 -10 -34 0 -67 -5 -74 -12 -8 -8 -15
-8 -25 0 -19 16 -84 -5 -90 -29 -6 -23 11 -26 19 -4 4 8 13 15 22 15 19 0 52
-29 52 -45 0 -17 21 -34 36 -28 8 3 14 19 14 39 0 28 4 34 21 34 12 0 23 -8
26 -20 3 -11 12 -20 19 -20 8 0 14 -4 14 -10 0 -23 21 -8 26 19 8 37 18 41 74
27 38 -9 46 -16 55 -43 9 -32 24 -44 26 -23 1 6 2 16 3 23 1 6 -2 18 -7 25
-15 19 5 34 47 35 l37 1 -27 14 c-17 9 -41 12 -64 8 -29 -4 -44 -1 -64 15 -14
11 -26 28 -26 37 0 8 -9 26 -21 38 l-21 22 21 21 c26 26 50 27 90 4 36 -21 57
-57 53 -89 -4 -26 7 -31 26 -12 20 20 14 51 -18 89 -40 49 -17 67 45 35 35
-18 45 -33 45 -68 0 -38 17 -35 41 7 30 51 63 47 93 -12 24 -47 20 -60 -24
-91 -40 -28 -52 -52 -25 -52 8 0 15 4 15 8 0 11 56 43 86 48 14 3 34 2 45 -1
25 -8 71 -88 67 -117 -3 -24 -4 -24 -79 -12 -25 4 -50 0 -80 -14 -24 -11 -61
-23 -81 -27 -38 -7 -56 -31 -38 -49 7 -7 16 -3 30 12 25 26 19 26 64 7 25 -11
38 -23 42 -43 4 -15 9 -30 11 -34 6 -11 33 3 43 22 8 15 2 26 -25 53 -34 34
-34 36 -15 42 28 9 59 0 89 -25 20 -17 24 -30 25 -78 1 -52 -1 -57 -21 -60
-13 -2 -23 -10 -23 -19 0 -12 10 -14 59 -8 67 8 90 -1 134 -48 28 -29 28 -30
10 -48 -12 -12 -36 -19 -69 -20 -54 -3 -74 4 -74 25 0 17 -40 60 -70 76 -15 8
-41 10 -76 5 -33 -4 -54 -3 -54 3 0 5 -19 17 -42 27 -54 21 -105 12 -148 -26
l-32 -30 -22 20 c-11 11 -42 25 -69 32 -38 11 -46 17 -41 31 3 10 -2 32 -10
50 -20 40 -20 58 0 58 11 0 14 -6 9 -21 -7 -20 -4 -21 33 -14 38 6 40 5 51
-26 6 -18 11 -40 11 -50 0 -12 7 -19 18 -19 14 0 18 9 19 42 1 22 -2 49 -8 60
-13 25 5 24 42 -3 34 -24 37 -44 9 -52 -11 -3 -20 -13 -20 -22 0 -13 6 -15 33
-10 50 11 67 24 67 49 0 24 -28 55 -69 76 -31 16 -219 21 -242 7 -13 -8 -24
-8 -41 0 -13 6 -40 14 -61 17 -30 4 -42 0 -62 -18 -14 -13 -25 -29 -25 -36 0
-9 -12 -11 -40 -7 -22 3 -43 1 -46 -4 -3 -5 -14 -9 -25 -9 -13 0 -19 -7 -19
-22 1 -21 2 -21 11 -5 29 50 159 -25 159 -93 0 -25 27 -27 34 -2 9 33 -3 77
-28 97 -32 26 -16 49 36 54 42 3 82 -22 104 -65 20 -37 17 -49 -11 -64 -13 -7
-27 -21 -31 -32 -3 -10 -10 -18 -15 -18 -5 0 -9 -6 -9 -14 0 -29 -71 -34 -108
-8 -38 27 -83 40 -112 32 -35 -8 -33 -36 2 -32 39 5 81 -24 108 -74 25 -45 40
-49 40 -9 0 28 27 40 63 26 37 -14 44 -32 19 -49 -31 -20 -27 -34 5 -21 14 5
33 7 41 4 13 -5 12 -8 -4 -19 -10 -7 -35 -18 -54 -25 -19 -6 -46 -20 -60 -31
l-25 -20 62 6 62 6 6 -38 c12 -74 22 -82 43 -35 13 29 4 72 -18 86 -14 8 -3
25 16 25 8 0 36 -9 61 -21 41 -18 45 -23 41 -50 -5 -31 2 -35 32 -19 19 10 18
12 -5 57 -30 55 -29 49 -8 57 19 8 83 -11 83 -25 0 -5 7 -9 15 -9 9 0 25 -16
37 -35 11 -20 25 -34 31 -32 13 4 17 46 5 53 -12 8 -10 24 4 24 18 0 58 -42
58 -61 0 -27 -11 -49 -25 -49 -7 0 -18 -6 -25 -14 -16 -21 -53 -24 -67 -6 -22
29 -154 5 -177 -32 -15 -24 1 -34 23 -14 10 9 34 19 52 22 29 5 39 1 67 -29
24 -25 34 -45 36 -71 1 -31 -2 -36 -21 -36 -12 0 -25 -5 -29 -11 -3 -6 -15 -9
-25 -6 -10 3 -23 -1 -30 -9 -19 -23 -29 -16 -23 15 8 37 -19 89 -54 103 -15 6
-37 15 -50 21 -17 8 -28 8 -42 -1 -26 -16 -24 -17 -40 23 -20 50 -51 68 -105
59 -25 -3 -54 -14 -65 -24 -15 -13 -33 -17 -61 -15 -45 4 -56 -8 -39 -41 11
-19 10 -27 -4 -48 -23 -35 -20 -42 14 -40 26 2 30 -1 30 -23 0 -13 -4 -21 -10
-18 -6 3 -7 -1 -4 -9 3 -9 10 -13 15 -10 20 12 7 -36 -13 -51 l-23 -17 24 7
c16 5 21 4 17 -4 -4 -6 -2 -11 3 -11 13 0 14 -60 1 -80 -14 -23 -23 -4 -10 21
10 18 10 21 -2 17 -10 -4 -18 7 -27 38 -7 24 -17 44 -21 44 -5 0 -11 26 -15
58 -3 31 -8 67 -11 80 -8 39 -20 24 -19 -25 0 -27 -3 -70 -7 -96 -4 -27 -3
-60 3 -74 6 -16 6 -30 1 -35 -5 -5 -4 -32 4 -66 12 -53 12 -73 -2 -59 -4 3
-10 43 -16 89 -5 46 -14 110 -20 143 -18 99 -21 156 -9 168 8 8 11 -5 11 -47
0 -35 4 -55 10 -51 5 3 9 48 9 99 0 52 4 102 9 113 6 10 15 47 22 83 6 36 15
67 19 70 7 6 7 14 -4 48 -15 46 -34 13 -35 -63 0 -22 -7 -51 -16 -65 -14 -24
-14 -22 -8 25 17 131 124 436 179 510 12 17 37 59 55 95 65 124 125 198 187
232 18 10 35 18 38 18 12 0 55 -57 55 -72 0 -32 33 -17 44 20 5 15 1 30 -14
49 -21 26 -32 31 -77 36 -13 1 -23 4 -23 6 0 2 42 45 94 95 52 50 113 113 136
140 23 28 60 63 81 78 22 16 45 40 51 53 9 19 19 25 44 25 18 0 36 -5 39 -10z
m1775 -11 c272 -12 342 -18 357 -31 15 -12 69 -129 66 -140 -2 -4 13 -24 32
-45 20 -21 64 -78 98 -126 34 -48 72 -102 85 -119 44 -62 20 -49 -57 31 -44
44 -82 89 -86 98 -8 24 -179 147 -207 151 -16 2 -29 -6 -42 -26 -23 -35 -69
-62 -105 -62 -31 0 -62 20 -111 71 l-35 37 -30 -25 c-41 -34 -136 -96 -140
-91 -2 2 9 23 26 47 16 24 29 53 29 63 0 16 -5 19 -29 13 -16 -3 -31 -2 -34 2
-3 5 -59 8 -124 7 -65 -1 -126 3 -135 7 -10 6 -36 5 -64 -1 -40 -9 -52 -8 -88
9 -30 14 -53 18 -87 14 -60 -7 -84 14 -74 66 4 20 11 40 15 45 5 5 93 10 195
12 103 1 190 5 193 9 4 4 36 4 72 0 36 -4 162 -11 280 -16z m431 -21 c11 -21
11 -22 -4 -9 -10 7 -17 17 -17 22 0 15 9 10 21 -13z m43 -44 c9 -24 2 -26 -12
-4 -7 11 -8 20 -3 20 5 0 12 -7 15 -16z m100 -40 c3 -9 6 -33 6 -54 0 -30 -3
-38 -17 -36 -17 3 -51 50 -52 73 -1 7 6 10 14 7 8 -4 17 1 21 10 8 20 20 20
28 0z m-1211 -64 c-1 -8 -15 -53 -32 -100 -17 -47 -31 -94 -31 -104 0 -13 -3
-17 -10 -10 -8 8 -18 62 -34 191 -5 36 5 42 69 40 29 -2 40 -6 38 -17z m486
-16 c1 -1 -9 -19 -24 -38 -15 -20 -25 -42 -22 -50 4 -9 -6 -22 -26 -34 -18
-11 -52 -35 -76 -53 -35 -26 -41 -29 -32 -11 6 11 15 23 20 27 5 3 12 18 15
33 4 15 22 47 41 71 19 24 35 50 35 57 0 10 9 12 33 7 17 -3 34 -7 36 -9z
m819 -50 c38 -76 25 -77 -18 -1 -31 54 -35 67 -22 67 4 0 22 -30 40 -66z
m-2758 32 c0 -2 -7 -9 -15 -16 -13 -11 -14 -10 -9 4 5 14 24 23 24 12z m2394
-43 c-6 -9 -37 -32 -70 -50 -52 -30 -66 -33 -114 -30 -30 2 -63 8 -72 12 -12
5 -20 2 -25 -11 -3 -9 -15 -26 -26 -37 -10 -10 -25 -33 -32 -51 -16 -39 -60
-93 -161 -199 -41 -43 -74 -85 -74 -93 0 -8 -9 -14 -20 -14 -11 0 -20 -4 -20
-10 0 -5 -14 -17 -32 -26 -41 -21 -111 -91 -106 -106 7 -19 25 -20 43 -2 14
14 22 15 53 6 20 -7 64 -16 96 -22 71 -12 91 -26 24 -16 -29 4 -49 3 -53 -4
-3 -5 -24 -10 -45 -10 -21 0 -42 -4 -45 -10 -9 -15 -25 -12 -25 5 0 13 -6 12
-36 -4 -23 -12 -47 -18 -63 -15 -29 6 -33 3 -133 -102 -42 -45 -65 -83 -83
-139 -6 -19 -8 -19 -29 8 -26 32 -36 34 -36 7 0 -11 16 -37 35 -59 39 -43 43
-53 18 -44 -16 6 -16 5 -4 -10 7 -9 17 -14 22 -11 5 3 14 2 20 -2 8 -4 7 -9
-2 -15 -11 -7 -10 -9 4 -9 10 0 25 -7 34 -15 14 -14 13 -15 -9 -10 -27 7 -58
-15 -58 -40 0 -21 -19 -28 -36 -14 -12 10 -12 14 -2 20 10 7 11 12 1 29 -7 11
-13 27 -13 35 0 8 -7 15 -15 15 -8 0 -15 -7 -15 -15 0 -8 -7 -15 -16 -15 -10
0 -14 -6 -10 -15 8 -21 -11 -19 -23 3 -9 15 -14 12 -47 -27 -21 -24 -46 -59
-55 -76 l-18 -33 40 -6 c43 -7 89 1 89 15 0 5 -15 9 -32 9 -18 0 -40 4 -48 10
-11 7 -9 11 13 19 15 6 27 14 27 19 0 5 14 7 30 4 28 -4 31 -7 29 -41 -1 -20
2 -44 6 -54 7 -18 1 -18 -132 -13 l-140 6 -37 -34 c-31 -28 -39 -45 -49 -95
-6 -33 -15 -61 -18 -61 -15 0 -16 30 -4 96 22 116 35 157 60 190 13 17 27 43
31 58 4 16 12 25 19 22 14 -5 40 46 38 76 -1 11 3 16 9 12 7 -5 9 0 6 14 -4
12 -2 20 2 17 5 -3 14 8 21 24 7 16 17 27 21 25 4 -3 5 2 2 10 -10 25 53 129
116 191 34 33 70 80 81 104 11 25 44 69 74 98 31 30 53 59 50 64 -4 5 0 6 7 4
8 -3 25 6 38 20 15 16 19 25 10 25 -9 0 -5 9 10 25 24 26 47 34 34 13 -8 -12
51 26 74 49 7 7 46 31 85 53 89 51 82 47 153 96 79 55 162 96 177 87 17 -10
47 -11 47 -1 0 4 6 8 14 8 7 0 19 6 25 13 8 11 6 18 -9 32 -20 18 -28 55 -12
55 5 0 21 -13 37 -30 35 -37 84 -60 125 -60 38 0 116 52 124 83 5 21 6 21 23
4 13 -13 15 -21 7 -34z m-2434 4 c0 -2 -15 -16 -32 -33 l-33 -29 29 33 c28 30
36 37 36 29z m2493 -4 c3 -5 -5 -16 -18 -25 -21 -16 -22 -16 -17 8 4 23 25 33
35 17z m-1234 -48 c6 -3 11 -13 11 -21 0 -8 6 -14 13 -15 6 0 -1 -7 -18 -14
-16 -8 -24 -14 -17 -15 21 0 13 -20 -13 -32 -13 -6 -22 -14 -20 -19 12 -18
-17 -18 -37 0 -12 12 -27 21 -34 21 -6 0 -19 11 -28 25 -9 14 -12 25 -6 25 5
0 10 6 10 13 0 32 102 56 139 32z m1243 -12 c7 -25 -1 -43 -18 -43 -8 0 -14
-3 -14 -8 0 -10 -95 -52 -133 -59 -36 -5 -69 18 -46 33 8 5 9 3 4 -6 -6 -9 -1
-10 16 -6 68 19 107 40 134 70 34 39 51 44 57 19z m-84 -12 c-7 -11 -16 -17
-21 -14 -4 3 0 11 10 19 24 18 25 17 11 -5z m-2488 -5 c0 -2 -7 -7 -16 -10 -8
-3 -12 -2 -9 4 6 10 25 14 25 6z m450 -41 c7 -8 10 -25 6 -40 -8 -31 -38 -33
-73 -5 -14 11 -32 20 -39 20 -20 0 -17 28 4 33 39 10 90 6 102 -8z m221 5 c10
-6 19 -18 19 -26 0 -13 -2 -13 -22 0 -12 9 -33 16 -45 16 -13 0 -23 5 -23 10
0 13 46 13 71 0z m779 -12 c0 -18 -2 -20 -9 -8 -6 8 -7 18 -5 22 9 14 14 9 14
-14z m1465 12 c12 10 15 7 20 -17 3 -15 15 -47 26 -71 10 -23 19 -49 19 -56 0
-8 4 -16 8 -18 10 -4 93 -210 87 -216 -2 -3 -19 26 -38 64 -29 61 -91 173
-136 244 -8 14 -14 30 -13 37 1 6 -2 14 -8 18 -5 3 -10 11 -10 17 0 7 6 6 15
-2 12 -10 18 -10 30 0z m-2945 -30 c0 -5 -5 -10 -11 -10 -5 0 -7 5 -4 10 3 6
8 10 11 10 2 0 4 -4 4 -10z m675 -12 c14 -6 28 -23 31 -37 3 -14 7 -31 9 -37
4 -12 -14 -34 -26 -34 -4 0 -11 10 -14 23 -4 12 -18 36 -31 53 -31 43 -19 55
31 32z m2399 -49 c10 -17 14 -29 8 -26 -5 4 -20 24 -32 44 -12 20 -16 32 -8
26 7 -6 22 -26 32 -44z m-2467 9 c13 -12 23 -27 23 -35 0 -7 5 -13 11 -13 6 0
9 -10 7 -22 -2 -14 -9 -22 -18 -19 -8 2 -28 4 -45 5 -22 1 -33 8 -43 29 -7 15
-17 27 -23 27 -5 0 -9 9 -9 20 0 11 5 20 10 20 6 0 10 -7 10 -15 0 -22 17 -18
23 5 7 26 25 25 54 -2z m2208 -28 c16 -17 16 -20 3 -15 -9 4 -19 13 -22 21 -7
19 -2 18 19 -6z m-2325 -35 c0 -8 4 -15 9 -15 5 0 11 -18 15 -39 8 -53 22 -59
44 -21 16 29 20 31 57 25 22 -3 42 -10 43 -15 2 -6 10 -10 17 -10 19 0 23 -30
10 -70 -9 -26 -23 -40 -56 -57 -43 -21 -100 -33 -70 -14 17 11 6 17 -46 26
-41 6 -43 9 -43 40 0 52 -17 85 -48 96 -29 10 -40 39 -15 39 7 0 13 -4 13 -10
0 -19 17 -10 28 15 13 27 42 34 42 10z m2646 -57 c31 -62 74 -170 74 -186 0
-9 -42 43 -55 68 -7 14 -20 52 -30 85 -9 33 -21 70 -26 83 -18 47 2 19 37 -50z
m-2328 37 c38 -29 53 -48 50 -63 -2 -11 -11 -16 -26 -14 -12 2 -38 -2 -57 -8
-33 -11 -37 -10 -66 19 -33 33 -35 62 -6 67 11 1 22 5 25 9 9 9 65 2 80 -10z
m482 -55 c0 -5 -4 -10 -10 -10 -5 0 -10 5 -10 10 0 6 5 10 10 10 6 0 10 -4 10
-10z m1340 -30 c0 -5 -2 -10 -4 -10 -3 0 -8 5 -11 10 -3 6 -1 10 4 10 6 0 11
-4 11 -10z m66 -15 c0 -14 -7 -25 -14 -25 -7 0 -11 3 -9 8 2 4 7 15 10 25 9
25 15 21 13 -8z m-1836 -26 c4 -15 13 -24 25 -24 14 0 20 -7 20 -24 0 -19 -8
-27 -35 -37 -39 -14 -39 -15 8 -19 18 -1 41 -10 51 -19 10 -9 25 -16 34 -16
19 0 43 -39 30 -49 -12 -10 -71 -28 -118 -36 -21 -4 -52 -14 -68 -22 -28 -14
-31 -14 -54 11 -33 36 -72 54 -110 51 -23 -2 -33 2 -36 16 -3 10 -2 21 1 24 3
3 6 18 7 33 0 25 3 27 52 30 56 3 61 0 117 -71 32 -40 47 -42 26 -2 -12 22
-11 27 6 40 18 14 17 14 -11 15 -18 1 -44 13 -65 31 l-35 29 31 28 c16 15 39
32 49 38 29 16 68 2 75 -27z m1220 -54 c0 -5 -5 -3 -10 5 -5 8 -10 20 -10 25
0 6 5 3 10 -5 5 -8 10 -19 10 -25z m325 -15 c-1 -27 -7 -45 -20 -56 -11 -8
-14 -12 -6 -8 8 4 55 7 105 6 73 -1 93 -4 103 -18 7 -9 29 -20 50 -24 37 -8
37 -8 -13 -9 -112 -2 -255 -114 -259 -201 -3 -46 -19 -131 -26 -135 -12 -8
-48 17 -55 38 -3 9 -10 15 -15 12 -5 -4 -9 -2 -9 4 0 5 5 13 10 16 6 3 10 28
10 56 0 48 -1 49 -22 37 -32 -18 -36 -26 -36 -65 0 -32 -16 -63 -33 -63 -4 0
-15 18 -25 40 -10 22 -25 40 -33 40 -12 0 -12 3 -3 12 22 22 14 48 -13 48 -19
0 -25 5 -23 17 2 10 -2 18 -9 18 -7 0 -18 6 -24 13 -10 10 -8 12 10 12 14 0
25 7 28 20 6 22 23 28 23 8 0 -9 3 -9 11 -1 6 6 17 9 24 7 6 -3 18 2 25 11 7
8 19 15 26 15 8 0 14 5 14 11 0 7 -10 5 -25 -5 -31 -21 -35 -20 -35 4 0 11 -7
20 -15 20 -18 0 -20 16 -2 23 6 3 -6 6 -28 6 -50 1 -36 14 35 31 72 17 133 22
125 10 -10 -16 4 -11 38 13 18 12 38 23 45 23 33 2 37 4 23 13 -12 8 -12 11 0
25 21 23 25 20 24 -24z m55 25 c0 -8 -5 -15 -11 -15 -5 0 -7 -4 -4 -10 3 -5 2
-10 -3 -10 -11 0 -23 36 -14 44 11 12 32 6 32 -9z m245 5 c3 -5 -1 -10 -10
-10 -9 0 -13 5 -10 10 3 6 8 10 10 10 2 0 7 -4 10 -10z m-542 -20 c3 -11 1
-20 -4 -20 -5 0 -9 9 -9 20 0 11 2 20 4 20 2 0 6 -9 9 -20z m-121 -2 c-9 -9
-15 -9 -24 0 -9 9 -7 12 12 12 19 0 21 -3 12 -12z m513 -8 c3 -5 -1 -10 -10
-10 -9 0 -13 5 -10 10 3 6 8 10 10 10 2 0 7 -4 10 -10z m-1274 -72 c62 -49 97
-127 55 -128 -10 0 -45 -65 -47 -86 0 -5 -13 -20 -30 -32 l-30 -24 7 44 c3 23
8 49 10 57 2 7 -7 33 -21 57 -14 23 -25 50 -25 59 0 9 -11 27 -25 41 -32 32
-25 44 25 44 28 0 50 -9 81 -32z m-179 10 c27 -8 40 -18 44 -35 8 -29 8 -29
-43 -37 -39 -6 -42 -4 -62 30 -12 19 -21 39 -21 45 0 12 35 11 82 -3z m1746
-15 c4 -6 19 -16 34 -22 18 -7 35 -29 56 -73 42 -91 65 -165 58 -193 -3 -13
-1 -27 4 -30 8 -5 8 -11 0 -20 -7 -9 -8 -15 -1 -20 24 -14 -6 -105 -34 -105
-8 0 -15 -5 -15 -12 0 -6 -3 -8 -6 -5 -4 3 1 23 10 42 10 20 15 44 11 53 -5
13 -10 6 -21 -26 -8 -23 -30 -68 -49 -100 -19 -31 -35 -69 -35 -84 0 -15 -4
-30 -10 -33 -5 -3 -10 -19 -10 -35 0 -16 -5 -32 -11 -35 -13 -9 -15 -6 -23 31
-5 23 -1 39 18 66 13 20 22 38 20 41 -2 2 5 25 17 52 28 63 69 212 68 250 0
17 -9 46 -19 65 -11 19 -24 47 -31 63 -6 15 -17 27 -24 27 -7 0 -25 20 -39 45
-15 25 -31 45 -36 45 -5 0 -7 6 -5 13 7 15 63 16 73 0z m-93 -13 c3 -5 1 -10
-4 -10 -6 0 -11 5 -11 10 0 6 2 10 4 10 3 0 8 -4 11 -10z m-27 -34 c31 -16 70
-56 55 -56 -6 0 -16 7 -23 15 -7 8 -16 15 -21 15 -21 0 -59 21 -54 30 8 13 11
13 43 -4z m446 -34 c22 -27 43 -69 55 -110 24 -81 34 -179 19 -188 -7 -4 -5
-10 5 -16 10 -5 14 -15 10 -25 -4 -11 -2 -14 5 -9 10 6 13 -2 26 -86 3 -15 7
-32 10 -36 19 -31 22 -256 5 -372 -13 -87 -16 -133 -8 -145 10 -15 -7 -142
-29 -220 l-21 -70 5 85 c3 47 9 97 14 112 5 15 7 62 5 105 -3 43 -7 148 -10
233 -3 99 -10 175 -21 210 -9 30 -20 105 -24 166 -5 61 -13 129 -19 150 -15
54 -14 124 2 125 6 0 2 4 -10 9 -23 9 -32 40 -13 40 6 0 10 5 10 11 0 6 -8 8
-18 5 -14 -5 -21 2 -30 27 -12 33 -16 54 -8 46 2 -2 20 -23 40 -47z m-2482 8
c10 0 18 -5 18 -11 0 -7 7 -17 16 -23 8 -7 24 -31 34 -54 20 -45 16 -54 -29
-57 -14 -1 -48 -6 -75 -10 l-49 -8 5 39 c3 21 1 50 -4 63 -5 13 -6 31 -3 41 7
22 47 41 60 29 5 -5 17 -9 27 -9z m344 -16 c30 -20 56 -67 48 -88 -4 -11 -14
-13 -33 -10 -21 5 -35 -1 -56 -20 -15 -14 -34 -26 -41 -26 -8 0 -14 -4 -14
-10 0 -5 7 -10 16 -10 31 0 6 -25 -32 -32 -46 -8 -74 -2 -74 16 0 7 -11 18
-24 26 -28 15 -37 41 -29 84 6 33 38 65 63 66 8 0 31 -16 50 -36 33 -34 34
-35 42 -14 4 12 5 26 2 31 -22 36 37 52 82 23z m1633 4 c20 -7 38 -15 41 -18
3 -3 18 -14 33 -24 23 -14 28 -22 22 -43 -4 -18 -1 -29 12 -40 13 -10 15 -16
6 -19 -8 -3 -13 -23 -13 -46 0 -52 -7 -46 -14 11 -3 24 -14 54 -26 66 -11 12
-18 23 -16 26 3 2 -33 6 -78 7 l-84 3 -31 -39 c-25 -32 -31 -50 -33 -97 -2
-54 -1 -58 32 -86 19 -16 42 -29 51 -29 9 0 23 -7 30 -17 13 -15 11 -16 -13
-9 -22 5 -28 3 -28 -9 0 -10 -5 -13 -12 -9 -8 5 -9 2 -5 -9 8 -21 0 -21 -49
-1 -71 29 -124 94 -124 152 0 157 158 279 299 230z m-1493 -35 c33 -35 36 -42
31 -82 -3 -30 0 -49 9 -58 15 -15 9 -42 -14 -60 -9 -7 -12 -13 -8 -13 4 0 -2
-13 -14 -30 -18 -25 -64 -119 -115 -235 -34 -78 -57 -155 -65 -224 -7 -51 -15
-80 -27 -88 -20 -15 -57 -17 -48 -3 3 6 -1 10 -9 10 -9 0 -16 -6 -16 -12 -1
-7 -8 -1 -16 15 -8 15 -19 27 -25 27 -6 0 -7 5 -4 10 9 15 23 12 42 -10 13
-14 19 -16 25 -7 15 24 7 66 -19 97 -25 30 -25 33 -10 45 21 15 21 35 3 80 -8
18 -11 36 -8 38 4 2 2 3 -3 1 -6 -1 -20 5 -30 13 -17 12 -18 15 -5 23 43 28
97 -20 102 -90 l3 -45 18 40 c12 27 17 52 13 76 -7 46 11 100 32 97 10 -2 21
14 34 55 12 33 25 57 34 57 17 0 18 37 3 77 -11 31 -55 73 -76 73 -24 0 -13
28 13 33 42 8 100 -38 108 -85 7 -44 19 -54 40 -32 24 23 19 49 -13 82 -30 30
-35 42 -45 120 -8 54 10 56 60 5z m2173 -192 c24 -101 38 -236 23 -211 -5 8
-15 49 -21 90 -10 63 -38 186 -66 290 -4 14 4 2 18 -26 13 -28 34 -92 46 -143z
m-535 78 c9 -46 7 -84 -5 -116 -8 -22 -12 -24 -19 -13 -7 10 -5 19 5 26 20 15
19 54 0 54 -8 0 -15 7 -15 15 0 8 6 12 15 9 11 -5 12 0 5 25 -5 17 -5 31 -1
31 5 0 11 -14 15 -31z m-1976 -66 c11 -70 21 -78 51 -42 25 31 75 18 96 -23 8
-17 15 -35 15 -40 0 -13 -54 -10 -68 4 -7 7 -26 13 -42 14 -35 2 -120 42 -120
56 0 6 -14 27 -32 46 l-31 36 24 7 c30 8 103 -31 107 -58z m2029 -30 c-2 -16
-4 -5 -4 22 0 28 2 40 4 28 2 -13 2 -35 0 -50z m-1847 42 c7 -9 10 -18 7 -22
-8 -7 -37 15 -37 28 0 14 16 11 30 -6z m-918 -29 c31 -28 75 -103 66 -112 -2
-1 -28 -12 -58 -23 -68 -26 -100 -27 -100 -3 0 9 -6 27 -13 38 -46 79 -48 84
-37 103 5 11 20 22 32 24 56 11 74 6 110 -27z m251 22 c17 -13 14 -58 -4 -58
-5 0 -14 -11 -19 -24 -7 -18 -19 -27 -47 -32 -21 -3 -48 -12 -60 -20 -30 -19
-36 -18 -23 6 7 14 8 26 0 39 -16 30 -12 46 16 75 21 21 36 26 73 26 26 0 55
-6 64 -12z m159 -47 c30 -27 31 -51 4 -51 -8 0 -20 7 -27 16 -7 9 -23 20 -36
25 -13 5 -23 15 -23 24 0 25 48 17 82 -14z m2605 -8 c-3 -10 -5 -4 -5 12 0 17
2 24 5 18 2 -7 2 -21 0 -30z m-3561 -51 c-12 -12 -18 8 -10 35 l8 28 4 -28 c2
-16 1 -31 -2 -35z m3184 38 c0 -5 -5 -10 -11 -10 -5 0 -7 5 -4 10 3 6 8 10 11
10 2 0 4 -4 4 -10z m-1946 -47 c-21 -16 -41 -17 -49 -3 -3 6 0 10 8 10 8 0 18
7 21 16 5 14 9 14 22 3 14 -12 14 -14 -2 -26z m-394 17 c0 -5 -7 -10 -15 -10
-8 0 -15 5 -15 10 0 6 7 10 15 10 8 0 15 -4 15 -10z m76 -20 c28 -28 38 -42
51 -72 22 -50 53 -27 33 23 -15 34 -7 48 15 29 8 -7 15 -9 15 -4 0 4 9 -2 20
-14 12 -13 20 -35 20 -58 0 -33 2 -36 23 -29 12 4 29 7 38 8 21 2 18 39 -3 55
-24 18 -23 42 1 35 12 -3 24 -23 35 -55 22 -70 20 -83 -16 -107 -29 -18 -34
-19 -44 -6 -6 8 -16 15 -22 15 -6 0 -12 4 -14 10 -6 19 -104 14 -149 -8 -51
-25 -75 -17 -84 31 -9 45 -66 87 -119 87 l-40 0 21 22 c44 43 183 10 183 -43
0 -27 18 -32 30 -9 12 22 3 47 -24 70 -19 15 -21 40 -3 40 7 0 22 -9 33 -20z
m-929 -37 c-3 -10 -5 -4 -5 12 0 17 2 24 5 18 2 -7 2 -21 0 -30z m1273 -13 c0
-5 -4 -10 -10 -10 -5 0 -10 5 -10 10 0 6 5 10 10 10 6 0 10 -4 10 -10z m110
-20 c0 -5 -4 -10 -10 -10 -5 0 -10 5 -10 10 0 6 5 10 10 10 6 0 10 -4 10 -10z
m2026 -70 c-14 -14 -26 -44 -30 -70 -8 -51 -27 -110 -36 -110 -4 0 -6 20 -6
44 1 50 -8 52 -19 4 l-9 -33 -3 32 c-5 40 15 83 28 62 6 -10 9 -8 9 10 0 13
14 46 31 73 29 44 33 47 45 31 11 -15 9 -22 -10 -43z m-2152 15 c-4 -8 -8 -15
-10 -15 -2 0 -4 7 -4 15 0 8 4 15 10 15 5 0 7 -7 4 -15z m993 -1 c-3 -3 -12
-4 -19 -1 -8 3 -5 6 6 6 11 1 17 -2 13 -5z m58 -14 c3 -6 -1 -7 -9 -4 -18 7
-21 14 -7 14 6 0 13 -4 16 -10z m-175 -63 c0 -9 -85 -47 -107 -47 -8 0 -21 7
-29 15 -14 13 -13 15 3 17 10 0 26 0 36 0 14 -2 17 3 12 18 -4 11 -2 20 4 20
6 0 11 7 11 15 0 12 7 11 35 -7 19 -13 35 -27 35 -31z m43 26 c-4 -10 -9 -11
-19 -2 -18 15 -18 15 5 15 11 0 17 -5 14 -13z m100 5 c9 -7 13 -18 9 -23 -21
-30 -234 -175 -257 -175 -6 0 -44 -11 -85 -24 -133 -42 -391 -79 -404 -57 -10
16 16 82 41 105 25 24 27 24 199 20 96 -3 174 -1 174 4 0 4 26 16 58 27 79 26
139 57 192 98 52 41 51 41 73 25z m-2296 -65 c-3 -10 -5 -2 -5 17 0 19 2 27 5
18 2 -10 2 -26 0 -35z m1082 27 c10 -5 4 -14 -23 -35 -20 -15 -36 -34 -36 -41
0 -18 5 -18 37 3 39 26 136 27 158 2 15 -15 15 -21 5 -34 -7 -8 -17 -15 -22
-15 -5 0 -19 -9 -30 -20 -28 -26 -11 -49 24 -33 41 19 79 33 89 33 11 0 69
-54 69 -64 0 -4 -10 -11 -22 -15 -17 -7 -32 -4 -56 10 -35 20 -107 26 -117 9
-11 -18 -25 -10 -25 15 0 27 -33 63 -66 71 -30 8 -95 -11 -137 -40 -27 -19
-37 -21 -41 -11 -3 8 -28 17 -63 20 -57 7 -59 8 -76 49 -9 23 -17 46 -17 51 0
18 46 32 94 29 52 -3 80 -27 90 -76 4 -20 12 -28 27 -28 19 0 21 4 16 38 -3
20 -8 46 -12 58 -5 17 -1 22 27 31 33 10 80 7 107 -7z m-749 -23 c0 -7 7 -25
15 -41 9 -16 13 -36 11 -43 -7 -17 -31 -17 -48 0 -27 28 -68 49 -83 43 -16 -6
-19 3 -9 28 3 9 12 16 19 16 7 0 18 6 24 14 10 11 19 12 42 4 16 -5 29 -15 29
-21z m2032 -32 c2 -11 -9 -37 -24 -58 -14 -21 -41 -82 -58 -135 -40 -119 -77
-194 -140 -281 -47 -64 -152 -170 -219 -221 -19 -14 -50 -39 -70 -56 -20 -17
-56 -44 -81 -61 -55 -37 -245 -133 -263 -133 -7 0 -41 -11 -75 -25 -34 -14
-68 -25 -75 -25 -8 0 -22 15 -32 33 -36 67 -1 233 47 218 26 -8 94 0 184 23
130 33 274 120 410 249 125 119 227 247 197 247 -6 0 -15 -10 -20 -23 -16 -34
-164 -188 -252 -261 -81 -67 -253 -176 -280 -176 -9 0 -54 -12 -100 -25 -47
-14 -90 -25 -96 -25 -17 0 -47 81 -41 112 12 59 48 128 67 128 11 0 19 5 19
10 0 6 24 10 53 10 61 0 204 38 285 75 81 38 209 126 264 182 26 26 71 68 101
93 55 45 101 98 60 69 -27 -20 -128 -107 -177 -154 -135 -128 -321 -220 -497
-244 -75 -10 -99 0 -99 42 0 61 23 120 61 157 36 35 44 38 121 44 198 17 424
75 489 127 19 15 47 33 62 40 15 7 27 16 27 21 0 4 6 8 13 8 11 0 51 29 87 63
13 12 17 11 32 -7 9 -12 18 -30 20 -41z m-1032 0 c11 -14 10 -19 -7 -37 -27
-27 -52 -18 -46 15 3 14 0 28 -6 31 -6 4 -11 14 -11 22 0 13 3 13 28 0 16 -8
35 -22 42 -31z m664 20 c5 -15 -4 -22 -61 -39 -17 -5 -23 -3 -23 8 0 8 -3 21
-6 30 -5 13 2 16 39 16 31 0 47 -5 51 -15z m426 5 c0 -5 -7 -10 -16 -10 -8 0
-12 5 -9 10 3 6 10 10 16 10 5 0 9 -4 9 -10z m-2263 -6 c-3 -3 -12 -4 -19 -1
-8 3 -5 6 6 6 11 1 17 -2 13 -5z m-153 -234 l6 -65 -14 40 c-9 25 -14 78 -14
140 l1 100 7 -75 c4 -41 10 -104 14 -140z m524 131 c2 -11 0 -21 -4 -21 -13 0
-44 33 -44 46 0 22 45 -1 48 -25z m1867 29 c3 -5 -1 -10 -10 -10 -9 0 -13 5
-10 10 3 6 8 10 10 10 2 0 7 -4 10 -10z m-2125 -34 c1 -6 10 -22 20 -35 17
-19 23 -21 35 -11 8 7 15 18 15 25 0 21 65 27 105 11 35 -15 41 -23 47 -60 4
-25 -47 -32 -57 -8 -6 15 -8 14 -16 -6 -7 -19 -12 -21 -28 -12 -14 7 -22 7
-27 -2 -4 -6 -2 -14 4 -16 16 -5 15 -22 0 -22 -7 0 -26 -11 -42 -23 -35 -28
-28 -52 13 -42 36 9 21 -4 -18 -15 -24 -7 -31 -6 -31 5 0 8 -5 17 -11 21 -7 4
-9 0 -5 -13 4 -13 0 -25 -11 -34 -15 -13 -16 -12 -11 9 5 18 3 22 -11 17 -15
-4 -20 4 -29 47 -6 29 -13 84 -16 121 -3 55 -1 67 10 63 8 -3 14 -1 14 4 0 13
50 -11 50 -24z m2132 -16 c18 -11 26 -20 18 -21 -8 0 -1 -7 16 -14 17 -8 45
-28 64 -45 25 -23 35 -28 41 -18 6 9 9 10 9 1 0 -16 -37 -36 -52 -27 -22 14
-62 12 -73 -3 -10 -14 -13 -14 -21 -2 -4 8 -10 23 -11 34 -4 23 -34 49 -44 38
-4 -5 -10 -19 -14 -33 -7 -23 -7 -24 10 -10 17 13 18 13 13 -1 -3 -9 -2 -22 3
-30 7 -11 9 -10 9 6 1 17 2 17 11 -4 6 -16 6 -28 -1 -35 -12 -12 -13 -27 -2
-25 20 3 32 -3 32 -17 0 -9 9 -18 19 -21 17 -4 18 -9 10 -31 -5 -14 -8 -35 -7
-46 2 -16 -3 -22 -23 -24 -33 -4 -59 39 -41 68 7 11 12 22 12 24 0 8 -31 36
-40 36 -13 0 -41 -56 -33 -64 4 -3 1 -6 -6 -6 -22 0 -40 -60 -28 -94 17 -50
43 -66 108 -66 32 0 61 5 64 10 4 6 -11 10 -37 10 -48 0 -83 19 -91 50 -6 24
9 36 27 21 7 -6 33 -15 57 -20 104 -23 139 -33 139 -42 0 -5 -4 -9 -8 -9 -15
0 -32 -72 -22 -91 13 -23 -1 -32 -35 -23 -15 4 -25 2 -25 -5 0 -6 7 -11 16
-11 8 0 12 -4 9 -10 -4 -6 -16 -4 -31 6 -17 12 -24 25 -24 50 0 41 -14 51 -37
24 -13 -15 -29 -20 -65 -20 -56 0 -76 16 -84 71 -4 21 -11 39 -16 39 -6 0 0 9
13 20 22 18 17 26 -14 21 -5 -1 6 24 23 56 28 52 86 193 95 233 2 8 6 27 10
43 6 32 14 33 57 7z m-1362 -37 c17 -14 30 -36 30 -48 0 -21 17 -45 32 -45 4
0 23 14 43 31 35 31 37 32 77 18 40 -13 40 -13 35 -57 -5 -48 -18 -66 -56 -77
-20 -6 -23 -4 -18 9 4 10 3 15 -2 12 -5 -3 -16 5 -25 18 -13 20 -27 26 -82 32
-45 4 -73 3 -86 -5 -10 -6 -35 -11 -55 -11 -21 0 -51 -7 -68 -16 -25 -13 -36
-13 -67 -3 -25 8 -45 9 -65 2 -22 -8 -34 -7 -48 3 -10 8 -29 14 -42 14 -14 0
-23 6 -23 15 0 11 11 15 40 15 22 0 40 5 40 10 0 6 -5 10 -10 10 -6 0 -5 6 2
14 15 16 52 3 79 -26 19 -21 55 -24 62 -5 2 6 -2 25 -10 40 -18 35 -14 41 19
28 19 -7 27 -20 32 -46 6 -30 11 -36 29 -33 18 2 22 9 22 43 0 42 7 54 40 73
30 17 42 15 75 -15z m-1190 -175 c11 -29 17 -35 27 -27 9 8 14 8 17 -2 9 -30
25 -106 31 -144 5 -37 4 -39 -10 -21 -14 19 -15 18 -16 -15 l-1 -34 -13 31
c-16 37 -75 321 -74 355 1 13 7 -5 13 -41 7 -36 19 -82 26 -102z m3812 84 c9
-34 -3 -81 -23 -87 -10 -4 -19 -13 -19 -21 0 -8 -2 -14 -5 -14 -9 0 -50 25
-57 35 -11 15 -10 37 2 30 5 -3 7 0 4 8 -4 10 6 16 36 21 35 5 40 9 35 26 -4
14 -2 20 8 20 8 0 17 -8 19 -18z m-3108 -29 c14 -15 21 -30 16 -33 -5 -3 -5
-11 0 -20 6 -8 10 -27 10 -41 0 -38 9 -41 39 -13 15 14 27 20 30 13 2 -6 -2
-15 -9 -19 -10 -6 -6 -15 15 -36 27 -27 29 -27 36 -9 6 17 8 16 8 -7 l1 -28
-80 0 c-80 0 -80 0 -74 24 4 17 0 30 -14 44 -11 11 -18 23 -15 26 3 3 -1 22
-9 43 -9 21 -13 44 -10 52 2 8 0 11 -6 8 -5 -4 -15 0 -22 8 -11 13 -7 15 23
15 26 0 43 -7 61 -27z m2256 17 c19 -6 57 -12 85 -15 32 -3 54 -10 63 -22 7
-10 9 -19 5 -20 -4 0 -20 -4 -35 -7 -19 -4 -28 -13 -28 -26 0 -25 -16 -34 -24
-14 -5 13 -9 14 -21 4 -8 -7 -12 -16 -9 -21 3 -5 -9 -9 -26 -9 -17 0 -29 4
-25 9 3 5 1 12 -4 16 -6 3 -7 15 -1 29 6 16 5 27 -3 35 -9 9 -8 14 3 21 9 6
10 10 3 10 -6 0 -15 -5 -18 -10 -4 -7 -12 -7 -25 0 -10 5 -26 7 -34 4 -9 -4
-16 -1 -16 6 0 9 10 11 30 6 19 -3 29 -2 25 4 -8 13 11 13 55 0z m-280 -10
c-19 -13 -30 -13 -30 0 0 6 10 10 23 10 18 0 19 -2 7 -10z m937 -6 c-3 -3 -12
-4 -19 -1 -8 3 -5 6 6 6 11 1 17 -2 13 -5z m-2019 -35 c-18 -24 -23 -45 -24
-95 -1 -51 -5 -69 -22 -87 -35 -37 -55 -97 -56 -170 -1 -51 -5 -71 -17 -77
-12 -7 -19 -1 -32 25 -11 23 -24 35 -37 35 -30 0 -100 23 -100 34 0 4 7 6 15
2 8 -3 15 -1 15 4 0 18 67 10 93 -10 32 -26 37 -25 37 4 0 16 -12 31 -40 50
-59 39 -93 43 -119 15 -11 -12 -21 -27 -21 -32 0 -21 -34 -35 -60 -25 -39 15
-100 11 -121 -8 -11 -10 -19 -12 -19 -5 0 6 -16 19 -35 28 -33 16 -46 33 -25
33 16 0 12 57 -5 74 -14 14 -14 18 1 41 20 31 36 31 81 4 39 -25 39 -39 -3
-52 -37 -12 -54 -26 -54 -43 0 -18 31 -18 56 1 22 16 64 20 64 5 0 -5 10 -10
23 -10 12 0 30 -7 40 -15 26 -19 50 -8 43 20 -5 19 -2 22 13 18 10 -3 22 0 25
6 4 6 24 11 44 11 28 0 33 -3 22 -10 -12 -8 -11 -10 8 -10 12 0 22 -6 22 -12
0 -9 3 -10 8 -2 4 6 14 14 22 18 8 3 5 4 -7 2 -13 -2 -23 -1 -23 4 0 15 31 20
52 9 16 -8 23 -8 29 2 18 28 6 53 -31 68 -24 9 -24 10 18 28 37 16 42 21 37
43 -4 14 -11 27 -16 28 -5 2 -9 14 -9 28 0 16 -4 22 -14 18 -8 -3 -17 0 -22 7
-5 9 -2 11 8 6 9 -3 19 -3 22 1 4 3 26 5 50 3 24 -1 47 2 51 8 3 6 13 11 21
11 11 0 9 -7 -8 -31z m1614 11 c28 -8 44 -8 60 1 21 11 22 11 9 -4 -12 -15
-10 -17 18 -17 48 0 37 -18 -15 -22 -25 -2 -48 -1 -50 1 -3 3 -16 5 -31 6 -17
0 -28 7 -34 23 -10 25 -8 26 43 12z m320 -17 c-5 -10 -14 -31 -18 -47 -10 -31
-32 -39 -86 -29 -20 4 -28 12 -28 25 0 14 5 18 15 14 13 -5 13 -2 -1 18 -13
21 -6 45 9 29 13 -13 97 -8 102 6 3 8 8 11 11 8 3 -3 1 -13 -4 -24z m108 -19
c-9 -23 -13 -25 -20 -14 -14 21 -12 30 5 30 8 0 15 8 16 18 0 9 3 12 5 6 3 -6
0 -24 -6 -40z m-2420 15 c0 -5 6 -9 13 -9 8 0 21 -8 30 -18 16 -17 14 -18 -21
-14 -20 3 -45 13 -55 23 -10 11 -23 19 -30 20 -7 0 -3 4 8 8 23 9 55 3 55 -10z
m2374 -5 c5 -14 4 -15 -9 -4 -17 14 -19 20 -6 20 5 0 12 -7 15 -16z m-2477
-30 c47 -36 33 -60 -41 -66 -32 -3 -61 -11 -71 -21 -30 -30 -55 -39 -96 -32
-34 6 -38 9 -29 25 11 20 4 50 -14 62 -7 5 -7 8 2 8 6 0 12 6 12 14 0 22 17
28 51 21 24 -5 29 -11 24 -26 -5 -15 -1 -19 19 -19 13 0 31 -3 40 -6 13 -5 16
1 16 30 0 32 3 36 27 36 14 0 41 -11 60 -26z m1730 0 c8 -20 -13 -42 -27 -28
-12 12 -3 44 11 44 5 0 12 -7 16 -16z m-2555 -4 c3 -25 2 -30 -6 -32 -5 -2
-10 7 -11 20 -2 21 13 33 17 12z m41 -22 c4 -12 1 -29 -6 -37 -9 -11 -9 -15 1
-18 6 -3 12 -9 12 -14 0 -17 -18 -9 -33 15 -13 20 -14 29 -4 50 15 32 23 33
30 4z m198 6 c11 -13 9 -14 -14 -9 -16 4 -38 1 -56 -8 -41 -21 -50 -7 -9 15
41 22 62 22 79 2z m2229 -5 c0 -5 -7 -9 -15 -9 -15 0 -20 12 -9 23 8 8 24 -1
24 -14z m40 12 c0 -5 -6 -14 -14 -20 -12 -10 -13 -8 -9 8 5 21 23 30 23 12z
m359 -17 c3 -16 1 -17 -13 -5 -19 16 -21 34 -3 29 6 -3 14 -13 16 -24z m-465
-10 c10 -14 16 -39 14 -57 -3 -29 -6 -32 -33 -29 -41 5 -55 19 -55 54 0 57 45
77 74 32z m671 6 c4 -12 25 -26 56 -37 53 -19 57 -24 34 -43 -10 -9 -31 -10
-67 -6 -59 8 -80 20 -71 43 8 22 -14 32 -56 26 -49 -8 -32 7 26 23 65 17 71
17 78 -6z m-1961 -1 c26 -12 27 -32 1 -23 -9 4 -21 -5 -32 -24 -10 -17 -36
-41 -58 -53 -22 -12 -43 -27 -47 -33 -4 -6 -14 -4 -26 7 -10 9 -26 17 -35 17
-9 0 -17 7 -17 16 0 9 -7 22 -16 28 -25 19 -7 46 31 46 42 0 65 -9 65 -25 0
-7 7 -18 15 -25 21 -18 45 4 45 40 0 26 8 33 42 39 4 0 18 -4 32 -10z m2357
-6 c13 -15 12 -15 -8 -4 -24 12 -29 21 -14 21 5 0 15 -7 22 -17z m-561 3 c0
-2 -7 -6 -15 -10 -8 -3 -15 -1 -15 4 0 6 7 10 15 10 8 0 15 -2 15 -4z m-274
-15 c5 -5 24 -11 43 -13 27 -2 38 -10 52 -37 14 -26 16 -38 7 -48 -6 -7 -13
-11 -16 -8 -3 3 -10 1 -17 -5 -21 -18 -119 -18 -176 1 -29 10 -48 18 -41 18
19 1 14 19 -9 26 -41 13 -16 38 56 56 85 21 89 21 101 10z m251 -45 c-5 -16
-61 -16 -94 0 -38 17 -42 31 -12 42 23 9 110 -26 106 -42z m-2503 -1 c3 -9 0
-15 -9 -15 -8 0 -15 7 -15 15 0 8 4 15 9 15 5 0 11 -7 15 -15z m2586 5 c0 -5
-4 -10 -10 -10 -5 0 -10 5 -10 10 0 6 5 10 10 10 6 0 10 -4 10 -10z m500 -15
c-14 -17 -30 -20 -30 -4 0 5 5 7 10 4 6 -3 10 -1 10 4 0 6 5 11 11 11 8 0 8
-5 -1 -15z m47 -27 c1 -30 1 -31 -6 -8 -7 21 -5 40 2 40 2 0 3 -15 4 -32z
m-3482 13 c3 -5 1 -12 -5 -16 -5 -3 -10 1 -10 9 0 18 6 21 15 7z m2032 -51 c2
-65 24 -109 56 -110 15 0 18 -7 16 -40 -2 -21 0 -42 4 -46 15 -16 5 -24 -29
-24 l-36 0 4 -45 c3 -39 0 -45 -19 -50 -13 -3 -23 -12 -23 -20 0 -14 -30 -20
-80 -17 -8 0 -22 -4 -32 -9 -10 -5 -18 -8 -18 -5 0 2 -3 11 -6 19 -8 21 45 68
65 58 8 -5 22 -5 30 -1 9 5 24 11 34 14 22 7 13 26 -11 26 -17 0 -45 33 -36
43 3 2 23 0 46 -6 35 -9 43 -8 54 7 17 24 9 41 -23 44 -31 2 -42 10 -26 20 9
6 12 47 4 85 -2 14 -38 7 -56 -13 -38 -42 -34 -17 7 41 61 87 62 89 68 89 3 0
6 -27 7 -60z m893 56 c0 -11 -19 -15 -25 -6 -3 5 1 10 9 10 9 0 16 -2 16 -4z
m-470 -87 c21 -8 64 -13 107 -11 l73 2 0 -35 c0 -22 -6 -38 -17 -44 -10 -6
-12 -11 -5 -11 6 0 12 -7 12 -15 0 -9 7 -27 16 -40 9 -14 14 -31 11 -40 -4 -8
-2 -17 3 -20 6 -4 10 -19 10 -34 0 -21 -6 -30 -22 -35 -36 -9 -98 -7 -98 4 0
6 5 10 10 10 6 0 10 5 10 10 0 6 -9 10 -20 10 -16 0 -20 7 -20 35 0 19 -4 35
-10 35 -5 0 -10 -16 -10 -35 0 -33 -2 -35 -32 -35 -44 1 -65 19 -73 62 -6 31
-4 37 14 43 11 3 18 12 15 19 -4 9 9 15 42 19 25 2 50 10 54 17 6 9 9 9 15 0
4 -6 -1 -18 -11 -25 -18 -14 -18 -14 3 -15 12 0 25 -4 28 -10 3 -5 -3 -10 -14
-10 -12 0 -21 -4 -21 -9 0 -5 19 -4 43 2 24 6 35 13 25 15 -19 4 -25 32 -8 32
5 0 9 12 8 26 -2 23 -5 25 -33 18 -39 -10 -161 -11 -170 -2 -8 8 -14 99 -7
112 3 5 12 0 21 -11 9 -11 32 -26 51 -34z m450 26 c5 -13 19 -34 30 -45 21
-21 21 -22 3 -35 -26 -21 -46 -19 -38 4 7 24 -22 51 -31 27 -7 -17 -34 -22
-34 -6 0 6 4 18 9 28 5 9 12 25 15 35 8 25 35 21 46 -8z m-2856 -10 c7 -29 3
-41 -23 -55 -16 -8 -18 -5 -17 28 1 53 29 72 40 27z m2956 10 c0 -8 5 -15 10
-15 6 0 9 5 8 11 -2 7 15 13 41 16 l45 4 -24 -21 c-31 -27 -113 -25 -118 3 -2
12 3 17 17 17 12 0 21 -6 21 -15z m-2615 -11 l25 -16 -25 -26 c-14 -13 -25
-29 -25 -33 0 -17 -18 -9 -23 11 -3 11 -11 20 -17 20 -7 0 -10 -8 -7 -20 6
-23 -5 -26 -22 -7 -15 18 45 65 62 48 6 -6 15 -11 19 -11 14 0 8 22 -9 36 -25
19 -7 17 22 -2z m2357 -22 c-4 -11 -1 -14 11 -9 22 8 36 -12 35 -51 -1 -32 -2
-32 -50 -32 -43 0 -50 3 -58 26 -15 38 -12 55 8 61 10 2 25 13 32 24 16 21 32
7 22 -19z m-2115 22 c-3 -3 -12 -4 -19 -1 -8 3 -5 6 6 6 11 1 17 -2 13 -5z
m2579 -9 c5 -11 10 -13 19 -5 9 8 11 4 7 -15 -3 -16 -10 -24 -17 -21 -10 3
-13 -7 -13 -37 1 -47 -19 -117 -33 -117 -5 0 -9 -9 -9 -20 0 -24 -47 -120 -58
-120 -15 1 -42 28 -51 53 -10 25 -30 35 -44 21 -9 -9 11 -56 34 -80 25 -27 11
-34 -50 -25 -52 7 -69 31 -22 31 20 0 31 5 31 14 0 9 -19 15 -61 19 -49 4 -64
10 -77 29 -9 12 -16 27 -14 32 2 5 0 16 -3 24 -8 22 -46 -15 -43 -42 3 -18 -2
-21 -32 -18 -49 5 -82 28 -78 55 3 20 10 22 63 24 87 4 125 12 125 27 0 9 -24
12 -94 12 -63 -1 -99 3 -107 11 -19 19 -6 24 29 11 24 -9 47 -9 101 0 90 15
121 4 121 -43 0 -44 20 -58 85 -57 62 0 75 6 75 32 0 10 7 25 15 34 8 8 15 19
15 24 0 5 11 21 25 36 20 22 21 26 7 27 -15 1 -15 2 1 6 10 3 17 14 17 29 0
15 4 23 10 19 7 -4 9 2 4 19 -7 28 12 37 22 11z m-3424 -67 c141 -381 134
-362 223 -553 62 -133 58 -137 -17 -17 -64 102 -123 223 -132 270 -3 19 -19
62 -35 95 -16 34 -36 96 -46 137 -9 41 -21 90 -25 108 -14 57 4 34 32 -40z
m3580 30 c-7 -7 -12 -8 -12 -2 0 14 12 26 19 19 2 -3 -1 -11 -7 -17z m-291 -7
c-10 -10 -25 -21 -32 -24 -10 -4 -9 -6 4 -6 9 -1 17 -5 17 -10 0 -20 -30 -31
-76 -27 -62 5 -65 6 -34 15 15 4 26 15 28 28 3 17 14 24 45 31 64 15 69 14 48
-7z m-2635 -35 c-12 -19 -13 -27 -4 -32 8 -5 5 -10 -8 -14 -10 -4 -22 -6 -26
-4 -9 5 17 55 34 65 21 14 21 11 4 -15z m-404 -25 c-2 -17 -8 -29 -12 -26 -13
8 -18 54 -6 58 19 7 23 -1 18 -32z m3603 -33 c-8 -29 -20 -60 -26 -68 -9 -12
-10 -11 -4 5 3 10 14 45 23 77 9 32 18 54 20 49 2 -5 -4 -33 -13 -63z m-3400
46 c36 -24 31 -36 -12 -28 -47 8 -48 9 -32 28 17 19 15 19 44 0z m-175 -14 c0
-5 -2 -10 -4 -10 -3 0 -8 5 -11 10 -3 6 -1 10 4 10 6 0 11 -4 11 -10z m1796
-15 c-15 -15 -21 -41 -17 -72 1 -7 -4 -13 -12 -13 -7 0 -31 -16 -53 -35 -21
-19 -43 -35 -48 -35 -6 0 -1 -6 9 -14 18 -13 18 -14 -3 -25 -26 -14 -35 -14
-27 -1 3 6 1 10 -6 10 -8 0 -8 4 1 15 16 19 1 19 -39 -1 -18 -9 -35 -14 -38
-11 -2 3 8 12 24 20 15 8 37 24 47 36 10 11 23 18 29 14 5 -3 7 -2 4 3 -3 6
13 25 36 44 22 19 55 47 71 62 33 28 50 30 22 3z m331 0 c10 -22 9 -25 -7 -25
-22 0 -35 16 -20 25 6 4 8 11 5 16 -4 5 -3 9 2 9 4 0 13 -11 20 -25z m1094 -8
c-10 -9 -11 -8 -5 6 3 10 9 15 12 12 3 -3 0 -11 -7 -18z m-2553 -41 c-10 -11
-21 -31 -25 -44 -7 -30 -37 -25 -41 7 -3 17 -9 22 -22 18 -24 -6 -34 18 -14
33 8 8 14 8 14 2 0 -5 9 -8 20 -5 11 3 20 11 20 18 0 9 8 10 34 2 33 -11 33
-11 14 -31z m132 40 c0 -20 -14 -34 -28 -28 -16 5 -16 5 0 -11 22 -22 33 -21
68 4 16 12 35 19 44 16 8 -3 18 -2 21 4 8 13 73 1 105 -20 50 -32 58 -46 45
-72 -35 -67 -26 -162 20 -229 21 -30 31 -37 43 -30 10 4 54 20 100 34 82 26
234 95 302 138 l35 22 -22 -25 c-13 -14 -23 -31 -23 -37 0 -7 -14 -12 -32 -12
-18 0 -48 -11 -68 -25 -31 -21 -36 -31 -39 -67 -2 -50 -9 -61 -18 -30 -7 27
-39 36 -101 29 -36 -4 -51 -12 -72 -37 -25 -31 -29 -32 -60 -22 -41 15 -100
16 -100 2 0 -15 -32 -12 -54 5 -45 34 -150 6 -163 -43 -9 -36 4 -37 32 -3 15
17 34 31 43 31 20 0 82 -22 82 -30 -2 -27 -64 -50 -141 -51 -12 0 -16 -12 -18
-47 -1 -25 -3 -47 -5 -49 -6 -6 -76 30 -76 39 0 4 -6 8 -14 8 -16 0 -25 19
-19 37 3 7 20 15 39 19 25 5 34 11 32 23 -6 30 -82 6 -93 -28 -4 -12 -15 -21
-27 -21 -14 0 -18 5 -14 16 3 9 6 24 6 33 0 21 39 41 80 41 17 0 30 4 30 9 0
19 -59 53 -80 46 -16 -5 -20 -2 -20 16 0 26 27 59 48 59 7 0 27 -8 43 -17 22
-13 32 -14 41 -5 8 8 6 16 -13 31 -35 30 -90 27 -129 -5 -28 -24 -31 -31 -25
-64 6 -33 3 -40 -21 -59 -19 -15 -22 -21 -10 -21 10 0 16 -9 16 -25 0 -25 -1
-25 -27 -10 -45 24 -101 78 -105 100 -3 18 2 20 51 16 37 -2 56 1 62 10 14 22
11 26 -33 48 -33 16 -38 21 -20 21 12 0 22 4 22 9 0 10 -42 39 -62 43 -7 2
-16 7 -19 12 -15 19 -85 -27 -91 -60 -2 -16 3 -19 29 -18 35 2 47 -14 35 -46
-6 -17 -12 -15 -55 28 -26 26 -55 57 -64 70 -10 12 -33 26 -51 32 -41 11 -66
-10 -76 -63 -4 -20 -22 -60 -42 -89 -19 -29 -40 -68 -46 -85 -7 -18 -15 -33
-19 -33 -12 0 -30 27 -39 61 l-9 32 26 -24 c15 -13 22 -16 14 -7 -7 9 -11 28
-9 41 1 13 -3 32 -11 41 -10 12 -10 16 -1 16 8 0 10 8 6 23 -4 12 -14 46 -22
76 -8 30 -20 61 -27 70 -9 11 -9 15 2 19 11 4 11 6 0 13 -10 6 -11 9 -1 9 19
0 48 -33 44 -53 -2 -9 3 -17 10 -17 7 0 24 -13 38 -30 25 -31 40 -38 40 -20 0
22 66 100 89 106 14 4 33 1 44 -6 57 -35 119 -26 103 15 -8 21 10 45 33 45 9
0 24 -9 34 -20 16 -19 16 -24 2 -56 -19 -46 -19 -54 0 -54 9 0 20 11 24 24 11
28 29 36 81 36 47 0 54 -9 41 -56 -5 -19 -7 -42 -4 -50 9 -24 28 -10 25 18 -2
18 6 35 25 54 l28 28 3 -27 c3 -23 6 -26 18 -16 8 6 14 18 14 25 0 8 4 14 9
14 12 0 66 -49 67 -61 1 -5 2 -17 3 -26 1 -11 7 -5 17 17 19 43 29 50 79 50
27 0 53 -8 77 -25 41 -27 58 -31 58 -13 0 20 -61 77 -77 71 -16 -6 -62 15 -79
36 -11 14 -85 12 -141 -5 -19 -5 -23 -3 -23 17 0 33 9 43 55 62 42 17 55 20
55 13z m2220 -16 c0 -5 -4 -10 -9 -10 -5 0 -11 -12 -13 -27 -4 -33 -19 -35
-33 -4 -5 11 -16 21 -24 21 -23 0 0 18 29 23 44 8 50 7 50 -3z m-3030 -26 c0
-8 -4 -12 -10 -9 -5 3 -10 10 -10 16 0 5 5 9 10 9 6 0 10 -7 10 -16z m294 1
c19 -14 18 -15 -11 -15 -18 0 -33 6 -37 15 -7 20 22 19 48 0z m1876 0 c10 -12
9 -15 -8 -15 -27 0 -52 10 -52 21 0 15 47 10 60 -6z m-1975 -25 c9 -14 -14
-52 -28 -47 -7 2 -11 14 -10 26 2 13 -3 21 -12 21 -18 0 -20 17 -2 23 13 5 43
-8 52 -23z m3011 -36 c-8 -21 -15 -34 -15 -29 -1 6 -10 -5 -21 -22 -11 -18
-25 -33 -30 -33 -11 0 -6 14 15 40 7 8 16 28 19 45 4 16 12 36 18 43 20 24 28
-4 14 -44z m-1131 -10 c-18 -19 -24 -18 -20 4 2 9 4 21 4 26 1 5 8 3 16 -4 12
-10 12 -14 0 -26z m155 6 c0 -5 -5 -10 -11 -10 -5 0 -7 5 -4 10 3 6 8 10 11
10 2 0 4 -4 4 -10z m80 -10 c8 -13 57 -30 85 -30 13 0 36 -11 51 -24 27 -23
28 -24 11 -50 -14 -21 -25 -26 -61 -26 -45 0 -68 16 -80 58 -4 12 -12 22 -19
22 -8 0 -8 3 1 12 19 19 14 29 -12 22 -18 -4 -25 -1 -29 16 -5 19 -3 21 21 15
15 -4 29 -10 32 -15z m-1482 2 c15 -10 7 -38 -14 -46 -13 -5 -64 33 -64 48 0
9 63 7 78 -2z m1342 -31 c0 -17 -18 -21 -24 -6 -3 9 0 15 9 15 8 0 15 -4 15
-9z m-400 -5 c0 -3 -4 -8 -10 -11 -5 -3 -10 -1 -10 4 0 6 5 11 10 11 6 0 10
-2 10 -4z m510 -10 c0 -2 -7 -7 -16 -10 -8 -3 -12 -2 -9 4 6 10 25 14 25 6z
m461 -20 c56 -2 89 -17 89 -41 0 -22 40 -48 85 -55 26 -4 48 -3 52 2 3 6 18 8
34 6 15 -2 28 -2 27 1 -2 21 4 30 17 25 22 -9 19 -18 -19 -72 -18 -27 -37 -58
-40 -70 -4 -12 -18 -25 -32 -28 -13 -3 -21 -10 -18 -15 3 -5 1 -9 -4 -9 -15 0
-22 -42 -10 -57 7 -9 7 -13 -1 -13 -6 0 -11 5 -11 10 0 6 -4 10 -9 10 -14 0
-20 -37 -8 -49 8 -8 6 -11 -5 -11 -9 0 -19 3 -21 8 -6 9 62 156 74 160 5 2 9
12 9 23 0 16 -7 19 -40 19 -22 0 -40 4 -40 8 0 4 -14 13 -31 19 -21 8 -30 18
-27 30 3 23 -9 43 -27 43 -9 0 -17 -15 -21 -40 -7 -45 -24 -54 -24 -12 0 15
-5 34 -10 42 -9 13 -12 13 -23 -1 -7 -9 -27 -20 -45 -23 -32 -7 -32 -7 -32 29
0 32 -3 36 -22 33 -17 -2 -24 -11 -26 -33 -5 -40 -14 -47 -46 -39 -21 5 -26
12 -26 38 0 40 15 56 55 57 16 0 39 4 50 9 11 5 31 7 45 4 14 -3 50 -6 81 -8z
m-687 -5 c3 -5 16 -7 28 -3 14 3 19 1 14 -6 -5 -8 2 -10 23 -6 25 5 35 0 65
-29 34 -35 35 -36 20 -66 -9 -17 -13 -40 -9 -51 8 -26 -18 -37 -52 -21 -21 10
-23 14 -13 26 16 20 14 21 -42 29 -33 5 -48 4 -48 -4 0 -6 5 -8 12 -4 8 5 9 0
3 -17 -4 -13 -8 -39 -8 -57 l0 -32 -19 27 c-10 16 -21 44 -24 63 -4 19 -12 42
-19 50 -23 28 -24 59 -3 85 19 25 61 34 72 16z m204 -13 c14 -14 16 -38 3 -38
-12 0 -41 29 -41 41 0 13 24 11 38 -3z m-388 -28 c0 -5 -5 -10 -11 -10 -5 0
-7 5 -4 10 3 6 8 10 11 10 2 0 4 -4 4 -10z m-1830 -44 c0 -6 -7 -2 -15 8 -8
11 -15 25 -15 30 0 6 7 2 15 -8 8 -11 15 -25 15 -30z m323 -49 c51 -51 110
-107 132 -123 112 -83 155 -108 240 -144 44 -18 113 -48 152 -66 59 -27 90
-34 165 -40 51 -3 115 -12 142 -20 65 -18 209 -18 272 1 80 24 201 132 281
252 30 46 61 83 68 83 7 0 31 30 54 66 35 55 44 64 56 54 8 -7 15 -17 15 -23
0 -6 6 -18 14 -26 28 -34 77 -177 83 -245 5 -51 3 -67 -5 -62 -8 5 -12 -2 -12
-18 0 -14 4 -26 8 -26 12 0 32 -84 23 -93 -5 -5 -11 6 -14 22 -5 23 -12 31
-27 31 -16 0 -20 -5 -16 -17 2 -10 7 -34 11 -53 13 -71 47 -160 58 -153 7 4 8
0 3 -12 -4 -10 0 -28 10 -42 18 -29 12 -42 -12 -22 -15 12 -16 11 -9 -11 13
-44 36 -81 45 -75 5 3 11 1 15 -5 3 -5 2 -10 -3 -10 -5 0 -13 -10 -16 -23 -6
-18 -8 -19 -14 -6 -12 27 -36 46 -52 42 -11 -3 -20 11 -33 53 -10 31 -15 59
-11 63 4 3 9 0 11 -6 3 -7 9 -13 14 -13 6 0 7 5 4 10 -4 6 -8 26 -10 45 -2 19
-12 50 -24 68 -22 35 -29 83 -11 72 13 -8 12 0 -5 60 l-15 50 3 -42 c1 -23 -2
-39 -7 -36 -5 4 -6 -14 -2 -41 9 -55 1 -59 -20 -9 -10 23 -18 32 -23 25 -10
-17 -27 20 -40 88 l-10 55 6 -65 c12 -137 25 -200 43 -200 5 0 14 -16 20 -35
18 -54 66 -136 75 -128 4 5 5 0 2 -9 -4 -12 5 -30 29 -54 19 -21 32 -39 30
-42 -10 -10 -56 9 -56 23 0 8 -4 15 -8 15 -4 0 -21 20 -36 45 -36 55 -54 59
-26 6 24 -47 11 -63 -19 -24 -11 16 -21 22 -21 14 0 -11 -3 -11 -15 -1 -9 8
-15 8 -15 2 0 -15 34 -72 43 -72 4 0 7 -5 7 -11 0 -6 -7 -8 -17 -5 -9 4 -53 9
-97 12 -48 2 -83 9 -88 17 -5 9 -11 7 -22 -8 -10 -13 -15 -15 -16 -6 0 11 -3
11 -14 1 -8 -6 -28 -10 -43 -9 -15 2 -33 0 -40 -4 -7 -4 -21 -2 -33 5 -21 13
-27 28 -11 28 5 0 7 9 4 20 -3 11 0 20 6 20 6 0 11 -4 11 -10 0 -5 11 -10 24
-10 13 0 31 -10 40 -22 12 -16 18 -19 22 -10 3 6 13 12 21 12 9 0 13 6 9 15
-7 18 -2 19 24 3 10 -7 22 -9 26 -5 8 8 -14 37 -29 37 -5 0 -15 7 -22 16 -15
21 -65 27 -65 8 0 -8 -5 -14 -11 -14 -5 0 -8 4 -5 9 8 12 -20 22 -41 14 -11
-4 -14 -3 -9 5 4 7 3 12 -2 12 -16 0 -22 -13 -11 -26 6 -8 6 -14 0 -18 -13 -9
-41 4 -41 19 0 7 -12 13 -26 13 -27 0 -85 52 -83 75 0 9 2 8 6 0 2 -7 9 -13
14 -13 4 0 6 7 3 15 -11 28 -84 16 -84 -14 -1 -9 -7 -3 -16 14 l-14 30 4 -38
c7 -54 51 -147 71 -147 9 0 14 -4 11 -9 -4 -5 6 -14 21 -20 21 -7 7 -8 -57 -4
-47 3 -87 8 -90 10 -2 2 1 13 8 23 15 24 -4 74 -25 66 -10 -4 -11 -1 -3 13 13
26 1 111 -16 111 -8 0 -19 9 -26 20 -30 48 -38 2 -12 -74 12 -34 13 -51 6 -58
-8 -8 -13 -7 -18 5 -9 25 -26 21 -19 -4 6 -19 4 -21 -16 -16 -23 6 -23 5 -5
-9 16 -11 17 -17 8 -26 -9 -9 -15 -9 -26 2 -23 25 -56 93 -56 118 0 13 -7 31
-16 40 -16 15 -16 11 -10 -53 l7 -70 -20 25 c-13 16 -21 40 -21 68 0 40 -1 42
-31 42 -30 0 -31 -1 -27 -40 2 -23 -1 -40 -7 -40 -5 0 -1 -7 9 -15 19 -14 19
-15 -7 -15 -34 0 -35 -13 -2 -28 32 -15 38 -15 29 0 -4 6 -3 9 2 7 5 -3 21
-11 36 -18 15 -8 25 -18 22 -23 -3 -4 1 -10 8 -12 41 -13 50 -17 45 -22 -10
-10 -86 17 -96 34 -6 9 -11 12 -11 6 0 -7 -13 -9 -37 -5 -30 5 -38 11 -39 28
-2 37 -26 84 -40 79 -21 -8 -35 19 -41 77 -4 41 -9 54 -19 50 -8 -3 -14 0 -14
6 0 6 -7 8 -16 4 -13 -5 -15 0 -10 31 3 20 2 36 -3 36 -17 0 -20 -15 -22 -105
-2 -73 0 -89 14 -97 21 -11 22 -28 1 -28 -11 0 -14 -6 -9 -22 5 -18 4 -20 -4
-8 -6 8 -11 10 -11 4 0 -8 -11 -10 -33 -4 -41 9 -87 38 -87 55 0 7 -6 16 -12
19 -7 3 0 4 17 0 28 -5 29 -4 14 13 -24 27 -39 80 -39 136 0 40 -2 47 -13 38
-8 -6 -17 -8 -20 -4 -15 14 -6 -39 10 -64 l17 -26 -28 7 -29 7 17 -25 c15 -24
15 -26 0 -26 -11 0 -14 -5 -10 -16 3 -9 6 -20 6 -25 0 -5 6 -9 14 -9 8 0 18
-5 21 -11 10 -15 -64 0 -95 19 -22 14 -23 17 -7 20 16 3 17 6 4 20 -26 31 -41
96 -43 195 -1 54 -3 100 -6 102 -5 6 -8 -19 -11 -107 -3 -84 -7 -97 -28 -72
-15 18 -14 129 2 171 7 18 6 30 -1 37 -8 8 -12 4 -16 -12 -4 -12 -10 -22 -15
-22 -5 0 -7 11 -3 25 4 15 2 25 -5 25 -6 0 -11 -15 -11 -32 0 -18 -3 -49 -6
-69 -4 -25 -1 -40 10 -51 14 -15 14 -17 -1 -22 -31 -12 -48 20 -47 87 0 63
-10 84 -33 65 -10 -8 -12 -4 -8 18 10 70 14 106 9 101 -10 -10 -31 -130 -26
-149 3 -11 -1 -18 -11 -18 -9 0 -17 13 -21 35 -8 40 4 142 14 125 4 -6 7 3 7
19 0 17 7 39 16 49 19 21 22 32 7 32 -5 0 -10 -7 -10 -15 0 -8 -3 -15 -8 -15
-15 0 -57 -126 -56 -172 0 -50 -5 -58 -26 -33 -20 24 9 185 33 185 5 0 7 6 4
14 -3 8 0 17 7 19 8 3 17 18 21 34 8 34 26 57 34 45 3 -6 13 -3 21 6 13 14 12
15 -3 9 -16 -6 -17 -2 -11 31 7 39 20 62 36 62 5 0 51 -42 101 -93z m1251 56
c3 -10 8 -39 12 -65 5 -42 4 -48 -12 -48 -27 0 -54 30 -54 62 0 22 5 28 21 28
16 0 19 4 14 20 -3 11 -2 20 4 20 5 0 12 -8 15 -17z m103 -23 c2 -26 0 -30
-22 -30 -29 0 -31 11 -9 46 19 29 26 25 31 -16z m-1250 9 c1 -12 1 -20 0 -18
-2 2 -9 12 -16 22 -11 14 -11 17 1 17 7 0 14 -10 15 -21z m1359 6 c7 -18 -10
-47 -62 -100 -22 -22 -48 -56 -59 -75 -11 -19 -25 -43 -31 -53 -12 -20 -81
-87 -89 -87 -11 0 -4 42 10 70 12 23 22 30 45 30 28 0 30 2 30 40 0 27 4 40
14 40 20 0 40 26 26 35 -6 3 -8 11 -4 16 3 5 9 7 13 4 5 -2 23 2 41 11 l31 16
-23 25 c-19 20 -20 25 -8 33 23 15 60 12 66 -5z m482 -6 c12 -8 36 -8 78 -2
66 10 84 8 84 -10 0 -21 40 -38 106 -44 35 -3 64 -10 64 -14 0 -5 -8 -9 -19
-9 -10 0 -24 -7 -31 -15 -10 -12 -15 -12 -35 1 -28 18 -40 13 -64 -27 -16 -26
-20 -28 -31 -14 -11 13 -11 20 0 39 14 28 9 41 -19 49 -30 7 -53 -26 -59 -83
-2 -28 -10 -50 -16 -50 -6 0 -21 16 -34 35 l-23 35 26 24 c29 27 32 46 8 45
-34 -1 -55 -15 -69 -45 -12 -28 -13 -28 -19 -6 -4 12 -12 22 -17 22 -6 0 -5 7
2 15 10 12 10 21 2 40 -11 24 -10 25 18 25 17 0 38 -5 48 -11z m956 -91 c-9
-18 -26 -44 -37 -58 l-19 -25 7 24 c10 34 59 113 63 102 2 -5 -4 -25 -14 -43z
m-407 -10 c44 -1 50 -22 9 -32 -13 -3 -27 -19 -36 -41 -14 -37 -24 -43 -34
-22 -3 6 -3 2 0 -10 5 -20 1 -23 -22 -23 -22 0 -25 3 -16 12 16 16 15 28 -2
28 -8 0 -17 -9 -21 -19 -7 -22 -32 -35 -40 -21 -8 13 72 63 90 56 9 -3 15 0
15 9 0 8 5 14 11 13 28 -7 17 23 -14 36 -40 16 -51 30 -43 53 6 14 11 12 34
-10 20 -19 40 -27 69 -29z m-1421 -28 c1 -33 -3 -60 -7 -60 -5 0 -9 3 -10 8 0
4 -2 16 -4 27 -5 24 5 85 14 85 3 0 6 -27 7 -60z m1265 38 c25 -28 24 -32 -7
-53 -14 -9 -35 -37 -46 -61 -20 -47 -33 -49 -49 -7 -13 35 -5 55 31 76 20 12
30 26 30 43 0 30 17 31 41 2z m503 -8 c-10 -16 -19 -28 -21 -26 -6 6 20 56 29
56 5 0 1 -13 -8 -30z m-1664 5 c7 -8 22 -15 34 -16 13 -1 7 -5 -18 -13 -24 -8
-42 -21 -47 -34 -11 -29 -35 -28 -43 2 -8 32 0 51 27 64 30 14 33 14 47 -3z
m763 -87 l28 -23 -20 -40 c-11 -23 -31 -47 -45 -54 -48 -26 -65 -90 -67 -244
-1 -29 6 -46 27 -68 16 -16 34 -27 40 -25 7 3 20 -6 28 -20 22 -32 62 -33 70
0 3 14 14 27 24 29 13 4 13 5 -4 6 -13 1 -24 9 -27 21 -7 28 18 26 55 -5 16
-14 27 -25 23 -25 -3 0 -3 -5 0 -11 5 -6 12 -3 21 10 8 11 24 21 37 23 17 2
22 10 22 33 0 17 -5 36 -12 42 -6 7 -13 18 -16 25 -8 21 -38 -24 -34 -49 2
-12 0 -20 -5 -17 -5 3 -6 26 -2 50 l6 44 -31 0 c-35 0 -38 6 -14 32 19 21 33
23 33 4 0 -7 12 -22 28 -32 15 -9 41 -32 58 -51 17 -18 34 -30 37 -26 4 3 7
-1 7 -9 0 -22 70 -30 78 -10 3 8 -2 19 -11 24 -26 14 -21 31 6 17 37 -20 58
-46 44 -56 -58 -43 -267 -130 -280 -116 -3 2 -26 -3 -52 -11 -25 -9 -52 -13
-58 -9 -7 4 -45 39 -85 78 -55 51 -82 87 -103 133 -33 74 -37 94 -43 222 l-5
95 19 -44 c11 -24 20 -60 20 -82 0 -75 44 -118 70 -68 9 16 8 24 -4 38 -19 21
-21 62 -3 59 8 -2 11 11 10 42 l-2 45 16 -27 c19 -30 52 -43 68 -27 7 7 4 15
-10 24 -40 28 -45 36 -45 70 0 61 8 67 43 35 18 -16 45 -39 60 -52z m1022 36
c-8 -20 -15 -38 -15 -39 0 -2 -6 -5 -14 -8 -11 -4 -9 6 7 38 26 53 43 60 22 9z
m-1165 -14 c0 -27 -4 -40 -14 -40 -17 0 -27 55 -12 70 19 19 26 10 26 -30z
m1002 -2 c-7 -7 -12 -8 -12 -2 0 14 12 26 19 19 2 -3 -1 -11 -7 -17z m-1764
-20 c2 -16 -1 -28 -7 -28 -26 0 -62 -49 -66 -90 -2 -24 -9 -48 -14 -53 -6 -6
-11 -24 -11 -39 0 -33 -7 -34 -124 -13 -44 8 -83 12 -86 10 -17 -10 -168 27
-202 50 -21 14 -42 25 -48 25 -5 0 -10 15 -10 34 0 28 4 34 26 39 15 3 41 1
58 -4 42 -12 106 -11 106 1 0 6 -7 13 -15 16 -23 9 -18 33 10 46 32 14 42 4
25 -26 -12 -24 -11 -42 7 -115 8 -33 36 -58 32 -30 -1 8 -1 19 0 25 1 14 64
41 114 49 34 5 37 4 37 -17 1 -31 27 -65 40 -52 7 7 4 19 -12 39 -20 25 -20
30 -7 54 10 17 33 33 67 45 50 18 60 31 25 31 -23 0 -28 22 -6 28 39 11 58 3
61 -25z m1155 -10 c6 -39 -3 -47 -31 -30 -10 7 -9 15 4 41 19 38 19 38 27 -11z
m-963 9 c-9 -7 -27 -30 -40 -52 l-25 -40 -3 29 c-4 34 31 76 62 76 18 -1 19
-2 6 -13z m-420 -42 c0 -8 1 -18 3 -22 1 -3 -14 -7 -33 -8 -19 -1 -43 -6 -52
-10 -24 -10 -23 10 2 35 24 24 80 27 80 5z m1278 -19 c29 -10 28 -39 -3 -56
-14 -7 -25 -19 -25 -27 0 -7 -7 -13 -15 -13 -18 0 -19 -12 -3 -28 6 -6 9 -15
5 -18 -3 -3 -17 7 -31 22 -20 23 -24 36 -20 59 4 17 11 36 16 42 6 7 8 19 5
27 -8 20 14 27 33 11 8 -7 25 -16 38 -19z m-968 -9 c0 -29 34 -67 60 -67 30 0
24 -16 -15 -40 -19 -12 -35 -25 -35 -30 0 -10 -50 -27 -108 -36 -37 -6 -42 -4
-36 10 3 9 1 16 -5 16 -21 0 -11 19 17 34 28 14 108 31 130 27 6 -1 12 4 12
12 0 21 -59 35 -103 24 -45 -12 -54 -5 -39 28 8 17 20 25 36 25 14 0 28 5 31
10 3 6 17 10 31 10 18 0 24 -5 24 -23z m-1404 -1 c8 -8 14 -30 14 -48 l-1 -33
-19 35 c-29 52 -26 77 6 46z m2507 -6 c22 -26 21 -33 -4 -56 -26 -23 -37 -9
-31 41 5 40 11 43 35 15z m167 3 c-1 -18 -18 -35 -24 -24 -4 6 -4 16 -1 21 7
12 25 13 25 3z m320 -23 c0 -5 -9 -14 -20 -20 -23 -12 -26 -6 -7 15 14 17 27
19 27 5z m-280 -15 c0 -8 -4 -15 -10 -15 -5 0 -10 -5 -10 -12 0 -21 -51 -78
-70 -78 -21 0 -51 47 -49 77 1 16 2 16 6 1 4 -17 63 -23 63 -6 0 5 8 8 18 6 9
-2 18 4 18 12 3 28 4 30 19 30 8 0 15 -7 15 -15z m30 -30 c0 -8 -9 -19 -20
-25 -18 -10 -19 -9 -8 15 12 27 28 33 28 10z m-2748 -78 c11 -22 17 -41 15
-43 -8 -8 -77 92 -77 112 0 15 43 -33 62 -69z m2246 17 c37 -31 42 -48 11 -39
-16 5 -27 0 -44 -21 l-22 -28 -12 23 c-10 18 -10 29 4 57 9 19 19 34 24 34 4
0 22 -12 39 -26z m208 -39 c-1 -5 -10 -11 -18 -13 -17 -3 -30 31 -21 55 5 13
9 11 24 -8 10 -13 17 -28 15 -34z m-2325 5 c12 0 16 -6 12 -20 -9 -33 -31 -21
-47 25 -6 16 -5 18 5 8 7 -7 21 -13 30 -13z m2792 -32 c-10 -18 -61 -70 -113
-114 -52 -45 -95 -90 -95 -99 0 -9 -16 -26 -36 -38 -20 -12 -47 -32 -60 -44
-44 -40 -121 -94 -127 -89 -3 3 6 15 20 26 34 26 76 98 86 146 7 35 13 40 108
88 55 28 129 75 164 104 36 28 66 52 68 52 2 0 -5 -15 -15 -32z m-73 12 c-1
-3 -17 -17 -37 -32 -36 -28 -73 -37 -73 -18 0 6 9 10 21 10 11 0 27 7 35 15 9
8 13 15 9 15 -3 0 -4 4 -1 8 5 9 46 11 46 2z m-204 -14 c3 -8 -3 -24 -13 -35
-17 -18 -23 -19 -46 -8 -16 7 -27 20 -27 32 0 16 8 21 40 23 28 2 42 -2 46
-12z m-2489 -18 c-3 -8 -6 -5 -6 6 -1 11 2 17 5 13 3 -3 4 -12 1 -19z m2123
-24 c0 -14 5 -34 10 -45 8 -15 7 -19 -4 -19 -44 0 -54 18 -36 64 12 33 30 33
30 0z m-2090 -15 c0 -6 -4 -7 -10 -4 -5 3 -10 11 -10 16 0 6 5 7 10 4 6 -3 10
-11 10 -16z m1830 -94 c29 -55 62 -110 74 -123 17 -20 18 -24 6 -33 -13 -8
-13 -10 0 -19 11 -7 12 -10 2 -10 -8 0 -16 9 -19 20 -5 21 -33 28 -33 9 0 -6
-7 -3 -15 5 -12 12 -14 20 -5 36 8 14 8 26 0 40 -14 27 -23 25 -15 -2 5 -20 4
-21 -5 -5 -6 9 -9 21 -6 25 3 5 -6 31 -19 58 -14 27 -25 62 -25 78 0 37 -3 40
60 -79z m-1757 -35 c32 -23 55 -45 52 -48 -9 -10 -110 67 -152 117 -55 64 -55
80 0 20 23 -25 68 -65 100 -89z m2437 120 c13 -9 11 -13 -10 -30 -39 -30 -54
-26 -35 10 17 33 22 35 45 20z m-2433 -50 c-2 -8 51 -58 74 -71 11 -6 18 -13
15 -16 -7 -7 -89 44 -134 83 -44 39 -36 62 12 31 19 -12 33 -24 33 -27z m1913
9 c0 -11 -4 -17 -10 -14 -5 3 -10 15 -10 26 0 11 5 17 10 14 6 -3 10 -15 10
-26z m87 -15 c-3 -3 -12 -4 -19 -1 -8 3 -5 6 6 6 11 1 17 -2 13 -5z m-354 -56
c4 -12 4 -24 2 -27 -3 -2 -5 2 -6 10 0 8 -4 6 -9 -6 -7 -16 -8 -14 -7 12 2 38
12 43 20 11z m237 -74 c25 -25 62 -55 83 -66 20 -12 37 -27 37 -32 0 -6 9 -17
21 -24 12 -8 18 -9 14 -3 -8 14 4 14 46 -1 34 -13 34 -13 -36 -19 -85 -8 -93
-5 -87 27 3 18 0 24 -14 24 -14 0 -16 2 -6 9 11 6 10 10 -5 16 -10 5 -21 7
-25 7 -5 -1 -8 3 -8 9 0 5 -3 8 -7 6 -5 -2 -19 7 -33 21 -14 13 -19 22 -12 18
19 -11 14 12 -8 34 -11 11 -16 20 -12 20 4 0 28 -21 52 -46z m700 -33 c-6 -22
-15 -43 -20 -46 -6 -3 -10 -23 -10 -44 0 -25 -6 -43 -17 -52 -16 -12 -17 -12
-6 1 7 9 8 21 4 29 -7 11 -17 7 -47 -17 -80 -64 -241 -128 -371 -147 -24 -4
-43 -11 -43 -16 0 -5 5 -9 10 -9 6 0 10 -7 10 -15 0 -9 10 -15 23 -16 18 -1
17 -2 -8 -10 -28 -9 -355 -4 -450 6 -54 6 -624 20 -755 19 -58 -1 -235 -2
-395 -4 l-290 -3 -51 26 c-47 24 -78 57 -53 57 15 0 53 -21 61 -34 4 -6 31
-12 60 -14 29 -1 55 -7 58 -12 3 -5 33 -9 67 -9 48 1 65 5 79 20 9 10 24 19
33 19 38 0 -12 20 -104 40 -89 20 -105 27 -152 68 -29 25 -51 48 -48 50 3 3
13 -2 23 -11 10 -10 28 -17 40 -17 11 0 24 -5 27 -10 3 -6 17 -7 30 -4 13 3
53 -1 89 -10 48 -12 71 -14 85 -6 28 14 104 13 95 -1 -5 -8 1 -10 18 -6 14 4
46 -1 77 -12 28 -11 82 -22 119 -26 37 -4 74 -8 82 -11 8 -2 22 1 30 6 13 8
13 13 2 31 l-14 22 79 -7 c43 -4 96 -11 118 -16 25 -6 97 -5 193 2 115 8 166
8 204 0 84 -20 204 -15 318 13 57 15 113 25 124 23 12 -2 -13 -12 -54 -22
-152 -36 -163 -52 -40 -62 86 -6 81 -6 180 -1 76 4 166 35 362 126 63 29 219
134 227 154 1 4 5 6 8 4 2 -3 -1 -23 -7 -46z m-1950 12 c0 -12 -2 -12 -15 1
-8 8 -15 17 -15 20 0 3 7 3 15 0 8 -4 15 -13 15 -21z m-480 -11 c90 -42 153
-64 252 -89 62 -15 104 -29 94 -31 -11 -2 -45 3 -75 12 -31 8 -85 23 -121 31
-57 14 -190 78 -190 91 0 3 3 4 8 2 4 -2 18 -9 32 -16z m2114 -4 c-12 -22 -47
-58 -56 -58 -4 0 -8 5 -8 10 0 6 7 10 15 10 8 0 22 11 31 25 17 25 31 35 18
13z m-1746 -36 c2 -7 -2 -10 -12 -6 -9 3 -16 11 -16 16 0 13 23 5 28 -10z
m-422 -37 c18 -14 17 -14 -12 -15 -21 0 -31 5 -31 15 0 19 18 19 43 0z m724 1
c0 -8 6 -17 13 -19 7 -3 5 -6 -5 -6 -17 -1 -26 -21 -10 -21 5 0 17 -7 28 -15
18 -14 17 -14 -12 -15 -35 0 -45 18 -37 64 6 27 23 36 23 12z m310 -2 c0 -8
-4 -12 -10 -9 -5 3 -10 10 -10 16 0 5 5 9 10 9 6 0 10 -7 10 -16z m-53 -23
c13 -17 17 -31 8 -31 -11 0 -75 45 -75 53 0 12 54 -5 67 -22z m803 9 c-7 -4
-10 -12 -6 -18 3 -6 2 -13 -4 -17 -5 -3 -10 0 -10 9 0 8 -3 21 -6 29 -4 12 0
14 16 10 15 -4 18 -8 10 -13z m-170 -3 c0 -7 6 -22 14 -32 11 -16 17 -17 29
-7 8 7 22 10 31 6 12 -5 15 -2 10 10 -4 11 -1 16 10 16 34 0 13 -33 -32 -48
-28 -10 -35 -9 -52 8 -10 10 -23 28 -30 39 -9 17 -8 21 5 21 8 0 15 -6 15 -13z
m480 -22 c0 -6 -73 -25 -78 -20 -2 2 11 8 29 14 41 11 49 12 49 6z m-1633 -11
c-3 -3 -12 -4 -19 -1 -8 3 -5 6 6 6 11 1 17 -2 13 -5z m1108 -34 c3 -5 -3 -10
-14 -10 -11 0 -23 5 -26 10 -3 6 3 10 14 10 11 0 23 -4 26 -10z m871 -47 c-10
-10 -19 5 -10 18 6 11 8 11 12 0 2 -7 1 -15 -2 -18z m-32 -68 c-6 -14 -40 -28
-101 -40 -52 -10 -38 2 21 19 30 9 58 21 61 26 10 16 25 12 19 -5z"/>
<path d="M3585 5544 c-16 -14 -21 -21 -10 -15 30 14 61 40 50 41 -5 0 -23 -12
-40 -26z"/>
<path d="M4320 5530 c-12 -8 -11 -10 8 -10 12 0 22 5 22 10 0 13 -11 13 -30 0z"/>
<path d="M3340 5455 c-6 -8 -10 -19 -8 -24 1 -6 8 1 15 14 13 28 11 31 -7 10z"/>
<path d="M4495 5460 c28 -12 47 -12 40 0 -3 6 -18 10 -33 9 -24 0 -25 -1 -7
-9z"/>
<path d="M1768 5403 c6 -2 18 -2 25 0 6 3 1 5 -13 5 -14 0 -19 -2 -12 -5z"/>
<path d="M4650 5393 c19 -3 39 -9 45 -14 14 -14 25 -11 25 6 0 12 -12 15 -52
13 -41 -1 -45 -2 -18 -5z"/>
<path d="M2890 5360 c0 -9 4 -20 9 -25 16 -18 53 -89 72 -140 15 -40 18 -43
13 -15 -4 19 -21 62 -38 94 -49 93 -56 103 -56 86z"/>
<path d="M3425 5339 c-4 -6 -5 -12 -2 -15 2 -3 7 2 10 11 7 17 1 20 -8 4z"/>
<path d="M3165 5300 c-4 -23 -5 -43 -2 -46 2 -3 7 14 11 37 4 23 5 44 2 46 -2
2 -7 -14 -11 -37z"/>
<path d="M4721 5316 c10 -9 79 -14 74 -5 -4 5 -22 9 -42 9 -20 0 -34 -2 -32
-4z"/>
<path d="M3916 5293 c-6 -14 -5 -15 5 -6 7 7 10 15 7 18 -3 3 -9 -2 -12 -12z"/>
<path d="M3865 5254 l-30 -26 33 22 c17 12 32 23 32 26 0 7 -4 5 -35 -22z"/>
<path d="M3058 5103 c4 -237 8 -252 10 -35 1 105 -1 192 -5 192 -5 0 -7 -71
-5 -157z"/>
<path d="M3144 5206 c-3 -21 -4 -39 -1 -42 3 -4 9 10 13 30 3 21 4 39 1 42 -3
4 -9 -10 -13 -30z"/>
<path d="M1528 5213 c7 -3 16 -2 19 1 4 3 -2 6 -13 5 -11 0 -14 -3 -6 -6z"/>
<path d="M1438 5203 c6 -2 18 -2 25 0 6 3 1 5 -13 5 -14 0 -19 -2 -12 -5z"/>
<path d="M3769 5173 l-34 -37 32 25 c26 20 50 49 40 49 -2 0 -19 -17 -38 -37z"/>
<path d="M4935 5180 c3 -5 11 -10 16 -10 6 0 7 5 4 10 -3 6 -11 10 -16 10 -6
0 -7 -4 -4 -10z"/>
<path d="M2606 5167 c3 -10 9 -15 12 -12 3 3 0 11 -7 18 -10 9 -11 8 -5 -6z"/>
<path d="M2630 5141 c0 -6 4 -13 10 -16 6 -3 7 1 4 9 -7 18 -14 21 -14 7z"/>
<path d="M3595 5124 c-9 -15 -12 -23 -6 -20 11 7 35 46 28 46 -3 0 -12 -12
-22 -26z"/>
<path d="M2992 5120 c0 -14 2 -19 5 -12 2 6 2 18 0 25 -3 6 -5 1 -5 -13z"/>
<path d="M1538 5123 c12 -2 32 -2 45 0 12 2 2 4 -23 4 -25 0 -35 -2 -22 -4z"/>
<path d="M3211 5083 c-1 -6 -4 -20 -7 -30 -5 -17 -5 -17 6 0 6 10 9 23 6 30
-3 9 -5 9 -5 0z"/>
<path d="M3005 5045 c6 -55 32 -174 34 -154 1 16 -13 89 -30 159 l-8 35 4 -40z"/>
<path d="M2040 5031 c8 -5 26 -12 40 -15 l25 -7 -25 15 c-14 9 -32 15 -40 15
-13 0 -13 -1 0 -8z"/>
<path d="M1254 5004 c-18 -14 -18 -15 4 -4 12 6 22 13 22 15 0 8 -5 6 -26 -11z"/>
<path d="M1778 4993 c12 -2 30 -2 40 0 9 3 -1 5 -23 4 -22 0 -30 -2 -17 -4z"/>
<path d="M2781 4959 c12 -24 28 -62 36 -84 l13 -40 -6 40 c-6 42 -37 109 -55
120 -6 4 0 -13 12 -36z"/>
<path d="M2831 4963 c7 -12 15 -20 18 -17 3 2 -3 12 -13 22 -17 16 -18 16 -5
-5z"/>
<path d="M2320 4959 c0 -5 11 -15 25 -21 14 -6 25 -15 25 -20 0 -4 5 -8 10 -8
21 0 9 19 -25 39 -19 11 -35 16 -35 10z"/>
<path d="M2190 4956 c0 -2 8 -10 18 -17 15 -13 16 -12 3 4 -13 16 -21 21 -21
13z"/>
<path d="M3182 4920 c0 -14 2 -19 5 -12 2 6 2 18 0 25 -3 6 -5 1 -5 -13z"/>
<path d="M3416 4904 c-9 -24 -2 -26 12 -4 7 11 8 20 3 20 -5 0 -12 -7 -15 -16z"/>
<path d="M2720 4898 c0 -9 7 -22 17 -29 15 -13 15 -12 3 11 -17 34 -20 36 -20
18z"/>
<path d="M3112 4880 c0 -14 2 -19 5 -12 2 6 2 18 0 25 -3 6 -5 1 -5 -13z"/>
<path d="M2420 4883 c0 -8 88 -93 96 -93 12 0 -32 61 -48 66 -10 3 -18 9 -18
14 0 4 -7 10 -15 14 -8 3 -15 2 -15 -1z"/>
<path d="M2643 4870 c6 -11 15 -20 19 -20 12 0 -3 28 -18 34 -11 4 -12 2 -1
-14z"/>
<path d="M2930 4803 c0 -17 5 -35 10 -38 13 -8 13 35 0 55 -7 11 -10 7 -10
-17z"/>
<path d="M2980 4816 c0 -9 5 -16 10 -16 6 0 10 4 10 9 0 6 -4 13 -10 16 -5 3
-10 -1 -10 -9z"/>
<path d="M3291 4814 c0 -11 3 -14 6 -6 3 7 2 16 -1 19 -3 4 -6 -2 -5 -13z"/>
<path d="M3110 4773 c0 -43 5 -41 13 5 4 18 2 32 -3 32 -6 0 -10 -16 -10 -37z"/>
<path d="M3210 4770 c-15 -55 -7 -63 9 -9 7 22 10 43 7 46 -2 3 -10 -14 -16
-37z"/>
<path d="M2771 4784 c0 -11 3 -14 6 -6 3 7 2 16 -1 19 -3 4 -6 -2 -5 -13z"/>
<path d="M2885 4770 c-7 -23 2 -60 16 -60 12 0 12 17 -1 25 -6 3 -7 17 -4 31
7 29 -2 33 -11 4z"/>
<path d="M2964 4776 c-3 -8 -4 -27 -2 -43 3 -23 5 -20 9 15 5 43 2 53 -7 28z"/>
<path d="M3283 4769 c-2 -23 3 -25 10 -4 4 8 3 16 -1 19 -4 3 -9 -4 -9 -15z"/>
<path d="M2520 4771 c0 -5 5 -13 10 -16 6 -3 10 -2 10 4 0 5 -4 13 -10 16 -5
3 -10 2 -10 -4z"/>
<path d="M2802 4750 c0 -19 2 -27 5 -17 2 9 2 25 0 35 -3 9 -5 1 -5 -18z"/>
<path d="M2430 4757 c0 -2 9 -14 20 -27 11 -13 20 -18 20 -11 0 7 5 9 10 6 6
-3 10 -4 10 -1 0 3 -13 12 -30 21 -16 9 -30 14 -30 12z"/>
<path d="M3438 4563 c6 -2 18 -2 25 0 6 3 1 5 -13 5 -14 0 -19 -2 -12 -5z"/>
<path d="M1644 3928 c-62 -65 -156 -188 -139 -182 11 5 14 1 9 -12 -6 -20 8
-6 91 91 68 79 81 98 82 123 1 12 1 22 -1 22 -1 0 -20 -19 -42 -42z m26 -3
c-7 -9 -15 -13 -19 -10 -3 3 1 10 9 15 21 14 24 12 10 -5z"/>
<path d="M1386 3568 c-63 -97 -128 -238 -152 -328 -16 -61 -18 -99 -2 -57 5
15 13 25 18 22 4 -3 6 4 3 15 -3 12 1 22 10 26 9 3 13 13 9 26 -3 14 -1 19 6
14 7 -4 12 -2 12 4 0 7 16 44 35 83 19 39 35 78 35 88 0 9 7 22 15 29 19 15
80 117 90 148 15 50 -23 17 -79 -70z"/>
<path d="M3516 4401 c-12 -18 42 -39 115 -44 41 -3 129 -11 196 -18 81 -8 134
-10 159 -3 37 9 57 30 32 32 -7 0 -53 4 -103 7 -49 3 -124 10 -165 15 -131 16
-228 21 -234 11z"/>
<path d="M2976 4041 c-4 -7 -5 -15 -2 -18 9 -9 19 4 14 18 -4 11 -6 11 -12 0z"/>
<path d="M3045 4023 c10 -16 24 -31 31 -36 7 -4 11 -13 8 -20 -7 -20 44 -41
63 -26 12 11 10 16 -11 36 -14 13 -26 27 -26 32 0 7 -63 41 -76 41 -4 0 2 -12
11 -27z"/>
<path d="M2034 3935 c-9 -14 -14 -28 -11 -31 9 -9 27 6 27 22 0 8 7 14 15 14
8 0 15 5 15 10 0 20 -30 10 -46 -15z"/>
<path d="M2708 3587 c-25 -20 -22 -31 5 -23 47 14 59 15 81 4 18 -8 23 -18 22
-42 -1 -25 3 -32 22 -34 32 -5 53 15 46 44 -9 33 20 32 51 -2 26 -28 31 -49
15 -59 -11 -7 -14 -45 -4 -45 15 0 64 43 64 56 0 45 -79 105 -136 104 -16 -1
-56 1 -89 5 -44 4 -65 2 -77 -8z"/>
<path d="M3067 3482 c-23 -25 -21 -39 5 -53 13 -7 29 -18 36 -26 7 -7 24 -13
38 -13 39 0 32 42 -13 79 -44 36 -45 36 -66 13z"/>
<path d="M2047 3392 c6 -4 15 -20 18 -35 8 -32 31 -45 47 -29 15 15 -30 71
-57 71 -12 1 -16 -2 -8 -7z"/>
<path d="M1425 2952 c-3 -8 -3 -17 0 -20 3 -3 5 1 5 9 0 8 7 4 16 -9 13 -18
19 -21 30 -11 10 8 11 15 4 24 -17 20 -48 25 -55 7z"/>
<path d="M1455 2809 c-4 -6 -5 -13 -2 -16 7 -7 27 6 27 18 0 12 -17 12 -25 -2z"/>
<path d="M1575 2790 c-3 -5 -1 -10 4 -10 6 0 11 5 11 10 0 6 -2 10 -4 10 -3 0
-8 -4 -11 -10z"/>
<path d="M1442 2755 c0 -16 2 -22 5 -12 2 9 2 23 0 30 -3 6 -5 -1 -5 -18z"/>
<path d="M1465 2757 c-4 -10 -5 -21 -1 -24 10 -10 18 4 13 24 -4 17 -4 17 -12
0z"/>
<path d="M1405 2650 c3 -5 8 -10 11 -10 2 0 4 5 4 10 0 6 -5 10 -11 10 -5 0
-7 -4 -4 -10z"/>
<path d="M3135 3000 c-3 -5 -1 -10 4 -10 6 0 11 5 11 10 0 6 -2 10 -4 10 -3 0
-8 -4 -11 -10z"/>
<path d="M2670 3330 c0 -5 7 -10 15 -10 8 0 15 5 15 10 0 6 -7 10 -15 10 -8 0
-15 -4 -15 -10z"/>
<path d="M4027 3189 c-4 -16 -3 -18 9 -8 7 6 11 15 8 20 -8 13 -11 11 -17 -12z"/>
<path d="M4640 3270 c0 -5 5 -10 11 -10 5 0 7 5 4 10 -3 6 -8 10 -11 10 -2 0
-4 -4 -4 -10z"/>
<path d="M4724 3064 c3 -65 11 -88 27 -78 6 4 6 11 -2 20 -9 11 -8 14 2 14 11
0 11 2 1 8 -7 5 -16 28 -21 53 -9 43 -9 42 -7 -17z"/>
<path d="M5005 2910 c3 -5 8 -10 11 -10 2 0 4 5 4 10 0 6 -5 10 -11 10 -5 0
-7 -4 -4 -10z"/>
<path d="M4499 3204 c18 -13 20 -18 10 -25 -8 -5 -9 -9 -3 -9 21 0 24 14 7 32
-9 10 -21 18 -27 18 -6 0 0 -7 13 -16z"/>
<path d="M2605 2530 c3 -5 8 -10 11 -10 2 0 4 5 4 10 0 6 -5 10 -11 10 -5 0
-7 -4 -4 -10z"/>
<path d="M3495 2507 c-27 -44 -28 -47 -18 -47 4 0 18 18 31 40 27 48 16 54
-13 7z"/>
<path d="M1900 2259 c0 -5 5 -7 10 -4 6 3 10 8 10 11 0 2 -4 4 -10 4 -5 0 -10
-5 -10 -11z"/>
<path d="M4108 2343 c7 -3 16 -2 19 1 4 3 -2 6 -13 5 -11 0 -14 -3 -6 -6z"/>
<path d="M4110 2320 c0 -5 5 -10 10 -10 6 0 10 5 10 10 0 6 -4 10 -10 10 -5 0
-10 -4 -10 -10z"/>
<path d="M2420 2210 c0 -5 5 -10 11 -10 5 0 7 5 4 10 -3 6 -8 10 -11 10 -2 0
-4 -4 -4 -10z"/>
<path d="M4596 1954 c-4 -9 -5 -18 -4 -19 7 -6 48 15 48 25 0 17 -37 11 -44
-6z"/>
<path d="M4470 2039 c0 -5 5 -7 10 -4 6 3 10 8 10 11 0 2 -4 4 -10 4 -5 0 -10
-5 -10 -11z"/>
<path d="M1715 1820 c-3 -5 -2 -10 4 -10 5 0 13 5 16 10 3 6 2 10 -4 10 -5 0
-13 -4 -16 -10z"/>
<path d="M2430 1757 c-34 -16 -75 -55 -67 -63 3 -4 18 1 31 10 31 20 73 20
106 1 14 -8 28 -14 33 -15 13 0 7 27 -10 48 -23 27 -61 34 -93 19z"/>
<path d="M2341 1666 c-7 -8 -8 -17 -3 -20 6 -3 13 1 16 10 9 23 2 28 -13 10z"/>
<path d="M3430 1721 c0 -6 7 -22 15 -35 20 -30 45 -147 45 -213 0 -29 5 -53
10 -53 13 0 12 6 -4 115 -16 108 -34 171 -53 186 -9 9 -13 8 -13 0z"/>
<path d="M1806 1675 c-3 -8 -1 -15 3 -15 5 0 11 7 15 15 3 8 1 15 -3 15 -5 0
-11 -7 -15 -15z"/>
<path d="M3360 1609 c0 -9 14 -36 32 -60 28 -39 33 -54 38 -131 4 -48 10 -91
13 -95 13 -13 -6 172 -20 197 -41 73 -63 103 -63 89z"/>
<path d="M1845 1579 c-22 -42 -15 -44 12 -3 12 19 18 34 13 34 -5 0 -17 -14
-25 -31z"/>
<path d="M1902 1517 c-31 -33 -27 -41 5 -11 14 13 24 26 21 29 -2 3 -14 -5
-26 -18z"/>
<path d="M3296 1528 c4 -7 18 -27 31 -44 13 -18 30 -51 37 -75 11 -35 14 -39
15 -18 1 23 -70 149 -84 149 -4 0 -3 -6 1 -12z"/>
<path d="M1990 1494 c-8 -3 -26 -24 -39 -47 -13 -23 -20 -37 -15 -32 5 6 25
27 43 48 19 20 33 36 30 36 -2 -1 -11 -3 -19 -5z"/>
<path d="M3540 1451 c0 -11 5 -23 10 -26 6 -3 10 3 10 14 0 11 -4 23 -10 26
-5 3 -10 -3 -10 -14z"/>
<path d="M3235 1428 c9 -30 58 -129 51 -103 -14 55 -42 125 -49 125 -5 0 -5
-10 -2 -22z"/>
<path d="M2032 1420 c-7 -11 -10 -20 -6 -20 7 0 34 27 34 34 0 13 -16 5 -28
-14z"/>
<path d="M3500 1391 c0 -12 5 -21 10 -21 6 0 10 6 10 14 0 8 -4 18 -10 21 -5
3 -10 -3 -10 -14z"/>
<path d="M2100 1360 c-10 -19 -10 -20 9 -8 22 13 28 28 11 28 -5 0 -14 -9 -20
-20z"/>
<path d="M3181 1344 c0 -21 4 -48 9 -59 6 -13 7 -1 3 35 -7 66 -13 78 -12 24z"/>
<path d="M2205 1354 c-18 -18 -38 -64 -32 -71 3 -2 10 10 17 27 7 17 20 35 29
39 9 5 13 12 10 16 -4 3 -14 -2 -24 -11z"/>
<path d="M2306 1325 c-15 -16 -26 -32 -26 -38 0 -5 14 5 30 23 17 18 28 35 26
37 -3 3 -16 -7 -30 -22z"/>
<path d="M2001 1306 c-8 -9 -11 -19 -7 -23 9 -9 29 13 24 27 -2 8 -8 7 -17 -4z"/>
<path d="M2357 1281 c-25 -43 -21 -50 8 -11 27 37 29 40 17 40 -4 0 -15 -13
-25 -29z"/>
<path d="M2457 1296 c-9 -7 -17 -19 -17 -27 0 -9 8 -6 22 9 25 24 22 37 -5 18z"/>
<path d="M3103 1295 c-6 -17 15 -103 28 -111 4 -2 1 16 -7 40 -12 34 -13 50
-4 65 7 15 7 21 0 21 -6 0 -13 -7 -17 -15z"/>
<path d="M2066 1275 c-9 -24 -8 -45 3 -45 12 0 20 35 11 50 -5 8 -9 7 -14 -5z"/>
<path d="M2534 1241 c-19 -29 -28 -57 -30 -94 l-3 -52 8 45 c7 47 23 83 49
113 8 9 13 20 9 23 -3 3 -18 -13 -33 -35z"/>
<path d="M1970 1223 c0 -44 31 -133 45 -133 3 0 1 8 -4 19 -6 10 -11 44 -12
74 -1 35 -6 54 -12 50 -6 -4 -8 2 -5 15 4 12 2 22 -3 22 -5 0 -9 -21 -9 -47z"/>
<path d="M2146 1242 c-23 -45 -21 -126 6 -179 14 -28 27 -42 35 -38 8 2 12 1
9 -3 -6 -10 11 -39 18 -31 3 3 -1 26 -9 52 -16 53 -20 127 -9 172 4 17 3 26
-2 22 -4 -4 -13 2 -20 14 -12 22 -12 22 -28 -9z m22 -137 c-3 -3 -9 2 -12 12
-6 14 -5 15 5 6 7 -7 10 -15 7 -18z"/>
<path d="M2960 1213 c0 -55 5 -54 14 5 4 26 2 42 -4 42 -5 0 -10 -21 -10 -47z"/>
<path d="M3205 1239 c2 -14 7 -44 11 -65 8 -55 32 -102 51 -100 11 1 22 -17
35 -56 11 -32 23 -58 27 -58 5 0 13 15 18 33 5 17 15 31 21 30 6 -2 9 4 6 12
-7 18 -9 18 -34 3 -10 -7 -22 -9 -25 -6 -9 8 27 48 37 42 8 -5 -5 36 -23 71
-15 31 -48 49 -63 36 -16 -13 -38 9 -55 54 -10 26 -10 27 -6 4z"/>
<path d="M3303 1253 c2 -5 12 -25 21 -46 10 -21 20 -36 23 -33 8 8 -28 86 -39
86 -5 0 -7 -3 -5 -7z"/>
<path d="M2627 1235 c-17 -16 -41 -108 -34 -127 2 -7 8 8 12 35 5 31 17 58 35
77 28 30 16 44 -13 15z"/>
<path d="M3051 1229 c0 -13 4 -33 9 -44 7 -15 8 -11 6 17 -3 42 -16 65 -15 27z"/>
<path d="M2822 1232 c-19 -13 -28 -61 -21 -117 5 -47 6 -46 7 23 2 65 4 75 22
79 11 3 20 9 20 14 0 11 -11 11 -28 1z"/>
<path d="M2876 1223 c-2 -10 -7 -28 -11 -40 -4 -14 -2 -23 4 -23 6 0 11 14 11
30 0 17 5 30 10 30 6 0 10 5 10 10 0 17 -18 11 -24 -7z"/>
<path d="M2714 1198 c-12 -18 -22 -88 -13 -82 5 3 9 16 9 29 0 13 7 30 15 39
8 8 15 17 15 20 0 11 -19 6 -26 -6z"/>
<path d="M2972 1140 c-2 -49 50 -191 65 -177 2 3 0 14 -6 25 -16 31 -13 38 7
16 24 -26 54 -31 45 -7 -3 10 -13 27 -21 38 -13 19 -14 19 -7 -4 5 -16 4 -21
-4 -16 -7 3 -10 23 -9 43 3 31 0 37 -17 37 -26 0 -42 16 -48 46 l-4 24 -1 -25z
m45 -102 c-3 -8 -6 -5 -6 6 -1 11 2 17 5 13 3 -3 4 -12 1 -19z"/>
<path d="M3074 1130 c2 -19 9 -48 15 -63 6 -16 11 -31 11 -35 1 -12 38 -57 43
-52 2 3 -5 25 -16 50 -11 25 -22 52 -23 60 -1 8 -9 28 -18 45 l-15 29 3 -34z"/>
<path d="M3151 1132 c-21 -17 -21 -17 -2 -66 10 -28 27 -53 37 -57 11 -4 14
-8 7 -8 -7 -1 4 -17 23 -36 l35 -36 -28 7 c-21 5 -25 4 -17 -5 6 -6 27 -14 47
-18 29 -4 38 -2 43 11 8 20 3 27 -24 29 -11 0 -18 6 -16 12 3 6 -7 34 -21 63
-14 28 -25 57 -25 63 0 6 -9 22 -19 35 -18 23 -20 23 -40 6z"/>
<path d="M2595 1053 c7 -38 34 -104 35 -85 0 7 4 11 8 8 4 -2 14 -1 22 4 11 7
12 12 3 21 -6 6 -9 18 -6 25 3 8 2 25 -1 38 -4 18 -12 23 -36 22 -30 -1 -31
-3 -25 -33z"/>
<path d="M2353 1066 c4 -10 7 -24 7 -32 0 -8 4 -14 9 -14 11 0 1 49 -12 57 -7
4 -8 0 -4 -11z"/>
<path d="M2000 1056 c0 -2 7 -7 16 -10 8 -3 12 -2 9 4 -6 10 -25 14 -25 6z"/>
<path d="M2950 1028 c0 -7 5 -20 10 -28 8 -12 10 -11 10 7 0 12 -4 25 -10 28
-5 3 -10 0 -10 -7z"/>
<path d="M2981 964 c0 -11 3 -14 6 -6 3 7 2 16 -1 19 -3 4 -6 -2 -5 -13z"/>
<path d="M3561 954 c0 -11 3 -14 6 -6 3 7 2 16 -1 19 -3 4 -6 -2 -5 -13z"/>
<path d="M3288 903 c-21 -5 -23 -17 -5 -31 17 -15 56 -11 50 4 -3 7 -12 10
-21 7 -11 -5 -14 -2 -9 10 3 9 5 16 4 16 -1 -1 -10 -3 -19 -6z"/>
<path d="M3920 1460 c0 -6 7 -10 15 -10 8 0 15 2 15 4 0 2 -7 6 -15 10 -8 3
-15 1 -15 -4z"/>
</g>
</svg>
